<?xml version="1.0" encoding="UTF-8"?>
<svg id="Layer_1" xmlns="http://www.w3.org/2000/svg" xmlns:xlink="http://www.w3.org/1999/xlink" version="1.1" viewBox="0 0 300.14 106.52">
  <!-- Generator: Adobe Illustrator 29.3.1, SVG Export Plug-In . SVG Version: 2.1.0 Build 151)  -->
  <defs>
    <style>
      .st0 {
        fill: #12004c;
      }

      .st1 {
        fill: url(#linear-gradient2);
      }

      .st2 {
        fill: url(#linear-gradient1);
      }

      .st3 {
        fill: url(#linear-gradient9);
      }

      .st4 {
        fill: url(#linear-gradient3);
      }

      .st5 {
        fill: url(#linear-gradient6);
      }

      .st6 {
        fill: url(#linear-gradient8);
      }

      .st7 {
        fill: url(#linear-gradient7);
      }

      .st8 {
        fill: url(#linear-gradient5);
      }

      .st9 {
        fill: url(#linear-gradient4);
      }

      .st10 {
        fill: url(#linear-gradient13);
      }

      .st11 {
        fill: url(#linear-gradient12);
      }

      .st12 {
        fill: url(#linear-gradient15);
      }

      .st13 {
        fill: url(#linear-gradient16);
      }

      .st14 {
        fill: url(#linear-gradient11);
      }

      .st15 {
        fill: url(#linear-gradient10);
      }

      .st16 {
        fill: url(#linear-gradient17);
      }

      .st17 {
        fill: url(#linear-gradient14);
      }

      .st18 {
        fill: #3e46db;
      }

      .st19 {
        fill: url(#linear-gradient);
      }

      .st20 {
        fill: #c132da;
      }

      .st21 {
        fill: #3ba2ff;
      }
    </style>
    <linearGradient id="linear-gradient" x1="267.88" y1="-70.06" x2="291.35" y2="-70.06" gradientUnits="userSpaceOnUse">
      <stop offset="0" stop-color="#c132da"/>
      <stop offset="1" stop-color="#3ba2ff"/>
    </linearGradient>
    <linearGradient id="linear-gradient1" x1="243.02" y1="-61.96" x2="276.16" y2="-61.96" xlink:href="#linear-gradient"/>
    <linearGradient id="linear-gradient2" x1="240.16" y1="-81.68" x2="257.93" y2="-81.68" xlink:href="#linear-gradient"/>
    <linearGradient id="linear-gradient3" x1="261.25" y1="-81.69" x2="279.03" y2="-81.69" xlink:href="#linear-gradient"/>
    <linearGradient id="linear-gradient4" x1="248.37" y1="-92.86" x2="270.82" y2="-92.86" xlink:href="#linear-gradient"/>
    <linearGradient id="linear-gradient5" x1="227.92" y1="-52.77" x2="251.3" y2="-52.77" xlink:href="#linear-gradient"/>
    <linearGradient id="linear-gradient6" x1="230.96" y1="-84.29" x2="246.19" y2="-84.29" xlink:href="#linear-gradient"/>
    <linearGradient id="linear-gradient7" x1="334.33" y1="54.48" x2="364.92" y2="54.48" xlink:href="#linear-gradient"/>
    <linearGradient id="linear-gradient8" x1="343.49" y1="33.5" x2="355.75" y2="33.5" xlink:href="#linear-gradient"/>
    <linearGradient id="linear-gradient9" x1="352.19" y1="57.51" x2="369.88" y2="57.51" xlink:href="#linear-gradient"/>
    <linearGradient id="linear-gradient10" x1="369.9" y1="70.88" x2="378.84" y2="70.88" xlink:href="#linear-gradient"/>
    <linearGradient id="linear-gradient11" x1="-238.7" y1="36.88" x2="-231.57" y2="36.88" xlink:href="#linear-gradient"/>
    <linearGradient id="linear-gradient12" x1="-247.25" y1="39.54" x2="-241.6" y2="39.54" xlink:href="#linear-gradient"/>
    <linearGradient id="linear-gradient13" x1="-258.16" y1="44.05" x2="-212.1" y2="44.05" xlink:href="#linear-gradient"/>
    <linearGradient id="linear-gradient14" x1="-228.67" y1="39.54" x2="-223.02" y2="39.54" xlink:href="#linear-gradient"/>
    <linearGradient id="linear-gradient15" x1="-242.63" y1="47.69" x2="-227.62" y2="47.69" xlink:href="#linear-gradient"/>
    <linearGradient id="linear-gradient16" x1="-250.39" y1="48.07" x2="-241.65" y2="48.07" xlink:href="#linear-gradient"/>
    <linearGradient id="linear-gradient17" x1="-228.61" y1="48.07" x2="-219.9" y2="48.07" xlink:href="#linear-gradient"/>
  </defs>
  <g>
    <path class="st19" d="M278.98-94.89c-.82.19-1.64.34-2.45.55-.35.09-1.63.61-1.81.58-.11-.02-1.55-1.35-1.61-1.44-.09-.13-.2-.1,0-.26.95-.33,1.9-.69,2.88-.95.83-.22,3.29-.48,3.75-.71.15-.08.88-1.17,1.21-1.47,5.76-5.21,13.99,3.09,8.68,8.81-.29.31-1.33,1-1.4,1.15-.19.39-.34,2.18-.49,2.83-1.46,6.38-5.29,12.11-8.99,17.39l2.15,3.11c4.1-1.06,6.94,3.71,4.1,6.83,2.26,4.4,5.42,13.04.92,16.9-3.98,3.42-11.13.92-15.33-.99l-2.72-1.43h2.11c.47,0,1.08-.66,1.37-.62.37.05,1.93.89,2.49,1.1,2.48.92,5.7,1.89,8.33,1.38,6.79-1.32,2.99-11.28,1.01-15.25-3.39.87-6.2-2.24-4.95-5.53.13-.35.87-1.32.86-1.4-.05-.35-1.71-2.12-1.73-2.45,1.31-1.94,2.14-3.97,2.83-6.19.24-.76.29-1.63.59-2.35.32-.78,1.05-1.71,1.46-2.5,1.66-3.22,3.17-6.46,3.76-10.08h-1.98c-1.94,0-5.04-3.1-5.04-5.04v-1.98Z"/>
    <g>
      <path class="st2" d="M267.75-56.24h2.04v3.06h-2.04v4.08h2.04v3.06h-4.08v2.11c0,.29-.56,1.6-.74,1.93-2.27,4.14-8.39,4.17-10.71.08-.2-.35-.79-1.7-.79-2.02v-2.11h-4.08v-3.06h2.04v-4.08h-2.04v-3.06h2.04v-4.27c0-.69-2.1-1.62-2.7-2.02-2.29-1.56-4.28-3.61-5.71-6,4.85-6.13,10.41-11.67,16.53-16.53,6.24,4.73,11.72,10.43,16.62,16.53-1.31,2.17-3.08,4.08-5.13,5.56-.79.57-2.22,1.22-2.84,1.76-.14.13-.44.55-.44.7v4.27ZM257.55-56.24v-16.39c0-.56-2.9-3-3.38-3.63l-1.34,1.34,2.68,2.68v16.01h2.04ZM263.67-56.24v-16.01l2.68-2.68-1.34-1.34c-.48.63-3.38,3.07-3.38,3.63v16.39h2.04Z"/>
      <path class="st1" d="M246.54-92.96c.5-.08,4.27,1.98,4.97,2.38,2.23,1.27,4.4,2.72,6.42,4.3-5.83,4.72-11.23,9.98-15.88,15.88-3.16-6.46-2.27-14.31,2.05-20.02.35-.46,2-2.47,2.44-2.54Z"/>
      <path class="st4" d="M272.45-92.96c.44-.11.82.43,1.12.74,5.48,5.75,7.16,14.61,3.57,21.81-4.66-5.89-10.04-11.17-15.88-15.88,3.48-2.6,7.19-4.95,11.2-6.68Z"/>
      <path class="st9" d="M270.82-94.63l-11.28,7.02c-3.53-2.58-7.26-4.85-11.17-6.83,6.52-4.98,15.76-4.73,22.45-.19Z"/>
    </g>
    <g>
      <path class="st8" d="M233.18-49.09h1.98c1.94,0,5.04,3.1,5.04,5.04v1.98c2.65-.48,5.21-1.33,7.62-2.53.3-.04.9.62,1.37.62h2.11l-2.72,1.43c-2.01.88-4.06,1.71-6.21,2.21-.67.15-2.54.31-2.94.51-.18.09-.66.91-.89,1.15-.82.86-2.34,1.69-3.53,1.83-6.89.81-9.75-7.84-4.07-11.47,1.02-7.63,5.16-14.43,9.76-20.41l1.09,2.04c-3.81,5.31-7.43,11.06-8.61,17.6Z"/>
      <path class="st5" d="M246.19-95.4l-1.74,1.63c-3.81-1.38-10.74-2.62-11.27,3.15-.35,3.86,1.26,7.62,2.81,11.03.73-.18,1.56-.22,2.27.02-.17,1.83.08,3.69.44,5.49.28,1.41,1.17,2.26-.88,2.51-4.06.5-6.31-3.94-3.66-6.94-2.19-4.36-5.17-12.21-1.43-16.4,3.19-3.58,9.58-1.99,13.46-.51Z"/>
    </g>
  </g>
  <g>
    <g>
      <path class="st7" d="M340.93,33.63v1.35c0,2.37,2.05,3.75,4.21,3.87,2.67.15,6.38.16,9.04,0,2.12-.13,4.12-1.56,4.12-3.87v-1.35h3.43c1.19,0,3.17,1.99,3.17,3.17v10.03c-2.48-.9-5.16-.94-7.69-.17h-16.25c-1.14,0-1.87,1.3-1.05,2.17.14.15.7.43.87.43h12.21c-.19.28-.47.49-.69.74-.5.58-.89,1.27-1.37,1.85h-9.89c-1.2-.05-2,1.37-1.09,2.24.13.12.68.39.83.39h9.17c-.21.85-.38,1.73-.35,2.61h-8.72c-1.78.23-1.72,2.41,0,2.6h8.98c.12.93.46,1.8.87,2.62h-9.95c-.15,0-.7.26-.83.39-.91.86-.12,2.28,1.09,2.22h11.39s1.22,1.12,1.22,1.12l2.21,1.48h-15.08c-.18,0-.73.28-.87.43-.85.9-.04,2.23,1.13,2.18h17.21c.88-.09,1.53-.64,1.35-1.57,1.79.22,3.63-.05,5.3-.7v4.3c0,1.31-2.01,3.15-3.35,3.17h-23.89c-1.77-.28-3.12-1.65-3.35-3.43v-34.93c0-1.34,1.88-3.35,3.17-3.35h3.43ZM340.83,41.47c-1.77.25-1.57,2.5.15,2.58h17.29c1.85-.14,1.85-2.47,0-2.6l-17.44.02Z"/>
      <path class="st6" d="M344.82,30.87c3.02.16,6.39-.29,9.37-.02.66.06,1.38.62,1.5,1.28.08.48.09,2.81-.02,3.24s-.62.83-1.04.87l-10.21-.04c-.34-.09-.78-.55-.85-.89-.1-.5-.08-2.47-.02-3.02.07-.66.65-1.25,1.28-1.41Z"/>
    </g>
    <g>
      <path class="st3" d="M369.87,64.64c-.7.35-1.4,1.03-1.74,1.74-.13.03-.14-.03-.22-.08-.31-.21-1.77-1.9-1.91-1.9-1.16.86-2.57,1.44-4.01,1.63-10.65,1.4-13.78-14.16-3.57-17.04,8.05-2.27,14.33,6.83,9.47,13.53,0,.13,1.68,1.6,1.9,1.91.05.07.12.09.08.22ZM364.46,53.63c-.19.01-.47.12-.63.24l-4.17,4.17c-.14,0-1.52-1.72-2.04-1.87-1.1-.33-2.14.7-1.59,1.76.13.24,2.6,2.74,2.89,2.93.65.43,1.14.23,1.69-.21,1.17-.95,3.79-3.56,4.74-4.74.78-.97.4-2.35-.89-2.28Z"/>
      <path class="st15" d="M378.09,74.6c-.75.75-1.98.95-2.96.54-.74-.3-3.82-3.41-4.44-4.16-2.35-2.83.99-6.15,3.83-3.74.77.66,3.8,3.64,4.11,4.4.41.98.21,2.2-.54,2.96Z"/>
    </g>
  </g>
  <g>
    <circle class="st14" cx="-235.13" cy="36.88" r="3.56"/>
    <circle class="st11" cx="-244.42" cy="39.54" r="2.82"/>
    <path class="st10" d="M-234.16,23.04c.07.11,1.62.17,1.94.22,7.17,1.03,13.3,5.63,16.26,12.23,1.07,2.39,1.63,4.94,1.83,7.56.18.25,2.08-.43,2.03,1.06-.04,1.37-1.86.72-2.03.97-.35,6.1-3.26,11.77-8.06,15.52-3.42,2.68-7.58,4.19-11.92,4.46-.25.18.43,2.08-1.06,2.03-1.37-.04-.72-1.86-.97-2.03-6.09-.36-11.77-3.26-15.52-8.06-2.68-3.42-4.19-7.57-4.46-11.92-.18-.25-2.08.43-2.03-1.06.04-1.37,1.86-.72,2.03-.97.27-4.35,1.78-8.5,4.46-11.92,3.74-4.79,9.43-7.71,15.52-8.06.22-.16-.42-2.4,1.33-2,.84.19.61,1.35.66,1.98ZM-236.09,24.97c-1.38.14-2.72.32-4.07.68-6.47,1.74-11.63,6.92-13.38,13.38-.37,1.35-.54,2.68-.68,4.07h1.39c.31,0,.7.66.69.99-.01.3-.4.93-.69.93h-1.39c.14,1.38.32,2.72.68,4.07,1.73,6.44,6.93,11.66,13.38,13.38,1.34.36,2.69.53,4.07.68v-1.39c0-.28.62-.68.93-.69.33-.01.99.38.99.69v1.39c1.38-.14,2.72-.32,4.07-.68,6.45-1.74,11.64-6.92,13.38-13.38.36-1.35.54-2.69.68-4.07h-1.39c-.31,0-.7-.66-.69-.99.01-.3.4-.93.69-.93h1.39c-.14-1.38-.32-2.72-.68-4.07-1.83-6.8-7.48-12.17-14.38-13.63-1.02-.22-2.04-.3-3.07-.43v1.39c0,.28-.62.68-.93.69-.33.01-.99-.38-.99-.69v-1.39Z"/>
    <circle class="st17" cx="-225.84" cy="39.54" r="2.82"/>
    <g>
      <path class="st12" d="M-236.01,42.55c3.54-.36,6.98,1.8,8.08,5.2.74,2.3.21,3.03-1.89,3.97-3.39,1.52-7.23,1.52-10.62,0-1.47-.66-2.42-1.18-2.15-2.98.47-3.1,3.46-5.87,6.57-6.18Z"/>
      <path class="st13" d="M-241.65,44.64c-.36.7-.87,1.29-1.2,2.02-.57,1.28-1.14,3.16-.14,4.36l.86.91c-2.15.49-4.48.26-6.49-.65-1.77-.8-2.13-1.47-1.42-3.37,1.24-3.32,5.2-4.93,8.39-3.26Z"/>
      <path class="st16" d="M-228.13,51.92l.86-.91c1-1.2.43-3.07-.14-4.36-.32-.73-.83-1.32-1.2-2.02,3.33-1.76,7.52.12,8.53,3.7.5,1.78-.06,2.28-1.63,2.96-2,.88-4.29,1.12-6.42.63Z"/>
    </g>
  </g>
  <g>
    <g>
      <rect class="st20" y="89.75" width="16.77" height="16.77"/>
      <rect class="st0" x="25.8" y="89.75" width="16.77" height="16.77"/>
      <rect class="st21" x="51.59" y="89.75" width="16.77" height="16.77"/>
      <rect class="st18" x="77.39" y="89.75" width="16.77" height="16.77"/>
    </g>
    <g>
      <rect class="st20" x="102.99" y="89.75" width="16.77" height="16.77"/>
      <rect class="st0" x="128.78" y="89.75" width="16.77" height="16.77"/>
      <rect class="st21" x="154.58" y="89.75" width="16.77" height="16.77"/>
      <rect class="st18" x="180.38" y="89.75" width="16.77" height="16.77"/>
    </g>
    <g>
      <rect class="st20" x="205.98" y="89.75" width="16.77" height="16.77"/>
      <rect class="st0" x="231.77" y="89.75" width="16.77" height="16.77"/>
      <rect class="st21" x="257.57" y="89.75" width="16.77" height="16.77"/>
      <rect class="st18" x="283.37" y="89.75" width="16.77" height="16.77"/>
    </g>
  </g>
</svg>