<?xml version="1.0" encoding="UTF-8"?>
<svg id="Layer_1" xmlns="http://www.w3.org/2000/svg" version="1.1" viewBox="0 0 526.74 388.25">
  <!-- Generator: Adobe Illustrator 29.3.1, SVG Export Plug-In . SVG Version: 2.1.0 Build 151)  -->
  <defs>
    <style>
      .st0 {
        fill: #fff;
      }
    </style>
  </defs>
  <g id="fVOWc7">
    <g>
      <path class="st0" d="M1.29,0c3.05,67.54-4.07,138.68,0,205.8,2.12,34.97,10.99,84.55,28.43,115.33,30.88,54.49,91.18,66.72,149.63,67.11v-103.63c-14.05-.55-31.38-1.94-43.42-9.86-25.62-16.86-28.35-68.98-28.1-96.69h125.52s0-178.07,0-178.07H1.29Z"/>
      <path class="st0" d="M526.74,0h-232.08c1,53.22-1.28,106.65-.06,159.88,1.21,52.8,3.98,122.25,33.61,167.82,32.36,49.78,90.09,60.4,145.99,60.54v-103.63c-16.08-.44-33.94-1.95-47.18-11.93-24.32-18.32-25.5-66.82-27.26-94.63h126.99s0-178.06,0-178.06Z"/>
    </g>
  </g>
</svg>