<?xml version="1.0" encoding="UTF-8"?>
<svg id="Layer_1" xmlns="http://www.w3.org/2000/svg" xmlns:xlink="http://www.w3.org/1999/xlink" version="1.1" viewBox="0 0 113.39 113.39">
  <!-- Generator: Adobe Illustrator 29.3.1, SVG Export Plug-In . SVG Version: 2.1.0 Build 151)  -->
  <defs>
    <style>
      .st0 {
        fill: url(#linear-gradient2);
      }

      .st1 {
        fill: url(#linear-gradient1);
      }

      .st2 {
        fill: url(#linear-gradient9);
      }

      .st3 {
        fill: url(#linear-gradient3);
      }

      .st4 {
        fill: url(#linear-gradient6);
      }

      .st5 {
        fill: url(#linear-gradient8);
      }

      .st6 {
        fill: url(#linear-gradient7);
      }

      .st7 {
        fill: url(#linear-gradient5);
      }

      .st8 {
        fill: url(#linear-gradient4);
      }

      .st9 {
        fill: url(#linear-gradient10);
      }

      .st10 {
        fill: url(#linear-gradient);
      }
    </style>
    <linearGradient id="linear-gradient" x1="330.57" y1="122.66" x2="361.16" y2="122.66" gradientUnits="userSpaceOnUse">
      <stop offset="0" stop-color="#c132da"/>
      <stop offset="1" stop-color="#3ba2ff"/>
    </linearGradient>
    <linearGradient id="linear-gradient1" x1="339.74" y1="101.68" x2="351.99" y2="101.68" xlink:href="#linear-gradient"/>
    <linearGradient id="linear-gradient2" x1="348.44" y1="125.69" x2="366.13" y2="125.69" xlink:href="#linear-gradient"/>
    <linearGradient id="linear-gradient3" x1="366.15" y1="139.07" x2="375.09" y2="139.07" xlink:href="#linear-gradient"/>
    <linearGradient id="linear-gradient4" x1="51.69" y1="46.63" x2="61.7" y2="46.63" xlink:href="#linear-gradient"/>
    <linearGradient id="linear-gradient5" x1="39.69" y1="50.36" x2="47.62" y2="50.36" xlink:href="#linear-gradient"/>
    <linearGradient id="linear-gradient6" x1="24.38" y1="56.69" x2="89.01" y2="56.69" xlink:href="#linear-gradient"/>
    <linearGradient id="linear-gradient7" x1="65.77" y1="50.36" x2="73.7" y2="50.36" xlink:href="#linear-gradient"/>
    <linearGradient id="linear-gradient8" x1="46.17" y1="61.8" x2="67.24" y2="61.8" xlink:href="#linear-gradient"/>
    <linearGradient id="linear-gradient9" x1="35.28" y1="62.34" x2="47.54" y2="62.34" xlink:href="#linear-gradient"/>
    <linearGradient id="linear-gradient10" x1="65.85" y1="62.34" x2="78.07" y2="62.34" xlink:href="#linear-gradient"/>
  </defs>
  <g>
    <g>
      <path class="st10" d="M337.18,101.81v1.35c0,2.37,2.05,3.75,4.21,3.87,2.67.15,6.38.16,9.04,0,2.12-.13,4.12-1.56,4.12-3.87v-1.35h3.43c1.19,0,3.17,1.99,3.17,3.17v10.03c-2.48-.9-5.16-.94-7.69-.17h-16.25c-1.14,0-1.87,1.3-1.05,2.17.14.15.7.43.87.43h12.21c-.19.28-.47.49-.69.74-.5.58-.89,1.27-1.37,1.85h-9.89c-1.2-.05-2,1.37-1.09,2.24.13.12.68.39.83.39h9.17c-.21.85-.38,1.73-.35,2.61h-8.72c-1.78.23-1.72,2.41,0,2.6h8.98c.12.93.46,1.8.87,2.62h-9.95c-.15,0-.7.26-.83.39-.91.86-.12,2.28,1.09,2.22h11.39s1.22,1.12,1.22,1.12l2.21,1.48h-15.08c-.18,0-.73.28-.87.43-.85.9-.04,2.23,1.13,2.18h17.21c.88-.09,1.53-.64,1.35-1.57,1.79.22,3.63-.05,5.3-.7v4.3c0,1.31-2.01,3.15-3.35,3.17h-23.89c-1.77-.28-3.12-1.65-3.35-3.43v-34.93c0-1.34,1.88-3.35,3.17-3.35h3.43ZM337.07,109.65c-1.77.25-1.57,2.5.15,2.58h17.29c1.85-.14,1.85-2.47,0-2.6l-17.44.02Z"/>
      <path class="st1" d="M341.07,99.05c3.02.16,6.39-.29,9.37-.02.66.06,1.38.62,1.5,1.28.08.48.09,2.81-.02,3.24s-.62.83-1.04.87l-10.21-.04c-.34-.09-.78-.55-.85-.89-.1-.5-.08-2.47-.02-3.02.07-.66.65-1.25,1.28-1.41Z"/>
    </g>
    <g>
      <path class="st0" d="M366.12,132.82c-.7.35-1.4,1.03-1.74,1.74-.13.03-.14-.03-.22-.08-.31-.21-1.77-1.9-1.91-1.9-1.16.86-2.57,1.44-4.01,1.63-10.65,1.4-13.78-14.16-3.57-17.04,8.05-2.27,14.33,6.83,9.47,13.53,0,.13,1.68,1.6,1.9,1.91.05.07.12.09.08.22ZM360.71,121.81c-.19.01-.47.12-.63.24l-4.17,4.17c-.14,0-1.52-1.72-2.04-1.87-1.1-.33-2.14.7-1.59,1.76.13.24,2.6,2.74,2.89,2.93.65.43,1.14.23,1.69-.21,1.17-.95,3.79-3.56,4.74-4.74.78-.97.4-2.35-.89-2.28Z"/>
      <path class="st3" d="M374.34,142.79c-.75.75-1.98.95-2.96.54-.74-.3-3.82-3.41-4.44-4.16-2.35-2.83.99-6.15,3.83-3.74.77.66,3.8,3.64,4.11,4.4.41.98.21,2.2-.54,2.96Z"/>
    </g>
  </g>
  <g>
    <circle class="st8" cx="56.69" cy="46.63" r="5"/>
    <circle class="st7" cx="43.66" cy="50.36" r="3.96"/>
    <path class="st4" d="M58.06,27.21c.1.15,2.28.24,2.72.31,10.07,1.44,18.66,7.9,22.82,17.16,1.51,3.36,2.29,6.93,2.56,10.6.25.35,2.92-.61,2.85,1.49-.06,1.93-2.61,1.01-2.85,1.36-.5,8.56-4.58,16.52-11.31,21.78-4.81,3.76-10.63,5.87-16.73,6.26-.35.25.61,2.92-1.49,2.85-1.93-.06-1.01-2.61-1.36-2.85-8.55-.5-16.52-4.58-21.78-11.31-3.75-4.8-5.89-10.63-6.26-16.73-.25-.35-2.92.61-2.85-1.49.06-1.93,2.61-1.01,2.85-1.36.37-6.11,2.5-11.92,6.26-16.73,5.25-6.72,13.23-10.82,21.78-11.31.31-.22-.59-3.37,1.87-2.81,1.18.27.86,1.9.92,2.78ZM55.35,29.92c-1.94.2-3.82.44-5.71.95-9.08,2.44-16.32,9.71-18.78,18.78-.51,1.9-.75,3.76-.95,5.71h1.95c.43,0,.98.93.96,1.39-.01.43-.57,1.3-.96,1.3h-1.95c.2,1.94.44,3.82.95,5.71,2.43,9.03,9.73,16.36,18.78,18.78,1.88.5,3.78.74,5.71.95v-1.95c0-.39.87-.95,1.3-.96.46-.02,1.39.53,1.39.96v1.95c1.94-.2,3.82-.44,5.71-.95,9.06-2.44,16.34-9.72,18.78-18.78.51-1.89.75-3.77.95-5.71h-1.95c-.43,0-.98-.93-.96-1.39.01-.43.57-1.3.96-1.3h1.95c-.2-1.94-.44-3.82-.95-5.71-2.57-9.54-10.5-17.08-20.18-19.13-1.43-.3-2.87-.42-4.31-.6v1.95c0,.39-.87.95-1.3.96-.46.02-1.39-.53-1.39-.96v-1.95Z"/>
    <circle class="st6" cx="69.73" cy="50.36" r="3.96"/>
    <g>
      <path class="st5" d="M55.46,54.59c4.97-.51,9.8,2.53,11.34,7.29,1.04,3.23.29,4.25-2.65,5.57-4.76,2.13-10.15,2.13-14.9,0-2.07-.93-3.4-1.66-3.01-4.18.66-4.35,4.86-8.23,9.22-8.68Z"/>
      <path class="st2" d="M47.54,57.52c-.51.98-1.22,1.81-1.68,2.83-.8,1.8-1.6,4.44-.2,6.12l1.21,1.28c-3.02.68-6.29.36-9.11-.92-2.49-1.13-2.99-2.06-1.99-4.73,1.74-4.66,7.3-6.92,11.78-4.58Z"/>
      <path class="st9" d="M66.52,67.74l1.21-1.28c1.4-1.68.6-4.31-.2-6.12-.45-1.02-1.17-1.85-1.68-2.83,4.67-2.47,10.55.17,11.97,5.19.71,2.5-.09,3.19-2.29,4.16-2.8,1.24-6.03,1.57-9.01.88Z"/>
    </g>
  </g>
</svg>