<svg viewBox="0 36.036358695652176 231.24738 235.16684782608698" version="1.1" xmlns="http://www.w3.org/2000/svg" id="Layer_1" style="max-height: 500px" width="231.24738" height="235.16684782608698">
  
  <defs>
    <style>
      .st0 {
        fill: #12004c;
      }

      .st1 {
        fill: #3e46db;
      }

      .st2 {
        fill: #666;
      }

      .st3 {
        fill: #c132da;
      }

      .st4 {
        fill: #3ba2ff;
      }
    </style>
  </defs>
  <g>
    <path d="M234.84,43.1h38.66v145.48h-38.66V43.1Z" class="st0"/>
    <path d="M423.76,185.23c-5.63,1.43-11.73,2.75-18.31,3.96-3.33.68-7.06,1.17-11.19,1.48-4.14.3-8.69.46-13.63.46-9.7,0-19.54-1.32-29.5-3.96-9.77-2.65-18.72-6.89-26.86-12.72-7.94-5.69-14.48-13.36-19.63-23-5.02-9.63-7.53-21.3-7.53-35,0-12.68,2.08-23.77,6.26-33.27,4.17-9.5,9.97-17.39,17.39-23.7,7.42-6.31,16.23-11.02,26.4-14.14,10.17-3.12,21.27-4.68,33.27-4.68,7.59,0,14.91.73,21.92,2.18s14.09,3.24,21.22,5.34l-3.16,31.44c-6.31-3.46-12.51-6.02-18.62-7.69-6.11-1.66-12.51-2.5-19.22-2.5s-13.18,1.17-18.77,3.51-10.38,5.59-14.34,9.77-7.02,9.14-9.15,14.91c-2.13,5.76-3.21,12.04-3.21,18.82,0,7.19,1.2,13.62,3.61,19.28,2.41,5.66,5.76,10.47,10.07,14.39,4.31,3.93,9.43,6.96,15.36,9.05,5.94,2.1,12.43,3.16,19.48,3.16,6.37,0,12.7-.73,18.97-2.18,6.27-1.46,12.05-3.24,17.34-5.34l1.83,30.42v.02Z" class="st0"/>
    <path d="M441.87,152.78c5.09,2.85,11.02,5.16,17.81,6.92,6.79,1.77,14.18,2.65,22.18,2.65,3.11,0,6.12-.18,9-.56,2.88-.37,5.44-1.07,7.69-2.08s4.01-2.44,5.34-4.27,1.98-4.24,1.98-7.22c0-4.61-1.7-8.1-5.09-10.48-3.46-2.38-7.72-4.43-12.77-6.16-5.06-1.73-10.57-3.44-16.53-5.14-5.97-1.7-11.5-4.14-16.58-7.32-5.16-3.19-9.39-7.39-12.72-12.62-3.39-5.36-5.09-12.45-5.09-21.27s1.93-15.94,5.8-21.77c3.86-5.69,8.85-10.24,14.96-13.63,5.97-3.33,12.72-5.66,20.25-7.02,7.53-1.43,14.99-2.13,22.38-2.13s13.93.5,20.4,1.48c6.47.98,12.16,2.29,17.04,3.91l-2.44,30.01c-5.09-2.38-10.37-4.07-15.82-5.09-5.46-1.02-10.97-1.53-16.53-1.53-2.45,0-5.18.1-8.19.3s-5.85.75-8.49,1.63-4.86,2.23-6.66,4.07-2.7,4.34-2.7,7.53c0,3.8,1.7,6.79,5.09,8.95,3.46,2.03,7.72,3.83,12.77,5.39,5.06,1.56,10.56,3.19,16.53,4.88,5.84,1.56,11.36,3.96,16.58,7.22,5.09,3.19,9.32,7.42,12.72,12.72,3.39,5.36,5.09,12.38,5.09,21.05,0,9.43-1.8,17.23-5.39,23.4-3.6,6.17-8.39,11.07-14.4,14.7s-12.83,6.17-20.5,7.64c-7.67,1.46-15.56,2.18-23.7,2.18-3.46,0-6.99-.14-10.58-.4-3.6-.27-7.36-.68-11.3-1.22-7.87-1.02-15.03-2.58-21.47-4.68l3.36-32.05h0Z" class="st0"/>
    <path d="M690.01,185.23c-5.63,1.43-11.73,2.75-18.31,3.96-3.33.68-7.06,1.17-11.19,1.48-4.14.3-8.69.46-13.63.46-9.7,0-19.54-1.32-29.5-3.96-9.77-2.65-18.72-6.89-26.86-12.72-7.94-5.69-14.48-13.36-19.63-23-5.02-9.63-7.53-21.3-7.53-35,0-12.68,2.08-23.77,6.26-33.27,4.17-9.5,9.97-17.39,17.39-23.7s16.23-11.02,26.4-14.14c10.17-3.12,21.27-4.68,33.27-4.68,7.59,0,14.91.73,21.92,2.18s14.09,3.24,21.22,5.34l-3.16,31.44c-6.31-3.46-12.51-6.02-18.62-7.69-6.11-1.66-12.51-2.5-19.22-2.5s-13.18,1.17-18.77,3.51c-5.59,2.34-10.38,5.59-14.34,9.77s-7.02,9.14-9.15,14.91c-2.13,5.76-3.21,12.04-3.21,18.82,0,7.19,1.2,13.62,3.61,19.28,2.41,5.66,5.76,10.47,10.07,14.39,4.31,3.93,9.43,6.96,15.36,9.05,5.94,2.1,12.43,3.16,19.48,3.16,6.37,0,12.7-.73,18.97-2.18,6.27-1.46,12.05-3.24,17.34-5.34l1.83,30.42v.02Z" class="st0"/>
    <path d="M732.74,71.89h-35.81v-28.79h110.38v28.79h-35.81v116.69h-38.76v-116.69h0Z" class="st0"/>
  </g>
  <g>
    <path d="M237.41,213.97v14h-2.41v-14h2.41Z" class="st2"/>
    <path d="M242.48,219.78v8.18h-2.32v-10.41h2.18l.14,2.22h0ZM242.06,222.38h-.75c0-.75.11-1.42.31-2.04s.48-1.14.85-1.59c.36-.44.8-.78,1.3-1.02.51-.24,1.07-.36,1.69-.36.5,0,.95.07,1.36.21.41.14.76.36,1.05.67.29.31.52.71.67,1.2.15.49.23,1.09.23,1.8v6.72h-2.33v-6.73c0-.5-.07-.9-.22-1.19s-.35-.5-.63-.62-.61-.19-1.01-.19-.75.08-1.07.25c-.31.17-.58.39-.79.68-.21.29-.38.62-.5,1-.11.38-.17.78-.17,1.21h.01Z" class="st2"/>
    <path d="M253.44,219.78v8.18h-2.32v-10.41h2.18l.14,2.22h0ZM253.03,222.38h-.75c0-.75.11-1.42.31-2.04s.48-1.14.85-1.59c.36-.44.8-.78,1.3-1.02.51-.24,1.07-.36,1.69-.36.5,0,.95.07,1.36.21.41.14.76.36,1.05.67.29.31.52.71.67,1.2.15.49.23,1.09.23,1.8v6.72h-2.33v-6.73c0-.5-.07-.9-.22-1.19s-.35-.5-.63-.62-.61-.19-1.01-.19-.75.08-1.07.25c-.31.17-.58.39-.79.68-.21.29-.38.62-.5,1-.11.38-.17.78-.17,1.21h.01Z" class="st2"/>
    <path d="M261.66,222.88v-.22c0-.75.11-1.45.33-2.09.22-.65.53-1.21.95-1.68.41-.48.92-.85,1.52-1.12.6-.27,1.28-.4,2.03-.4s1.44.13,2.04.4,1.11.64,1.52,1.12.73,1.04.95,1.68c.22.64.33,1.34.33,2.09v.22c0,.75-.11,1.44-.33,2.09-.22.64-.54,1.2-.95,1.68s-.92.85-1.52,1.12c-.6.27-1.27.4-2.03.4s-1.44-.13-2.04-.4-1.11-.64-1.52-1.12c-.42-.48-.73-1.04-.95-1.68-.22-.64-.33-1.34-.33-2.09ZM263.98,222.66v.22c0,.47.05.91.14,1.33s.25.78.45,1.1.47.56.79.74.7.27,1.14.27.8-.09,1.12-.27.58-.42.78-.74c.21-.31.36-.68.46-1.1s.15-.86.15-1.33v-.22c0-.46-.05-.9-.15-1.31s-.25-.78-.46-1.1-.47-.57-.79-.76c-.32-.18-.69-.27-1.13-.27s-.81.09-1.13.27-.58.43-.78.76c-.21.32-.36.69-.45,1.1-.1.41-.14.85-.14,1.31Z" class="st2"/>
    <path d="M274.57,217.56l2.6,8.61.13,1.8h-1.5l-3.64-10.41h2.41ZM276.52,226.13l2.55-8.57h2.41l-3.62,10.41h-1.5l.16-1.84Z" class="st2"/>
    <path d="M288.96,221.64l.02,1.43h-1.66c-.43,0-.81.04-1.14.12-.33.08-.6.2-.82.35s-.38.34-.49.56-.16.47-.16.74.06.53.19.75c.13.23.32.41.56.53s.55.19.9.19c.47,0,.89-.1,1.25-.29s.64-.44.84-.72c.21-.29.31-.56.33-.81l.75,1.03c-.08.26-.21.54-.39.85-.19.3-.43.59-.73.86s-.65.5-1.07.67c-.41.17-.89.26-1.43.26-.68,0-1.28-.14-1.82-.41-.53-.27-.95-.64-1.25-1.11-.3-.46-.45-.99-.45-1.58,0-.55.1-1.04.31-1.47s.52-.78.92-1.07c.41-.29.91-.51,1.5-.66s1.26-.23,2.02-.23h1.82ZM288.62,225.88v-4.96c0-.37-.07-.69-.2-.96s-.34-.48-.61-.63-.62-.22-1.02-.22-.71.07-.98.19c-.27.13-.49.3-.64.52-.15.22-.23.46-.23.74h-2.31c0-.41.1-.81.3-1.19.2-.39.49-.73.87-1.03s.83-.54,1.36-.71,1.12-.26,1.77-.26c.78,0,1.48.13,2.08.39.61.26,1.08.66,1.43,1.19s.52,1.19.52,1.99v4.63c0,.47.03.9.1,1.27.07.38.16.7.29.98v.15h-2.38c-.11-.25-.19-.57-.26-.96-.06-.39-.09-.76-.09-1.13h0Z" class="st2"/>
    <path d="M298.15,217.56v1.69h-5.87v-1.69h5.87ZM293.97,215.01h2.32v10.08c0,.32.05.57.14.73s.22.28.39.34.36.09.59.09c.16,0,.31-.01.46-.03s.27-.04.36-.06v1.77c-.18.06-.41.11-.66.15s-.54.07-.87.07c-.53,0-1-.09-1.42-.28-.41-.19-.73-.5-.96-.93s-.35-1-.35-1.71v-10.22Z" class="st2"/>
    <path d="M299.93,214.83c0-.35.12-.65.35-.88s.56-.35.98-.35.73.12.97.35.35.53.35.88-.12.64-.35.87c-.24.23-.56.35-.97.35s-.74-.12-.98-.35c-.23-.23-.35-.52-.35-.87ZM302.42,217.56v10.41h-2.33v-10.41h2.33Z" class="st2"/>
    <path d="M304.51,222.88v-.22c0-.75.11-1.45.33-2.09.22-.65.53-1.21.95-1.68.41-.48.92-.85,1.52-1.12.6-.27,1.28-.4,2.03-.4s1.44.13,2.04.4,1.11.64,1.52,1.12.73,1.04.95,1.68c.22.64.33,1.34.33,2.09v.22c0,.75-.11,1.44-.33,2.09-.22.64-.54,1.2-.95,1.68s-.92.85-1.52,1.12c-.6.27-1.27.4-2.03.4s-1.44-.13-2.04-.4-1.11-.64-1.52-1.12c-.42-.48-.73-1.04-.95-1.68-.22-.64-.33-1.34-.33-2.09ZM306.83,222.66v.22c0,.47.05.91.14,1.33s.25.78.45,1.1.47.56.79.74.7.27,1.14.27.8-.09,1.12-.27.58-.42.78-.74c.21-.31.36-.68.46-1.1s.15-.86.15-1.33v-.22c0-.46-.05-.9-.15-1.31s-.25-.78-.46-1.1-.47-.57-.79-.76c-.32-.18-.69-.27-1.13-.27s-.81.09-1.13.27-.58.43-.78.76c-.21.32-.36.69-.45,1.1-.1.41-.14.85-.14,1.31Z" class="st2"/>
    <path d="M318.43,219.78v8.18h-2.32v-10.41h2.18l.14,2.22h0ZM318.01,222.38h-.75c0-.75.11-1.42.31-2.04s.48-1.14.85-1.59c.36-.44.8-.78,1.3-1.02.51-.24,1.07-.36,1.69-.36.5,0,.95.07,1.36.21.41.14.76.36,1.05.67.29.31.52.71.67,1.2.15.49.23,1.09.23,1.8v6.72h-2.33v-6.73c0-.5-.07-.9-.22-1.19s-.35-.5-.63-.62-.61-.19-1.01-.19-.75.08-1.07.25c-.31.17-.58.39-.79.68-.21.29-.38.62-.5,1-.11.38-.17.78-.17,1.21h.01Z" class="st2"/>
    <path d="M334.38,220.35l2.41-1.62c.4-.27.69-.53.87-.79.17-.26.26-.59.26-.98,0-.33-.13-.64-.38-.92s-.62-.42-1.09-.42c-.33,0-.6.08-.83.23s-.39.35-.51.6c-.11.25-.17.52-.17.82s.07.58.22.89.35.62.61.95c.26.33.54.68.87,1.06l6.62,7.81h-2.68l-5.4-6.36c-.47-.57-.88-1.08-1.24-1.55s-.64-.93-.84-1.38-.3-.9-.3-1.38c0-.73.15-1.36.45-1.88s.73-.93,1.28-1.22,1.2-.43,1.93-.43,1.33.14,1.84.43c.52.28.91.66,1.19,1.13s.42.98.42,1.54c0,.44-.08.85-.24,1.21s-.38.7-.66,1-.61.59-.98.86l-2.93,2.13c-.34.28-.59.54-.75.79s-.27.49-.32.7c-.05.21-.08.4-.08.56,0,.41.09.78.26,1.12.18.33.44.6.78.79.34.2.76.29,1.25.29.53,0,1.05-.12,1.55-.36s.95-.58,1.35-1.02.71-.97.95-1.59c.23-.62.35-1.3.35-2.05h2c0,.68-.07,1.32-.2,1.93s-.34,1.17-.63,1.69c-.28.52-.66.99-1.12,1.39-.04.04-.09.1-.15.17-.05.07-.11.12-.16.17-.55.51-1.17.88-1.85,1.13s-1.41.37-2.18.37c-.93,0-1.74-.17-2.41-.51-.68-.34-1.2-.81-1.57-1.4s-.55-1.28-.55-2.05c0-.57.12-1.07.36-1.51.24-.43.56-.84.98-1.21.41-.38.89-.75,1.44-1.13h-.02Z" class="st2"/>
    <path d="M358.01,223.41h2.41c-.08.92-.33,1.73-.77,2.45-.44.71-1.05,1.28-1.84,1.69s-1.75.62-2.87.62c-.87,0-1.64-.16-2.34-.47s-1.28-.75-1.78-1.33c-.49-.57-.87-1.27-1.13-2.08s-.39-1.73-.39-2.73v-1.16c0-1.01.13-1.92.4-2.73.27-.82.65-1.51,1.15-2.09s1.1-1.02,1.8-1.33c.7-.31,1.49-.46,2.37-.46,1.12,0,2.06.21,2.83.62s1.37.98,1.79,1.7.69,1.55.78,2.49h-2.4c-.07-.6-.2-1.12-.42-1.55s-.53-.76-.95-.99c-.42-.23-.96-.34-1.64-.34-.55,0-1.03.1-1.44.31-.41.2-.75.51-1.03.9s-.48.89-.62,1.47c-.14.58-.21,1.24-.21,1.99v1.18c0,.71.06,1.34.19,1.92s.32,1.07.58,1.48c.26.41.59.73,1,.95.4.22.89.34,1.45.34.69,0,1.24-.11,1.67-.33s.75-.54.97-.96.37-.93.44-1.54v-.02Z" class="st2"/>
    <path d="M364.69,219.54v8.42h-2.32v-10.41h2.21l.1,1.98h.01ZM367.87,217.49l-.02,2.15c-.14-.02-.29-.04-.46-.06-.16-.01-.33-.02-.49-.02-.4,0-.75.05-1.05.17-.3.11-.55.27-.75.48-.2.21-.36.46-.47.76-.11.29-.17.63-.19.99l-.53.04c0-.65.07-1.26.19-1.82.13-.56.32-1.05.58-1.47.26-.42.59-.75.98-.99s.85-.36,1.37-.36c.14,0,.29.01.46.04.16.03.29.05.37.09h0Z" class="st2"/>
    <path d="M373.73,228.16c-.77,0-1.46-.13-2.08-.38s-1.14-.61-1.58-1.06c-.43-.45-.77-.99-1-1.61s-.35-1.28-.35-1.99v-.39c0-.81.12-1.55.35-2.21.24-.66.57-1.22.99-1.7s.92-.83,1.5-1.08,1.2-.38,1.88-.38c.74,0,1.39.13,1.95.38s1.02.6,1.39,1.05c.37.45.65.99.83,1.61s.27,1.31.27,2.06v.99h-8.04v-1.66h5.75v-.18c-.01-.42-.09-.81-.24-1.17-.15-.37-.38-.66-.69-.89-.31-.22-.72-.34-1.23-.34-.38,0-.73.08-1.02.24s-.55.4-.75.71-.35.68-.46,1.11-.16.92-.16,1.46v.39c0,.46.06.88.19,1.26.13.39.31.73.55,1.01.24.29.54.52.89.68s.74.24,1.18.24c.56,0,1.06-.11,1.49-.34.44-.22.81-.54,1.14-.95l1.22,1.18c-.23.33-.52.64-.88.94-.36.3-.8.54-1.31.72-.52.19-1.11.28-1.79.28v.02Z" class="st2"/>
    <path d="M385.9,221.64l.02,1.43h-1.66c-.43,0-.81.04-1.14.12-.33.08-.6.2-.82.35s-.38.34-.49.56-.16.47-.16.74.06.53.19.75c.13.23.32.41.56.53s.55.19.9.19c.47,0,.89-.1,1.25-.29s.64-.44.84-.72c.21-.29.31-.56.33-.81l.75,1.03c-.08.26-.21.54-.39.85-.19.3-.43.59-.73.86s-.65.5-1.07.67c-.41.17-.89.26-1.43.26-.68,0-1.28-.14-1.82-.41-.53-.27-.95-.64-1.25-1.11-.3-.46-.45-.99-.45-1.58,0-.55.1-1.04.31-1.47s.52-.78.92-1.07c.41-.29.91-.51,1.5-.66s1.26-.23,2.02-.23h1.82ZM385.56,225.88v-4.96c0-.37-.07-.69-.2-.96s-.34-.48-.61-.63-.62-.22-1.02-.22-.71.07-.98.19c-.27.13-.49.3-.64.52-.15.22-.23.46-.23.74h-2.31c0-.41.1-.81.3-1.19.2-.39.49-.73.87-1.03s.83-.54,1.36-.71,1.12-.26,1.77-.26c.78,0,1.48.13,2.08.39.61.26,1.08.66,1.43,1.19s.52,1.19.52,1.99v4.63c0,.47.03.9.1,1.27.07.38.16.7.29.98v.15h-2.38c-.11-.25-.19-.57-.26-.96-.06-.39-.09-.76-.09-1.13h0Z" class="st2"/>
    <path d="M395.08,217.56v1.69h-5.87v-1.69h5.87ZM390.91,215.01h2.32v10.08c0,.32.05.57.14.73s.22.28.39.34.36.09.59.09c.16,0,.31-.01.46-.03s.27-.04.36-.06v1.77c-.18.06-.41.11-.66.15s-.54.07-.87.07c-.53,0-1-.09-1.42-.28-.41-.19-.73-.5-.96-.93s-.35-1-.35-1.71v-10.22Z" class="st2"/>
    <path d="M396.87,214.83c0-.35.12-.65.35-.88s.56-.35.98-.35.73.12.97.35.35.53.35.88-.12.64-.35.87c-.24.23-.56.35-.97.35s-.74-.12-.98-.35c-.23-.23-.35-.52-.35-.87ZM399.35,217.56v10.41h-2.33v-10.41h2.33Z" class="st2"/>
    <path d="M403.32,217.56l2.6,8.61.13,1.8h-1.5l-3.64-10.41h2.41ZM405.27,226.13l2.55-8.57h2.41l-3.62,10.41h-1.5l.16-1.84Z" class="st2"/>
    <path d="M416.12,228.16c-.77,0-1.46-.13-2.08-.38s-1.14-.61-1.58-1.06c-.43-.45-.77-.99-1-1.61s-.35-1.28-.35-1.99v-.39c0-.81.12-1.55.35-2.21.24-.66.57-1.22.99-1.7s.92-.83,1.5-1.08,1.2-.38,1.88-.38c.74,0,1.39.13,1.95.38s1.02.6,1.39,1.05c.37.45.65.99.83,1.61s.27,1.31.27,2.06v.99h-8.04v-1.66h5.75v-.18c-.01-.42-.09-.81-.24-1.17-.15-.37-.38-.66-.69-.89-.31-.22-.72-.34-1.23-.34-.38,0-.73.08-1.02.24s-.55.4-.75.71-.35.68-.46,1.11-.16.92-.16,1.46v.39c0,.46.06.88.19,1.26.13.39.31.73.55,1.01.24.29.54.52.89.68s.74.24,1.18.24c.56,0,1.06-.11,1.49-.34.44-.22.81-.54,1.14-.95l1.22,1.18c-.23.33-.52.64-.88.94-.36.3-.8.54-1.31.72-.52.19-1.11.28-1.79.28v.02Z" class="st2"/>
    <path d="M434.57,224.36c0-.29-.04-.54-.13-.77-.09-.22-.24-.43-.46-.62s-.52-.37-.92-.54-.9-.36-1.5-.54c-.67-.2-1.28-.43-1.84-.69-.56-.25-1.05-.55-1.47-.88-.42-.34-.74-.72-.97-1.16s-.35-.95-.35-1.52.12-1.09.36-1.56.58-.87,1.03-1.22.97-.61,1.58-.8,1.28-.28,2.02-.28c1.04,0,1.93.19,2.69.58.75.38,1.33.9,1.74,1.55s.61,1.36.61,2.14h-2.39c0-.46-.1-.87-.29-1.23-.2-.35-.49-.64-.88-.84s-.89-.31-1.5-.31c-.57,0-1.05.09-1.42.26s-.66.41-.85.7-.28.63-.28,1c0,.26.06.5.18.72s.31.41.56.6.56.35.94.51.82.32,1.34.46c.78.23,1.45.48,2.03.76s1.06.59,1.44.95c.38.35.67.75.87,1.2.19.45.29.95.29,1.51s-.12,1.12-.36,1.59-.58.87-1.01,1.2c-.44.33-.96.58-1.58.76-.61.18-1.29.26-2.04.26-.67,0-1.34-.09-1.99-.27s-1.24-.45-1.77-.82-.96-.83-1.27-1.38-.47-1.2-.47-1.95h2.41c0,.46.08.84.23,1.16.16.32.38.58.66.78s.61.35.99.45.78.14,1.21.14c.56,0,1.04-.08,1.42-.24s.67-.39.86-.67c.19-.29.29-.62.29-1h0Z" class="st2"/>
    <path d="M438.46,222.88v-.22c0-.75.11-1.45.33-2.09.22-.65.53-1.21.95-1.68.41-.48.92-.85,1.52-1.12.6-.27,1.28-.4,2.03-.4s1.44.13,2.04.4,1.11.64,1.52,1.12.73,1.04.95,1.68c.22.64.33,1.34.33,2.09v.22c0,.75-.11,1.44-.33,2.09-.22.64-.54,1.2-.95,1.68s-.92.85-1.52,1.12c-.6.27-1.27.4-2.03.4s-1.44-.13-2.04-.4-1.11-.64-1.52-1.12c-.42-.48-.73-1.04-.95-1.68-.22-.64-.33-1.34-.33-2.09ZM440.78,222.66v.22c0,.47.05.91.14,1.33s.25.78.45,1.1.47.56.79.74.7.27,1.14.27.8-.09,1.12-.27.58-.42.78-.74c.21-.31.36-.68.46-1.1s.15-.86.15-1.33v-.22c0-.46-.05-.9-.15-1.31s-.25-.78-.46-1.1-.47-.57-.79-.76c-.32-.18-.69-.27-1.13-.27s-.81.09-1.13.27-.58.43-.78.76c-.21.32-.36.69-.45,1.1-.1.41-.14.85-.14,1.31Z" class="st2"/>
    <path d="M452.55,213.2v14.77h-2.33v-14.77h2.33Z" class="st2"/>
    <path d="M461.68,223.35l.78-.02c0,.7-.08,1.34-.23,1.93-.15.59-.39,1.1-.71,1.53-.32.43-.73.77-1.23,1.01-.5.24-1.1.36-1.8.36-.51,0-.97-.07-1.39-.22s-.79-.38-1.09-.68c-.3-.31-.54-.71-.71-1.2s-.25-1.08-.25-1.77v-6.72h2.32v6.74c0,.38.04.69.13.95.09.25.21.46.37.61s.33.26.54.33c.21.06.42.1.65.1.66,0,1.18-.13,1.56-.39s.65-.61.82-1.05c.16-.44.24-.94.24-1.49v-.02ZM461.35,225.52v-7.95h2.33v10.41h-2.19l-.14-2.45h0Z" class="st2"/>
    <path d="M470.82,217.56v1.69h-5.87v-1.69h5.87ZM466.64,215.01h2.32v10.08c0,.32.05.57.14.73s.22.28.39.34c.17.06.36.09.59.09.16,0,.31-.01.46-.03s.27-.04.36-.06v1.77c-.18.06-.41.11-.66.15s-.54.07-.87.07c-.53,0-1-.09-1.42-.28-.41-.19-.73-.5-.96-.93s-.35-1-.35-1.71v-10.22h0Z" class="st2"/>
    <path d="M472.61,214.83c0-.35.12-.65.35-.88s.56-.35.98-.35.73.12.97.35.35.53.35.88-.12.64-.35.87c-.24.23-.56.35-.97.35s-.74-.12-.98-.35c-.23-.23-.35-.52-.35-.87ZM475.09,217.56v10.41h-2.33v-10.41h2.33Z" class="st2"/>
    <path d="M477.18,222.88v-.22c0-.75.11-1.45.33-2.09.22-.65.53-1.21.95-1.68.41-.48.92-.85,1.52-1.12.6-.27,1.28-.4,2.03-.4s1.44.13,2.04.4,1.11.64,1.52,1.12.73,1.04.95,1.68c.22.64.33,1.34.33,2.09v.22c0,.75-.11,1.44-.33,2.09-.22.64-.54,1.2-.95,1.68s-.92.85-1.52,1.12c-.6.27-1.27.4-2.03.4s-1.44-.13-2.04-.4-1.11-.64-1.52-1.12c-.42-.48-.73-1.04-.95-1.68-.22-.64-.33-1.34-.33-2.09ZM479.5,222.66v.22c0,.47.05.91.14,1.33s.25.78.45,1.1.47.56.79.74.7.27,1.14.27.8-.09,1.12-.27.58-.42.78-.74c.21-.31.36-.68.46-1.1s.15-.86.15-1.33v-.22c0-.46-.05-.9-.15-1.31-.1-.41-.25-.78-.46-1.1s-.47-.57-.79-.76c-.32-.18-.69-.27-1.13-.27s-.81.09-1.13.27-.58.43-.78.76c-.21.32-.36.69-.45,1.1-.1.41-.14.85-.14,1.31Z" class="st2"/>
    <path d="M491.1,219.78v8.18h-2.32v-10.41h2.18l.14,2.22h0ZM490.68,222.38h-.75c0-.75.11-1.42.31-2.04s.48-1.14.85-1.59c.36-.44.8-.78,1.3-1.02.51-.24,1.07-.36,1.69-.36.5,0,.95.07,1.36.21.41.14.76.36,1.05.67.29.31.52.71.67,1.2.15.49.23,1.09.23,1.8v6.72h-2.33v-6.73c0-.5-.07-.9-.22-1.19-.15-.29-.35-.5-.63-.62s-.61-.19-1.01-.19-.75.08-1.07.25c-.31.17-.58.39-.79.68-.21.29-.38.62-.5,1-.11.38-.17.78-.17,1.21h.01Z" class="st2"/>
    <path d="M505.6,225.15c0-.23-.06-.44-.17-.63s-.33-.36-.66-.52c-.32-.15-.8-.29-1.43-.42-.55-.12-1.06-.27-1.51-.44-.46-.17-.85-.38-1.18-.62s-.58-.53-.76-.87c-.18-.33-.27-.72-.27-1.15s.09-.82.28-1.2.45-.71.8-1,.77-.52,1.26-.68,1.05-.25,1.67-.25c.87,0,1.62.15,2.24.44.63.29,1.1.69,1.44,1.18.33.5.5,1.06.5,1.68h-2.32c0-.28-.07-.53-.21-.77s-.34-.44-.62-.59-.62-.23-1.04-.23-.73.06-.99.19-.45.29-.58.48-.19.42-.19.65c0,.17.03.33.1.47.07.14.18.26.34.38.16.11.38.22.66.31.28.1.63.19,1.05.28.79.17,1.48.38,2.05.64s1.01.59,1.32,1,.46.92.46,1.54c0,.46-.1.88-.29,1.26-.2.38-.48.71-.85.99s-.82.5-1.33.65c-.52.15-1.09.23-1.74.23-.94,0-1.74-.17-2.39-.5-.65-.34-1.15-.77-1.49-1.3-.34-.53-.5-1.08-.5-1.65h2.24c.03.43.15.77.36,1.02.22.25.48.44.81.55.32.11.66.17,1,.17.42,0,.77-.06,1.05-.17.28-.11.5-.27.64-.46.15-.2.22-.42.22-.67h.03Z" class="st2"/>
    <path d="M520.07,217.56v1.69h-6.06v-1.69h6.06ZM517.93,227.97h-2.32v-11.4c0-.78.15-1.43.44-1.96s.71-.93,1.25-1.2,1.19-.41,1.93-.41c.23,0,.46.02.68.04.22.03.44.07.65.13l-.06,1.79c-.13-.03-.27-.05-.42-.07-.15-.01-.31-.02-.49-.02-.35,0-.65.07-.91.2-.25.13-.45.32-.58.57s-.2.56-.2.92v11.4h.03Z" class="st2"/>
    <path d="M521.3,222.88v-.22c0-.75.11-1.45.33-2.09.22-.65.53-1.21.95-1.68.41-.48.92-.85,1.52-1.12.6-.27,1.28-.4,2.03-.4s1.44.13,2.04.4,1.11.64,1.52,1.12.73,1.04.95,1.68c.22.64.33,1.34.33,2.09v.22c0,.75-.11,1.44-.33,2.09-.22.64-.54,1.2-.95,1.68s-.92.85-1.52,1.12c-.6.27-1.27.4-2.03.4s-1.44-.13-2.04-.4-1.11-.64-1.52-1.12c-.42-.48-.73-1.04-.95-1.68-.22-.64-.33-1.34-.33-2.09ZM523.62,222.66v.22c0,.47.05.91.14,1.33s.25.78.45,1.1.47.56.79.74.7.27,1.14.27.8-.09,1.12-.27.58-.42.78-.74c.21-.31.36-.68.46-1.1s.15-.86.15-1.33v-.22c0-.46-.05-.9-.15-1.31-.1-.41-.25-.78-.46-1.1s-.47-.57-.79-.76c-.32-.18-.69-.27-1.13-.27s-.81.09-1.13.27-.58.43-.78.76c-.21.32-.36.69-.45,1.1-.1.41-.14.85-.14,1.31Z" class="st2"/>
    <path d="M535.25,219.54v8.42h-2.32v-10.41h2.21l.1,1.98h.01ZM538.43,217.49l-.02,2.15c-.14-.02-.29-.04-.46-.06-.16-.01-.33-.02-.49-.02-.4,0-.75.05-1.05.17-.3.11-.55.27-.75.48-.2.21-.36.46-.47.76-.11.29-.17.63-.19.99l-.53.04c0-.65.07-1.26.19-1.82.13-.56.32-1.05.58-1.47s.59-.75.98-.99c.39-.24.85-.36,1.37-.36.14,0,.29.01.46.04.16.03.29.05.37.09h.01Z" class="st2"/>
    <path d="M553.28,223.41h2.41c-.08.92-.33,1.73-.77,2.45-.44.71-1.05,1.28-1.84,1.69-.79.41-1.75.62-2.87.62-.87,0-1.64-.16-2.34-.47s-1.28-.75-1.78-1.33c-.49-.57-.87-1.27-1.13-2.08s-.39-1.73-.39-2.73v-1.16c0-1.01.13-1.92.4-2.73.27-.82.65-1.51,1.15-2.09s1.1-1.02,1.8-1.33,1.49-.46,2.37-.46c1.12,0,2.06.21,2.83.62s1.37.98,1.79,1.7.69,1.55.78,2.49h-2.4c-.07-.6-.2-1.12-.42-1.55s-.53-.76-.95-.99c-.42-.23-.96-.34-1.64-.34-.55,0-1.03.1-1.44.31-.41.2-.75.51-1.03.9s-.48.89-.62,1.47-.21,1.24-.21,1.99v1.18c0,.71.06,1.34.19,1.92s.32,1.07.58,1.48.59.73,1,.95c.4.22.89.34,1.45.34.69,0,1.24-.11,1.67-.33s.75-.54.97-.96.37-.93.44-1.54v-.02Z" class="st2"/>
    <path d="M557.19,222.88v-.22c0-.75.11-1.45.33-2.09.22-.65.53-1.21.95-1.68.41-.48.92-.85,1.52-1.12.6-.27,1.28-.4,2.03-.4s1.44.13,2.04.4,1.11.64,1.52,1.12.73,1.04.95,1.68c.22.64.33,1.34.33,2.09v.22c0,.75-.11,1.44-.33,2.09-.22.64-.54,1.2-.95,1.68s-.92.85-1.52,1.12c-.6.27-1.27.4-2.03.4s-1.44-.13-2.04-.4-1.11-.64-1.52-1.12c-.42-.48-.73-1.04-.95-1.68-.22-.64-.33-1.34-.33-2.09ZM559.51,222.66v.22c0,.47.05.91.14,1.33s.25.78.45,1.1.47.56.79.74.7.27,1.14.27.8-.09,1.12-.27.58-.42.78-.74c.21-.31.36-.68.46-1.1s.15-.86.15-1.33v-.22c0-.46-.05-.9-.15-1.31-.1-.41-.25-.78-.46-1.1s-.47-.57-.79-.76c-.32-.18-.69-.27-1.13-.27s-.81.09-1.13.27-.58.43-.78.76c-.21.32-.36.69-.45,1.1-.1.41-.14.85-.14,1.31Z" class="st2"/>
    <path d="M571.13,219.68v8.29h-2.32v-10.41h2.18l.14,2.12ZM570.75,222.38h-.79c0-.73.09-1.39.27-2s.44-1.14.79-1.59.78-.8,1.29-1.05,1.11-.37,1.79-.37c.47,0,.91.07,1.3.21.39.14.74.35,1.03.65s.52.67.67,1.13c.16.46.24,1.02.24,1.67v6.93h-2.32v-6.73c0-.51-.08-.9-.23-1.19-.15-.29-.36-.5-.64-.62s-.61-.19-1-.19c-.44,0-.81.08-1.11.25s-.55.39-.75.68c-.19.29-.33.62-.42,1-.09.38-.14.78-.14,1.21h.02ZM577.2,221.76l-1.09.24c0-.63.09-1.22.27-1.79.17-.56.44-1.05.78-1.48s.77-.76,1.27-1.01c.51-.24,1.09-.36,1.74-.36.53,0,1.01.07,1.43.22s.78.37,1.07.68c.3.31.52.71.67,1.2.15.49.23,1.08.23,1.77v6.73h-2.33v-6.74c0-.53-.08-.93-.23-1.22-.15-.29-.36-.49-.64-.6-.27-.11-.6-.17-.99-.17-.36,0-.67.07-.95.2-.27.13-.5.32-.69.55-.19.23-.33.5-.42.8s-.14.63-.14.98h.02Z" class="st2"/>
    <path d="M588.28,219.68v8.29h-2.32v-10.41h2.18l.14,2.12ZM587.91,222.38h-.79c0-.73.09-1.39.27-2s.44-1.14.79-1.59.78-.8,1.29-1.05,1.11-.37,1.79-.37c.47,0,.91.07,1.3.21.39.14.74.35,1.03.65s.52.67.67,1.13c.16.46.24,1.02.24,1.67v6.93h-2.32v-6.73c0-.51-.08-.9-.23-1.19-.15-.29-.36-.5-.64-.62s-.61-.19-1-.19c-.44,0-.81.08-1.11.25s-.55.39-.75.68c-.19.29-.33.62-.42,1-.09.38-.14.78-.14,1.21h.02ZM594.36,221.76l-1.09.24c0-.63.09-1.22.27-1.79.17-.56.44-1.05.78-1.48s.77-.76,1.27-1.01c.51-.24,1.09-.36,1.74-.36.53,0,1.01.07,1.43.22s.78.37,1.07.68c.3.31.52.71.67,1.2.15.49.23,1.08.23,1.77v6.73h-2.33v-6.74c0-.53-.08-.93-.23-1.22-.15-.29-.36-.49-.64-.6-.27-.11-.6-.17-.99-.17-.36,0-.67.07-.95.2-.27.13-.5.32-.69.55-.19.23-.33.5-.42.8s-.14.63-.14.98h.02Z" class="st2"/>
    <path d="M609.71,223.35l.78-.02c0,.7-.08,1.34-.23,1.93-.15.59-.39,1.1-.71,1.53s-.73.77-1.23,1.01c-.5.24-1.1.36-1.8.36-.51,0-.97-.07-1.39-.22s-.79-.38-1.09-.68c-.3-.31-.54-.71-.71-1.2s-.25-1.08-.25-1.77v-6.72h2.32v6.74c0,.38.04.69.13.95.09.25.21.46.37.61s.33.26.54.33c.21.06.42.1.65.1.66,0,1.18-.13,1.56-.39s.65-.61.82-1.05c.16-.44.24-.94.24-1.49v-.02ZM609.38,225.52v-7.95h2.33v10.41h-2.19l-.14-2.45h0Z" class="st2"/>
    <path d="M616.37,219.78v8.18h-2.32v-10.41h2.18l.14,2.22h0ZM615.96,222.38h-.75c0-.75.11-1.42.31-2.04s.48-1.14.85-1.59c.36-.44.8-.78,1.3-1.02.51-.24,1.07-.36,1.69-.36.5,0,.95.07,1.36.21.41.14.76.36,1.05.67.29.31.52.71.67,1.2.15.49.23,1.09.23,1.8v6.72h-2.33v-6.73c0-.5-.07-.9-.22-1.19-.15-.29-.35-.5-.63-.62s-.61-.19-1.01-.19-.75.08-1.07.25c-.31.17-.58.39-.79.68-.21.29-.38.62-.5,1-.11.38-.17.78-.17,1.21h.01Z" class="st2"/>
    <path d="M625.03,214.83c0-.35.12-.65.35-.88s.56-.35.98-.35.73.12.97.35.35.53.35.88-.12.64-.35.87c-.24.23-.56.35-.97.35s-.74-.12-.98-.35c-.23-.23-.35-.52-.35-.87ZM627.52,217.56v10.41h-2.33v-10.41h2.33Z" class="st2"/>
    <path d="M634.3,226.31c.38,0,.72-.08,1.02-.23s.55-.36.74-.63c.19-.27.29-.58.31-.93h2.18c-.01.67-.21,1.29-.6,1.84-.39.55-.89.99-1.53,1.31-.63.32-1.34.48-2.11.48s-1.49-.14-2.08-.41-1.08-.65-1.47-1.13c-.39-.48-.69-1.03-.88-1.66s-.29-1.3-.29-2.02v-.34c0-.72.1-1.39.29-2.02.2-.63.49-1.19.88-1.67s.88-.86,1.47-1.13c.59-.27,1.28-.41,2.07-.41.83,0,1.56.17,2.19.5s1.12.79,1.49,1.38c.36.59.55,1.27.56,2.04h-2.18c-.02-.39-.11-.73-.28-1.04-.17-.31-.41-.56-.71-.75-.3-.19-.67-.28-1.09-.28-.47,0-.86.09-1.16.28-.31.19-.55.45-.72.77s-.3.69-.37,1.09-.11.82-.11,1.25v.34c0,.43.03.85.1,1.25.07.4.2.76.37,1.08.17.32.42.57.72.76.31.19.7.28,1.17.28h.02Z" class="st2"/>
    <path d="M646.54,221.64l.02,1.43h-1.66c-.43,0-.81.04-1.14.12s-.6.2-.82.35-.38.34-.49.56-.16.47-.16.74.06.53.19.75c.13.23.32.41.56.53s.55.19.9.19c.47,0,.89-.1,1.25-.29s.64-.44.84-.72c.21-.29.31-.56.33-.81l.75,1.03c-.08.26-.21.54-.39.85-.19.3-.43.59-.73.86s-.65.5-1.07.67c-.41.17-.89.26-1.43.26-.68,0-1.28-.14-1.82-.41-.53-.27-.95-.64-1.25-1.11-.3-.46-.45-.99-.45-1.58,0-.55.1-1.04.31-1.47s.52-.78.92-1.07c.41-.29.91-.51,1.5-.66s1.26-.23,2.02-.23h1.82,0ZM646.2,225.88v-4.96c0-.37-.07-.69-.2-.96s-.34-.48-.61-.63-.62-.22-1.02-.22-.71.07-.98.19c-.27.13-.49.3-.64.52s-.23.46-.23.74h-2.31c0-.41.1-.81.3-1.19.2-.39.49-.73.87-1.03s.83-.54,1.36-.71,1.12-.26,1.77-.26c.78,0,1.48.13,2.08.39.61.26,1.08.66,1.43,1.19s.52,1.19.52,1.99v4.63c0,.47.03.9.1,1.27.07.38.16.7.29.98v.15h-2.38c-.11-.25-.19-.57-.26-.96-.06-.39-.09-.76-.09-1.13h0Z" class="st2"/>
    <path d="M655.72,217.56v1.69h-5.87v-1.69h5.87ZM651.55,215.01h2.32v10.08c0,.32.05.57.14.73s.22.28.39.34c.17.06.36.09.59.09.16,0,.31-.01.46-.03s.27-.04.36-.06v1.77c-.18.06-.41.11-.66.15s-.54.07-.87.07c-.53,0-1-.09-1.42-.28-.41-.19-.73-.5-.96-.93s-.35-1-.35-1.71v-10.22h0Z" class="st2"/>
    <path d="M657.51,214.83c0-.35.12-.65.35-.88s.56-.35.98-.35.73.12.97.35.35.53.35.88-.12.64-.35.87c-.24.23-.56.35-.97.35s-.74-.12-.98-.35c-.23-.23-.35-.52-.35-.87ZM659.99,217.56v10.41h-2.33v-10.41h2.33Z" class="st2"/>
    <path d="M662.09,222.88v-.22c0-.75.11-1.45.33-2.09.22-.65.53-1.21.95-1.68.41-.48.92-.85,1.52-1.12.6-.27,1.28-.4,2.03-.4s1.44.13,2.04.4,1.11.64,1.52,1.12.73,1.04.95,1.68c.22.64.33,1.34.33,2.09v.22c0,.75-.11,1.44-.33,2.09-.22.64-.54,1.2-.95,1.68s-.92.85-1.52,1.12c-.6.27-1.27.4-2.03.4s-1.44-.13-2.04-.4-1.11-.64-1.52-1.12c-.42-.48-.73-1.04-.95-1.68-.22-.64-.33-1.34-.33-2.09ZM664.4,222.66v.22c0,.47.05.91.14,1.33s.25.78.45,1.1.47.56.79.74.7.27,1.14.27.8-.09,1.12-.27.58-.42.78-.74c.21-.31.36-.68.46-1.1s.15-.86.15-1.33v-.22c0-.46-.05-.9-.15-1.31-.1-.41-.25-.78-.46-1.1s-.47-.57-.79-.76c-.32-.18-.69-.27-1.13-.27s-.81.09-1.13.27-.58.43-.78.76c-.21.32-.36.69-.45,1.1-.1.41-.14.85-.14,1.31Z" class="st2"/>
    <path d="M676,219.78v8.18h-2.32v-10.41h2.18l.14,2.22h0ZM675.59,222.38h-.75c0-.75.11-1.42.31-2.04s.48-1.14.85-1.59c.36-.44.8-.78,1.3-1.02.51-.24,1.07-.36,1.69-.36.5,0,.95.07,1.36.21.41.14.76.36,1.05.67.29.31.52.71.67,1.2.15.49.23,1.09.23,1.8v6.72h-2.33v-6.73c0-.5-.07-.9-.22-1.19-.15-.29-.35-.5-.63-.62s-.61-.19-1.01-.19-.75.08-1.07.25c-.31.17-.58.39-.79.68-.21.29-.38.62-.5,1-.11.38-.17.78-.17,1.21h.01Z" class="st2"/>
    <path d="M691.96,220.35l2.41-1.62c.4-.27.69-.53.87-.79.17-.26.26-.59.26-.98,0-.33-.13-.64-.38-.92s-.62-.42-1.09-.42c-.33,0-.6.08-.83.23s-.39.35-.51.6c-.11.25-.17.52-.17.82s.07.58.22.89.35.62.61.95c.26.33.54.68.87,1.06l6.62,7.81h-2.68l-5.4-6.36c-.47-.57-.88-1.08-1.24-1.55s-.64-.93-.84-1.38-.3-.9-.3-1.38c0-.73.15-1.36.45-1.88s.73-.93,1.28-1.22c.55-.29,1.2-.43,1.93-.43s1.33.14,1.84.43c.52.28.91.66,1.19,1.13s.42.98.42,1.54c0,.44-.08.85-.24,1.21s-.38.7-.66,1c-.28.3-.61.59-.98.86l-2.93,2.13c-.34.28-.59.54-.75.79s-.27.49-.32.7c-.05.21-.08.4-.08.56,0,.41.09.78.26,1.12.18.33.44.6.78.79.34.2.76.29,1.25.29.53,0,1.05-.12,1.55-.36s.95-.58,1.35-1.02.71-.97.95-1.59c.23-.62.35-1.3.35-2.05h2c0,.68-.07,1.32-.2,1.93s-.34,1.17-.63,1.69c-.28.52-.66.99-1.12,1.39-.04.04-.09.1-.15.17-.05.07-.11.12-.16.17-.55.51-1.17.88-1.85,1.13s-1.41.37-2.18.37c-.93,0-1.74-.17-2.41-.51-.68-.34-1.2-.81-1.57-1.4s-.55-1.28-.55-2.05c0-.57.12-1.07.36-1.51.24-.43.56-.84.98-1.21.41-.38.89-.75,1.44-1.13h-.02Z" class="st2"/>
    <path d="M717.01,213.97v1.92h-11.14v-1.92h11.14ZM712.62,213.97v14h-2.39v-14h2.39Z" class="st2"/>
    <path d="M722.3,228.16c-.77,0-1.46-.13-2.08-.38s-1.14-.61-1.58-1.06c-.43-.45-.77-.99-1-1.61s-.35-1.28-.35-1.99v-.39c0-.81.12-1.55.35-2.21.24-.66.57-1.22.99-1.7s.92-.83,1.5-1.08,1.2-.38,1.88-.38c.74,0,1.39.13,1.95.38s1.02.6,1.39,1.05c.37.45.65.99.83,1.61s.27,1.31.27,2.06v.99h-8.04v-1.66h5.75v-.18c-.01-.42-.09-.81-.24-1.17-.15-.37-.38-.66-.69-.89-.31-.22-.72-.34-1.23-.34-.38,0-.73.08-1.02.24s-.55.4-.75.71-.35.68-.46,1.11c-.11.43-.16.92-.16,1.46v.39c0,.46.06.88.19,1.26.13.39.31.73.55,1.01.24.29.54.52.89.68s.74.24,1.18.24c.56,0,1.06-.11,1.49-.34.44-.22.81-.54,1.14-.95l1.22,1.18c-.23.33-.52.64-.88.94s-.8.54-1.31.72c-.52.19-1.11.28-1.79.28v.02Z" class="st2"/>
    <path d="M732.52,226.31c.38,0,.72-.08,1.02-.23s.55-.36.74-.63c.19-.27.29-.58.31-.93h2.18c-.01.67-.21,1.29-.6,1.84-.39.55-.89.99-1.53,1.31-.63.32-1.34.48-2.11.48s-1.49-.14-2.08-.41-1.08-.65-1.47-1.13c-.39-.48-.69-1.03-.88-1.66s-.29-1.3-.29-2.02v-.34c0-.72.1-1.39.29-2.02.2-.63.49-1.19.88-1.67s.88-.86,1.47-1.13c.59-.27,1.28-.41,2.07-.41.83,0,1.56.17,2.19.5s1.12.79,1.49,1.38c.36.59.55,1.27.56,2.04h-2.18c-.02-.39-.11-.73-.28-1.04-.17-.31-.41-.56-.71-.75-.3-.19-.67-.28-1.09-.28-.47,0-.86.09-1.16.28-.31.19-.55.45-.72.77s-.3.69-.37,1.09-.11.82-.11,1.25v.34c0,.43.03.85.1,1.25.07.4.2.76.37,1.08.17.32.42.57.72.76.31.19.7.28,1.17.28h.02Z" class="st2"/>
    <path d="M740.83,213.2v14.77h-2.31v-14.77h2.31ZM740.43,222.38h-.75c0-.73.11-1.39.3-2,.2-.61.47-1.14.83-1.59s.78-.8,1.28-1.05,1.06-.37,1.66-.37c.51,0,.98.07,1.39.21.41.14.77.37,1.07.68s.53.72.69,1.21c.16.5.23,1.1.23,1.81v6.68h-2.33v-6.7c0-.5-.07-.9-.22-1.19-.15-.29-.35-.51-.63-.64s-.61-.2-1.01-.2c-.42,0-.78.08-1.1.25s-.58.39-.79.68c-.21.29-.37.62-.48,1s-.16.78-.16,1.21h.02Z" class="st2"/>
    <path d="M751.79,219.78v8.18h-2.32v-10.41h2.18l.14,2.22h0ZM751.37,222.38h-.75c0-.75.11-1.42.31-2.04s.48-1.14.85-1.59c.36-.44.8-.78,1.3-1.02.51-.24,1.07-.36,1.69-.36.5,0,.95.07,1.36.21.41.14.76.36,1.05.67.29.31.52.71.67,1.2.15.49.23,1.09.23,1.8v6.72h-2.33v-6.73c0-.5-.07-.9-.22-1.19-.15-.29-.35-.5-.63-.62s-.61-.19-1.01-.19-.75.08-1.07.25c-.31.17-.58.39-.79.68-.21.29-.38.62-.5,1-.11.38-.17.78-.17,1.21h.01Z" class="st2"/>
    <path d="M760.01,222.88v-.22c0-.75.11-1.45.33-2.09.22-.65.53-1.21.95-1.68.41-.48.92-.85,1.52-1.12.6-.27,1.28-.4,2.03-.4s1.44.13,2.04.4,1.11.64,1.52,1.12.73,1.04.95,1.68c.22.64.33,1.34.33,2.09v.22c0,.75-.11,1.44-.33,2.09-.22.64-.54,1.2-.95,1.68s-.92.85-1.52,1.12c-.6.27-1.27.4-2.03.4s-1.44-.13-2.04-.4-1.11-.64-1.52-1.12c-.42-.48-.73-1.04-.95-1.68-.22-.64-.33-1.34-.33-2.09ZM762.33,222.66v.22c0,.47.05.91.14,1.33s.25.78.45,1.1.47.56.79.74.7.27,1.14.27.8-.09,1.12-.27.58-.42.78-.74c.21-.31.36-.68.46-1.1s.15-.86.15-1.33v-.22c0-.46-.05-.9-.15-1.31-.1-.41-.25-.78-.46-1.1s-.47-.57-.79-.76c-.32-.18-.69-.27-1.13-.27s-.81.09-1.13.27-.58.43-.78.76c-.21.32-.36.69-.45,1.1-.1.41-.14.85-.14,1.31Z" class="st2"/>
    <path d="M774.11,213.2v14.77h-2.33v-14.77h2.33Z" class="st2"/>
    <path d="M776.2,222.88v-.22c0-.75.11-1.45.33-2.09.22-.65.53-1.21.95-1.68.41-.48.92-.85,1.52-1.12.6-.27,1.28-.4,2.03-.4s1.44.13,2.04.4,1.11.64,1.52,1.12.73,1.04.95,1.68c.22.64.33,1.34.33,2.09v.22c0,.75-.11,1.44-.33,2.09-.22.64-.54,1.2-.95,1.68s-.92.85-1.52,1.12c-.6.27-1.27.4-2.03.4s-1.44-.13-2.04-.4-1.11-.64-1.52-1.12c-.42-.48-.73-1.04-.95-1.68-.22-.64-.33-1.34-.33-2.09ZM778.52,222.66v.22c0,.47.05.91.14,1.33s.25.78.45,1.1.47.56.79.74.7.27,1.14.27.8-.09,1.12-.27.58-.42.78-.74c.21-.31.36-.68.46-1.1s.15-.86.15-1.33v-.22c0-.46-.05-.9-.15-1.31-.1-.41-.25-.78-.46-1.1s-.47-.57-.79-.76c-.32-.18-.69-.27-1.13-.27s-.81.09-1.13.27-.58.43-.78.76c-.21.32-.36.69-.45,1.1-.1.41-.14.85-.14,1.31Z" class="st2"/>
    <path d="M787.42,222.88v-.2c0-.79.1-1.51.29-2.16s.47-1.21.83-1.68c.36-.47.79-.83,1.31-1.09.51-.25,1.09-.38,1.74-.38s1.25.12,1.73.36.88.59,1.2,1.04.57.99.76,1.62c.18.62.32,1.32.41,2.08v.64c-.08.74-.23,1.42-.42,2.04-.2.62-.46,1.15-.79,1.6s-.73.79-1.21,1.04c-.48.24-1.04.36-1.69.36s-1.21-.13-1.72-.39c-.51-.26-.95-.63-1.31-1.1s-.64-1.03-.83-1.68c-.19-.64-.29-1.34-.29-2.1h-.01ZM794.48,217.56h2.11v10.12c0,.94-.2,1.73-.6,2.38-.4.65-.95,1.15-1.66,1.5-.71.34-1.53.51-2.47.51-.4,0-.84-.06-1.32-.17-.48-.12-.95-.3-1.4-.55s-.83-.58-1.13-1l1.09-1.37c.37.44.78.77,1.23.97.45.21.92.31,1.41.31.53,0,.99-.1,1.36-.29s.66-.48.87-.86.31-.84.31-1.38v-7.81l.21-2.36h-.01ZM789.73,222.68v.2c0,.47.05.92.14,1.33.09.41.24.77.43,1.08.2.31.45.55.75.73s.66.27,1.08.27c.54,0,.99-.12,1.34-.35.35-.23.62-.54.81-.94s.32-.83.4-1.32v-1.74c-.04-.38-.12-.73-.24-1.06s-.28-.61-.47-.86-.45-.44-.75-.58c-.3-.14-.66-.21-1.07-.21s-.78.09-1.09.27-.56.43-.75.74c-.2.31-.34.68-.44,1.09-.1.42-.14.86-.14,1.34h0Z" class="st2"/>
    <path d="M800.41,217.56l2.47,7.79.41,2.44-1.61.41-3.78-10.65h2.51ZM802.01,226.83l2.83-9.27h2.48l-4.17,11.99c-.1.26-.22.54-.38.84-.15.3-.35.59-.6.86s-.55.49-.92.66-.81.26-1.33.26c-.21,0-.4-.02-.59-.05s-.37-.07-.53-.11v-1.77s.13.01.23.02c.09,0,.17.01.23.01.38,0,.7-.05.96-.14s.47-.24.63-.45c.16-.21.3-.48.42-.83l.75-2.02h0Z" class="st2"/>
  </g>
  <g>
    <path d="M251.38,256.93c.21-.21.31-.58.31-1.12v-6.82c0-.18.09-.27.27-.27h2.49c.18,0,.27.09.27.27v7.55c0,1.17-.24,2.03-.73,2.58-.49.55-1.32.83-2.49.83h-13.5c-1.14,0-1.95-.28-2.43-.83s-.73-1.42-.73-2.6v-5.81c0-.18.09-.27.27-.27h2.49c.18,0,.27.09.27.27v5.11c0,.54.1.92.31,1.12.21.21.54.31.99.31h11.2c.47,0,.81-.1,1.01-.31h0ZM241.98,247.61c-.18,0-.27-.09-.27-.27v-2.35c0-.18.09-.27.27-.27h2.27c.18,0,.27.09.27.27v2.35c0,.18-.09.27-.27.27h-2.27ZM245.5,247.61c-.18,0-.27-.09-.27-.27v-2.35c0-.18.09-.27.27-.27h2.27c.18,0,.27.09.27.27v2.35c0,.18-.09.27-.27.27h-2.27Z" class="st2"/>
    <path d="M257.86,241.82c0-.18.09-.27.27-.27h2.49c.18,0,.27.09.27.27v13.99c0,.54.1.91.31,1.12s.54.31.99.31h.95c.36,0,.63.1.81.32.18.21.27.57.27,1.08,0,.56-.09.92-.26,1.08-.17.15-.45.23-.82.23h-2.14c-1.13,0-1.93-.27-2.41-.83-.48-.55-.72-1.41-.72-2.58v-14.71h0Z" class="st2"/>
    <path d="M271.46,260.13c-.9,0-1.72-.12-2.44-.37-.72-.24-1.33-.65-1.82-1.21-.18.29-.4.53-.65.71-.26.18-.52.32-.79.42-.27.1-.55.17-.84.21s-.56.05-.81.05h-.95c-.36,0-.63-.1-.81-.31s-.27-.56-.27-1.05c0-.53.09-.88.26-1.07.17-.18.45-.27.83-.27h1.06c.2,0,.4-.04.59-.12.2-.08.38-.21.54-.4s.3-.44.41-.75c.11-.32.16-.71.16-1.17-.02-.14-.03-.28-.03-.4v-.4c.02-1.04.17-1.93.45-2.66s.67-1.32,1.16-1.78c.5-.46,1.08-.79,1.75-1s1.4-.31,2.2-.31,1.54.11,2.22.32c.69.22,1.28.56,1.77,1.03.5.47.89,1.09,1.17,1.87.28.77.42,1.71.42,2.81s-.14,1.96-.41,2.7c-.27.74-.65,1.34-1.14,1.81-.49.47-1.07.81-1.76,1.03s-1.44.33-2.28.33v-.02ZM271.45,250.94c-.86,0-1.5.28-1.91.83s-.62,1.37-.62,2.42c0,1.15.21,1.98.62,2.48s1.05.75,1.91.75,1.52-.26,1.94-.77c.41-.51.62-1.33.62-2.47,0-2.17-.85-3.26-2.56-3.26v.02Z" class="st2"/>
    <path d="M282.2,265.4c-.18,0-.27-.09-.27-.27v-2.16c0-.18.09-.27.27-.27h3.16c.41,0,.78-.04,1.08-.12.31-.08.56-.22.76-.42s.35-.48.46-.84.16-.82.16-1.38h-2.73c-.85,0-1.6-.09-2.26-.28s-1.21-.5-1.66-.95-.8-1.01-1.04-1.72c-.24-.7-.37-1.57-.37-2.6,0-1.1.15-2.04.46-2.82s.71-1.43,1.22-1.92c.51-.5,1.09-.86,1.76-1.08s1.37-.34,2.12-.34c.81,0,1.56.11,2.24.32.68.22,1.26.56,1.75,1.02s.87,1.08,1.14,1.83c.27.76.41,1.68.41,2.78v3.05h1.87c.36,0,.63.1.81.3s.27.54.27,1.01c0,.58-.09.96-.26,1.13s-.45.26-.82.26h-1.87v.59c0,1.7-.43,2.93-1.28,3.71-.86.78-2.1,1.16-3.72,1.16h-3.66ZM285.34,250.94c-.81,0-1.45.3-1.91.91-.46.61-.69,1.43-.69,2.45,0,1.13.23,1.9.69,2.32.46.41,1.12.62,1.99.62h2.41v-3.07c0-1.06-.2-1.86-.59-2.41-.4-.55-1.03-.82-1.89-.82h0Z" class="st2"/>
    <path d="M294.02,257.24c.45,0,.78-.1.99-.31s.31-.58.31-1.12v-13.99c0-.18.09-.27.27-.27h2.49c.18,0,.27.09.27.27v13.74c0,.54.2.95.61,1.24s.95.43,1.64.43h.46c.36,0,.63.1.81.3s.27.54.27,1.01c0,.53-.09.89-.26,1.09s-.45.3-.83.3c-.7,0-1.32-.09-1.84-.26s-.94-.55-1.24-1.13c-.25.51-.61.87-1.09,1.08-.47.21-1.11.31-1.92.31h-2.27c-.36,0-.63-.09-.81-.26s-.27-.55-.27-1.13c0-.49.09-.83.26-1.02s.45-.29.83-.29h1.33,0Z" class="st2"/>
    <path d="M308.65,248.23c2.07,0,3.59.39,4.54,1.16s1.43,1.79,1.43,3.05c0,.54-.09,1.05-.26,1.52s-.39.92-.66,1.32-.58.77-.92,1.09-.68.59-1,.81c.14.04.3.05.47.05h3.94c.41,0,.69.11.84.33.14.22.22.58.22,1.09s-.09.85-.26,1.02-.44.26-.8.26h-4.03c-.65,0-1.27-.06-1.85-.18-.59-.12-1.14-.34-1.66-.66-.6.32-1.23.54-1.89.66-.67.12-1.26.18-1.79.18h-3.89c-.34,0-.6-.09-.78-.27s-.27-.52-.27-1.01.06-.83.18-1.07.41-.36.88-.36h3.16c.29,0,.61-.01.97-.04.36-.03.78-.09,1.27-.2-.15-.59-.34-1.11-.58-1.54-.24-.43-.52-.81-.82-1.15-.31-.33-.64-.63-.99-.89-.35-.26-.71-.52-1.07-.77-.2-.14-.31-.27-.34-.39-.03-.12-.04-.25-.04-.39v-1.7c0-.2.17-.41.51-.65.34-.23.79-.44,1.35-.63s1.2-.34,1.92-.47,1.46-.19,2.22-.19v.02ZM309.06,256.4c.29-.18.58-.4.88-.65.3-.25.56-.53.78-.83.23-.3.41-.62.56-.96s.22-.69.22-1.06c0-.74-.27-1.25-.8-1.54s-1.21-.43-2.04-.43c-.72,0-1.35.07-1.88.22-.53.14-.9.27-1.09.38.83.52,1.54,1.2,2.12,2.04s1.01,1.78,1.26,2.83h-.01Z" class="st2"/>
    <path d="M318.93,253.97c.02-1.04.17-1.93.45-2.66s.67-1.32,1.16-1.78c.5-.46,1.08-.79,1.75-1s1.4-.31,2.2-.31,1.54.11,2.22.32,1.28.56,1.77,1.02.89,1.09,1.17,1.86.42,1.71.42,2.8v.47c0,.15,0,.3-.03.45.02.76.19,1.29.53,1.61.33.31.72.47,1.15.47h.78c.36,0,.63.1.81.3.18.2.27.54.27,1.01,0,.53-.09.89-.26,1.09-.17.2-.45.3-.83.3-.31,0-.63,0-.96-.03-.33-.02-.67-.08-1-.18s-.65-.24-.95-.44c-.3-.19-.57-.46-.81-.81-.49.58-1.09,1-1.83,1.26-.73.26-1.56.38-2.48.38s-1.71-.12-2.43-.37c-.72-.24-1.33-.65-1.81-1.21-.18.29-.4.53-.65.71-.26.18-.52.32-.79.42-.27.1-.55.17-.84.21s-.56.05-.81.05h-.95c-.36,0-.63-.1-.81-.31s-.27-.56-.27-1.05c0-.53.09-.88.26-1.07.17-.18.45-.27.83-.27h1.06c.43,0,.82-.17,1.16-.53.34-.35.52-.99.54-1.93-.02-.14-.03-.28-.03-.4v-.4.02ZM324.49,250.94c-.86,0-1.5.28-1.91.83s-.62,1.37-.62,2.42c0,1.15.21,1.98.62,2.48s1.05.75,1.91.75,1.52-.26,1.94-.77c.41-.51.62-1.33.62-2.47,0-2.17-.85-3.26-2.56-3.26v.02Z" class="st2"/>
    <path d="M332.46,259.94c-.36,0-.63-.09-.81-.26s-.27-.52-.27-1.05.09-.87.26-1.08.45-.32.83-.32h1.33c.45,0,.78-.1.99-.31s.31-.58.31-1.12v-13.99c0-.18.09-.27.27-.27h2.49c.18,0,.27.09.27.27v14.71c0,1.17-.24,2.03-.72,2.58s-1.29.83-2.41.83h-2.54Z" class="st2"/>
    <path d="M344.68,259.67c0,.18-.09.27-.27.27h-2.49c-.18,0-.27-.09-.27-.27v-17.85c0-.18.09-.27.27-.27h2.49c.18,0,.27.09.27.27v17.85Z" class="st2"/>
    <path d="M361.94,248.23v-1.16c0-.18.09-.27.27-.27h2.49c.18,0,.27.09.27.27v8.74c0,.54.1.91.31,1.12s.54.31.99.31h1.03c.72,0,1.08.46,1.08,1.37,0,.55-.09.91-.26,1.08s-.45.26-.82.26h-2.19c-.88,0-1.57-.15-2.07-.46s-.82-.86-.99-1.64c-.38.33-.83.58-1.35.75-.52.16-1.07.25-1.65.25-.7,0-1.37-.1-1.99-.3s-1.16-.51-1.62-.92-.83-.94-1.1-1.58c-.27-.64-.4-1.41-.4-2.31,0-1.05.15-1.92.45-2.62.3-.7.69-1.27,1.19-1.69s1.06-.73,1.69-.91,1.29-.27,1.98-.27h2.71l-.02-.02ZM356.77,244.93c-.18,0-.27-.09-.27-.27v-2.35c0-.18.09-.27.27-.27h2.27c.18,0,.27.09.27.27v2.35c0,.18-.09.27-.27.27h-2.27ZM359.39,256.13c.87,0,1.5-.25,1.92-.74.41-.49.62-1.21.62-2.17v-2.29h-2.41c-.78,0-1.4.2-1.87.59-.47.4-.7,1.12-.7,2.18,0,.83.22,1.44.65,1.83.43.39,1.03.59,1.79.59h0ZM360.29,244.93c-.18,0-.27-.09-.27-.27v-2.35c0-.18.09-.27.27-.27h2.27c.18,0,.27.09.27.27v2.35c0,.18-.09.27-.27.27h-2.27Z" class="st2"/>
    <path d="M373.46,258.55c-.25.53-.63.89-1.14,1.09s-1.19.3-2.06.3h-2.51c-.36,0-.63-.09-.81-.26s-.27-.52-.27-1.02.09-.9.26-1.11.45-.32.83-.32h1.76c.33,0,.57-.05.74-.15.17-.1.3-.25.38-.46.08-.21.13-.48.15-.81s.03-.74.03-1.23v-5.61c0-.11.05-.18.15-.21s.2-.05.31-.05h2.31c.18,0,.27.09.27.27v6.58c0,.54.2.95.61,1.24.41.29.95.43,1.64.43h.46c.36,0,.63.1.81.3.18.2.27.54.27,1.01,0,.53-.09.89-.26,1.09-.17.2-.45.3-.83.3-.7,0-1.32-.09-1.84-.26s-.94-.55-1.24-1.13h-.02ZM369.27,265.13c-.18,0-.27-.09-.27-.27v-2.35c0-.18.09-.27.27-.27h2.27c.18,0,.27.09.27.27v2.35c0,.18-.09.27-.27.27h-2.27ZM372.78,265.13c-.18,0-.27-.09-.27-.27v-2.35c0-.18.09-.27.27-.27h2.27c.18,0,.27.09.27.27v2.35c0,.18-.09.27-.27.27h-2.27Z" class="st2"/>
    <path d="M382.36,255.57c0,.54.2.95.61,1.24.41.29.95.43,1.64.43h.46c.36,0,.63.1.81.3s.27.54.27,1.01c0,.53-.09.89-.26,1.09s-.45.3-.83.3c-.7,0-1.32-.09-1.84-.26s-.94-.55-1.24-1.13c-.25.53-.62.89-1.11,1.09s-1.17.3-2.03.3h-2.14c-.36,0-.63-.06-.81-.18s-.27-.38-.27-.78c0-.46.09-.86.26-1.22.17-.35.46-.53.85-.53h1.3c.3,0,.55-.04.73-.13.18-.09.31-.23.39-.43.08-.2.13-.46.15-.78s.03-.72.03-1.19v-5.72c0-.18.09-.27.27-.27h2.49c.18,0,.27.09.27.27v6.58h0ZM379.57,246.01c-.18,0-.27-.09-.27-.27v-2.35c0-.18.09-.27.27-.27h2.6c.18,0,.27.09.27.27v2.35c0,.18-.09.27-.27.27h-2.6Z" class="st2"/>
    <path d="M392.23,248.23c1.84,0,3.24.44,4.22,1.31.97.87,1.46,2.04,1.46,3.49,0,.88-.2,1.69-.61,2.41s-.95,1.32-1.64,1.79h3.84c.36,0,.63.09.81.26s.27.51.27,1.02-.09.9-.26,1.11-.45.31-.82.31h-3.76c-.65,0-1.26-.03-1.84-.08s-1.13-.24-1.65-.57c-.6.33-1.23.51-1.91.57-.68.05-1.28.08-1.8.08h-3.6c-.36,0-.63-.11-.81-.33s-.27-.57-.27-1.07c0-.53.09-.88.26-1.05.17-.17.45-.26.83-.26h3.81c-.67-.47-1.2-1.06-1.61-1.79s-.61-1.53-.61-2.41c0-1.46.49-2.62,1.46-3.49s2.38-1.31,4.22-1.31h.01ZM389.44,246.01c-.18,0-.27-.09-.27-.27v-2.35c0-.18.09-.27.27-.27h2.27c.18,0,.27.09.27.27v2.35c0,.18-.09.27-.27.27h-2.27ZM392.23,250.64c-.7,0-1.31.22-1.83.66s-.77,1.09-.77,1.96c0,.92.25,1.66.76,2.23s1.12,1.01,1.84,1.31c.7-.31,1.31-.75,1.81-1.31.5-.57.76-1.31.76-2.23,0-.87-.25-1.52-.76-1.96s-1.11-.66-1.81-.66h0ZM392.96,246.01c-.18,0-.27-.09-.27-.27v-2.35c0-.18.09-.27.27-.27h2.27c.18,0,.27.09.27.27v2.35c0,.18-.09.27-.27.27h-2.27Z" class="st2"/>
    <path d="M399.5,259.94c-.36,0-.63-.09-.81-.26s-.27-.51-.27-1c0-.53.09-.9.26-1.12s.45-.33.83-.33h1.76c.45,0,.78-.1.99-.31s.31-.58.31-1.12v-6.82c0-.18.09-.27.27-.27h2.49c.18,0,.27.09.27.27v7.55c0,1.17-.24,2.03-.72,2.58s-1.29.83-2.41.83h-2.97ZM401.18,246.01c-.18,0-.27-.09-.27-.27v-2.35c0-.18.09-.27.27-.27h2.27c.18,0,.27.09.27.27v2.35c0,.18-.09.27-.27.27h-2.27ZM404.7,246.01c-.18,0-.27-.09-.27-.27v-2.35c0-.18.09-.27.27-.27h2.27c.18,0,.27.09.27.27v2.35c0,.18-.09.27-.27.27h-2.27Z" class="st2"/>
    <path d="M414.22,259.94c-.85,0-1.6-.09-2.26-.28s-1.21-.5-1.66-.95-.8-1.01-1.04-1.72c-.24-.7-.37-1.57-.37-2.6,0-1.1.15-2.04.45-2.82.3-.78.71-1.43,1.22-1.92.51-.5,1.11-.86,1.77-1.08.67-.22,1.37-.34,2.12-.34.81,0,1.56.11,2.24.32.68.22,1.26.56,1.75,1.03s.87,1.08,1.14,1.84c.27.76.41,1.69.41,2.79v6.33c0,1.7-.43,2.93-1.28,3.71-.86.78-2.1,1.16-3.72,1.16h-3.65c-.18,0-.27-.09-.27-.27v-2.16c0-.18.09-.27.27-.27h3.16c.36,0,.7-.03,1-.09s.57-.19.78-.39c.22-.2.38-.48.5-.84s.17-.84.17-1.43h-2.73v-.02ZM414.46,250.94c-.83,0-1.47.3-1.92.91s-.68,1.43-.68,2.45c0,1.13.23,1.9.69,2.32.46.41,1.12.62,1.99.62h2.41v-3.07c0-1.06-.2-1.86-.59-2.41-.4-.55-1.03-.82-1.89-.82h0Z" class="st2"/>
    <path d="M445.98,256.93c.21-.21.31-.58.31-1.12v-6.82c0-.18.09-.27.27-.27h2.49c.18,0,.27.09.27.27v7.55c0,1.17-.24,2.03-.73,2.58-.49.55-1.32.83-2.49.83h-13.5c-1.14,0-1.95-.28-2.43-.83s-.73-1.42-.73-2.6v-5.81c0-.18.09-.27.27-.27h2.49c.18,0,.27.09.27.27v5.11c0,.54.1.92.31,1.12.21.21.54.31.99.31h11.2c.47,0,.81-.1,1.01-.31h0ZM436.59,247.61c-.18,0-.27-.09-.27-.27v-2.35c0-.18.09-.27.27-.27h2.27c.18,0,.27.09.27.27v2.35c0,.18-.09.27-.27.27h-2.27ZM440.1,247.61c-.18,0-.27-.09-.27-.27v-2.35c0-.18.09-.27.27-.27h2.27c.18,0,.27.09.27.27v2.35c0,.18-.09.27-.27.27h-2.27Z" class="st2"/>
    <path d="M459.77,257.24h2.83c.45,0,.78-.1.99-.31s.31-.58.31-1.12v-13.99c0-.18.09-.27.27-.27h2.49c.18,0,.27.09.27.27v14.71c0,1.17-.24,2.03-.72,2.58s-1.29.83-2.41.83h-11.87c-.18,0-.27-.09-.27-.27v-2.16c0-.18.09-.27.27-.27h4.82v-11.63c0-.18.09-.27.27-.27h2.49c.18,0,.27.09.27.27v11.63h0Z" class="st2"/>
    <path d="M470.47,241.82c0-.18.09-.27.27-.27h2.49c.18,0,.27.09.27.27v13.99c0,.54.1.91.31,1.12s.54.31.99.31h.95c.36,0,.63.1.81.32.18.21.27.57.27,1.08,0,.56-.09.92-.26,1.08-.17.15-.45.23-.82.23h-2.14c-1.13,0-1.93-.27-2.41-.83-.48-.55-.72-1.41-.72-2.58v-14.71h-.01Z" class="st2"/>
    <path d="M481.4,249.74c.85-.41,1.79-.77,2.82-1.07,1.03-.3,2.1-.45,3.2-.45,1.18,0,2.18.15,3.02.46.84.3,1.53.74,2.06,1.29.53.56.92,1.24,1.16,2.04s.37,1.68.37,2.66c0,.18,0,.35-.01.5s-.01.28-.01.39c.02.54.22.95.62,1.24.4.29.94.43,1.62.43h.46c.36,0,.63.1.81.3.18.2.27.54.27,1.01,0,.53-.09.89-.26,1.09s-.45.3-.82.3c-.78,0-1.46-.11-2.04-.34s-1.02-.69-1.31-1.38c-.38.73-.93,1.2-1.66,1.41s-1.69.31-2.88.31h-5.33c-.29,0-.59,0-.89-.01-.31,0-.6-.03-.89-.07-.29-.04-.57-.08-.83-.14-.26-.05-.48-.14-.66-.24-.29.2-.61.32-.96.38-.35.05-.76.08-1.23.08h-2.24c-.36,0-.63-.09-.81-.26s-.27-.52-.27-1.02c0-.58.09-.97.26-1.15s.45-.27.83-.27h1.24c.34,0,.6-.07.78-.22.18-.14.31-.34.39-.61.08-.26.13-.56.15-.9s.03-.7.03-1.08v-5.55c0-.18.09-.27.27-.27h2.49c.18,0,.27.09.27.27v.87h-.02ZM486.99,250.94c-1.01,0-2.01.15-2.98.46s-1.85.64-2.6,1v3.66c0,.21-.01.42-.03.62-.02.2-.04.39-.08.57h5.88c.78,0,1.41-.01,1.89-.04s.85-.13,1.11-.3.44-.44.53-.81.14-.88.14-1.55c0-.57-.06-1.09-.18-1.53s-.33-.83-.62-1.13-.69-.54-1.18-.7-1.11-.24-1.87-.24h-.01Z" class="st2"/>
    <path d="M496.71,259.94c-.36,0-.63-.09-.81-.26s-.27-.51-.27-1c0-.53.09-.9.26-1.12s.45-.33.83-.33h1.76c.45,0,.78-.1.99-.31.21-.21.31-.58.31-1.12v-6.82c0-.18.09-.27.27-.27h2.49c.18,0,.27.09.27.27v7.55c0,1.17-.24,2.03-.72,2.58s-1.29.83-2.41.83h-2.97ZM498.39,246.01c-.18,0-.27-.09-.27-.27v-2.35c0-.18.09-.27.27-.27h2.27c.18,0,.27.09.27.27v2.35c0,.18-.09.27-.27.27h-2.27ZM501.9,246.01c-.18,0-.27-.09-.27-.27v-2.35c0-.18.09-.27.27-.27h2.27c.18,0,.27.09.27.27v2.35c0,.18-.09.27-.27.27h-2.27Z" class="st2"/>
    <path d="M517.94,241.82c0-.18.09-.27.27-.27h2.49c.18,0,.27.09.27.27v14.01c.16.94.9,1.4,2.22,1.4h.46c.36,0,.63.1.81.3s.27.54.27,1.01c0,.53-.09.89-.26,1.09s-.45.3-.82.3c-.69,0-1.28-.08-1.8-.25-.51-.16-.93-.54-1.25-1.12-.25.51-.63.87-1.12,1.07s-1.16.3-1.98.3h-11.53c-.18,0-.27-.09-.27-.27v-2.16c0-.18.09-.27.27-.27h4.82v-11.63c0-.18.09-.27.27-.27h2.49c.18,0,.27.09.27.27v11.63h2.83c.31,0,.55-.04.72-.12s.3-.22.39-.4.15-.44.16-.76c.02-.32.03-.7.03-1.15v-12.99h-.01Z" class="st2"/>
    <path d="M523.68,259.94c-.36,0-.63-.09-.81-.26s-.27-.52-.27-1.05.09-.87.26-1.08.45-.32.83-.32h1.33c.45,0,.78-.1.99-.31s.31-.58.31-1.12v-13.99c0-.18.09-.27.27-.27h2.49c.18,0,.27.09.27.27v14.71c0,1.17-.24,2.03-.72,2.58s-1.29.83-2.41.83h-2.54Z" class="st2"/>
    <path d="M540.53,248.99c0-.18.09-.27.27-.27h2.49c.18,0,.27.09.27.27v6.58c0,.54.2.95.61,1.24.41.29.95.43,1.64.43h.46c.36,0,.63.1.81.3s.27.54.27,1.01c0,.53-.09.89-.26,1.09s-.45.3-.83.3c-.61,0-1.14-.05-1.58-.16-.44-.11-.82-.35-1.12-.74v.51c0,.97-.08,1.83-.24,2.56s-.42,1.34-.79,1.83-.85.85-1.46,1.1c-.61.24-1.36.36-2.26.36h-1c-.18,0-.27-.09-.27-.27v-2.16c0-.18.09-.27.27-.27h.59c.52,0,.93-.09,1.22-.27s.5-.45.64-.8c.14-.35.22-.78.24-1.27.03-.5.04-1.07.04-1.72v-9.66h-.01ZM540.77,246.01c-.18,0-.27-.09-.27-.27v-2.35c0-.18.09-.27.27-.27h2.6c.18,0,.27.09.27.27v2.35c0,.18-.09.27-.27.27h-2.6Z" class="st2"/>
    <path d="M552.13,258.55c-.25.53-.63.89-1.14,1.09s-1.19.3-2.06.3h-2.51c-.36,0-.63-.09-.81-.26s-.27-.52-.27-1.02.09-.9.26-1.11.45-.32.83-.32h1.76c.33,0,.57-.05.74-.15s.3-.25.38-.46.13-.48.15-.81.03-.74.03-1.23v-5.61c0-.11.05-.18.15-.21s.2-.05.31-.05h2.31c.18,0,.27.09.27.27v6.58c0,.54.2.95.61,1.24.41.29.95.43,1.64.43h.46c.36,0,.63.1.81.3.18.2.27.54.27,1.01,0,.53-.09.89-.26,1.09-.17.2-.45.3-.83.3-.7,0-1.32-.09-1.84-.26s-.94-.55-1.24-1.13h-.02ZM547.94,265.13c-.18,0-.27-.09-.27-.27v-2.35c0-.18.09-.27.27-.27h2.27c.18,0,.27.09.27.27v2.35c0,.18-.09.27-.27.27h-2.27ZM551.45,265.13c-.18,0-.27-.09-.27-.27v-2.35c0-.18.09-.27.27-.27h2.27c.18,0,.27.09.27.27v2.35c0,.18-.09.27-.27.27h-2.27Z" class="st2"/>
    <path d="M557.97,253.97c.02-1.04.17-1.93.45-2.66s.67-1.32,1.16-1.78c.5-.46,1.08-.79,1.75-1s1.4-.31,2.2-.31,1.54.11,2.22.32,1.28.56,1.77,1.02.89,1.09,1.17,1.86c.28.77.42,1.71.42,2.8v.47c0,.15,0,.3-.03.45.02.76.19,1.29.53,1.61.33.31.72.47,1.15.47h.78c.36,0,.63.1.81.3.18.2.27.54.27,1.01,0,.53-.09.89-.26,1.09-.17.2-.45.3-.83.3-.31,0-.63,0-.96-.03-.33-.02-.67-.08-1-.18s-.65-.24-.95-.44c-.3-.19-.57-.46-.81-.81-.49.58-1.09,1-1.83,1.26-.73.26-1.56.38-2.48.38s-1.71-.12-2.43-.37c-.72-.24-1.33-.65-1.81-1.21-.18.29-.4.53-.65.71-.26.18-.52.32-.79.42-.27.1-.55.17-.84.21s-.56.05-.81.05h-.95c-.36,0-.63-.1-.81-.31s-.27-.56-.27-1.05c0-.53.09-.88.26-1.07.17-.18.45-.27.83-.27h1.06c.43,0,.82-.17,1.16-.53.34-.35.52-.99.54-1.93-.02-.14-.03-.28-.03-.4v-.4.02ZM563.53,250.94c-.86,0-1.5.28-1.91.83s-.62,1.37-.62,2.42c0,1.15.21,1.98.62,2.48s1.05.75,1.91.75,1.52-.26,1.94-.77c.41-.51.62-1.33.62-2.47,0-2.17-.85-3.26-2.56-3.26v.02Z" class="st2"/>
    <path d="M577.34,258.55c-.25.53-.63.89-1.14,1.09s-1.19.3-2.06.3h-2.51c-.36,0-.63-.09-.81-.26s-.27-.52-.27-1.02.09-.9.26-1.11.45-.32.83-.32h1.76c.33,0,.57-.05.74-.15s.3-.25.38-.46.13-.48.15-.81.03-.74.03-1.23v-5.61c0-.11.05-.18.15-.21s.2-.05.31-.05h2.31c.18,0,.27.09.27.27v6.58c0,.54.2.95.61,1.24.41.29.95.43,1.64.43h.46c.36,0,.63.1.81.3.18.2.27.54.27,1.01,0,.53-.09.89-.26,1.09-.17.2-.45.3-.83.3-.7,0-1.32-.09-1.84-.26s-.94-.55-1.24-1.13h-.02ZM573.33,246.01c-.18,0-.27-.09-.27-.27v-2.35c0-.18.09-.27.27-.27h2.27c.18,0,.27.09.27.27v2.35c0,.18-.09.27-.27.27h-2.27ZM576.85,246.01c-.18,0-.27-.09-.27-.27v-2.35c0-.18.09-.27.27-.27h2.27c.18,0,.27.09.27.27v2.35c0,.18-.09.27-.27.27h-2.27Z" class="st2"/>
    <path d="M580.45,259.94c-.36,0-.63-.09-.81-.26s-.27-.52-.27-1.05.09-.87.26-1.08.45-.32.83-.32h1.33c.45,0,.78-.1.99-.31s.31-.58.31-1.12v-13.99c0-.18.09-.27.27-.27h2.49c.18,0,.27.09.27.27v14.71c0,1.17-.24,2.03-.72,2.58s-1.29.83-2.41.83h-2.54Z" class="st2"/>
    <path d="M592.67,259.67c0,.18-.09.27-.27.27h-2.49c-.18,0-.27-.09-.27-.27v-17.85c0-.18.09-.27.27-.27h2.49c.18,0,.27.09.27.27v17.85Z" class="st2"/>
    <path d="M601.14,259.94c-.85,0-1.6-.09-2.26-.28-.66-.19-1.21-.5-1.66-.95s-.8-1.01-1.04-1.72c-.24-.7-.37-1.57-.37-2.6,0-1.1.15-2.04.45-2.82s.71-1.43,1.22-1.92c.51-.5,1.11-.86,1.77-1.08.67-.22,1.37-.34,2.12-.34.81,0,1.56.11,2.24.32.68.22,1.26.56,1.75,1.03s.87,1.08,1.14,1.84.41,1.69.41,2.79v6.33c0,1.7-.43,2.93-1.28,3.71-.86.78-2.1,1.16-3.72,1.16h-3.65c-.18,0-.27-.09-.27-.27v-2.16c0-.18.09-.27.27-.27h3.16c.36,0,.7-.03,1-.09s.57-.19.78-.39c.22-.2.38-.48.5-.84s.17-.84.17-1.43h-2.73v-.02ZM601.38,250.94c-.83,0-1.47.3-1.92.91s-.68,1.43-.68,2.45c0,1.13.23,1.9.69,2.32.46.41,1.12.62,1.99.62h2.41v-3.07c0-1.06-.2-1.86-.59-2.41-.4-.55-1.03-.82-1.89-.82h0Z" class="st2"/>
    <path d="M615.82,261.36c0-.62.08-1.15.23-1.6s.36-.83.62-1.14c.26-.31.56-.56.89-.76s.69-.34,1.07-.43c-.4-.41-.73-.92-.99-1.51s-.39-1.31-.39-2.16c0-.63.1-1.27.3-1.93s.53-1.25.99-1.78c.46-.53,1.06-.97,1.81-1.31s1.67-.51,2.77-.51c1.19,0,2.2.2,3.03.61s1.48.91,1.95,1.53c.09.14.06.27-.08.38l-1.46,1.51c-.13.13-.25.12-.38-.03-.79-.87-1.75-1.3-2.87-1.3-.92,0-1.63.27-2.12.81-.5.54-.74,1.27-.74,2.18,0,.54.09,1,.26,1.39s.37.71.59.98.46.48.7.63.44.26.58.31h5.81c.18,0,.27.09.27.27v2.16c0,.18-.09.27-.27.27h-8.17c-.5,0-.85.14-1.04.41s-.28.59-.28.95c0,.49.14.84.41,1.07.27.22.79.34,1.57.34h2.68c.18,0,.27.09.27.27v2.16c0,.18-.09.27-.27.27h-2.95c-1.53,0-2.71-.32-3.54-.96s-1.24-1.67-1.24-3.08h-.01Z" class="st2"/>
    <path d="M634.59,259.67c0,.18-.09.27-.27.27h-2.49c-.18,0-.27-.09-.27-.27v-17.85c0-.18.09-.27.27-.27h2.49c.18,0,.27.09.27.27v17.85Z" class="st2"/>
    <path d="M639.22,250.94c-.18,0-.27-.09-.27-.27v-2.16c0-.18.09-.27.27-.27h4.11c1.51,0,2.71.38,3.6,1.13.89.76,1.33,1.99,1.33,3.7v2.53c0,.52.2.93.59,1.21.4.29.94.43,1.62.43h.46c.36,0,.63.1.81.3.18.2.27.54.27,1.01,0,.53-.09.89-.26,1.09s-.45.3-.82.3c-.76,0-1.41-.1-1.96-.3-.55-.2-.98-.62-1.28-1.26-.34.62-.8,1.03-1.38,1.24s-1.33.31-2.25.31h-6.06c-.18,0-.27-.09-.27-.27v-2.16c0-.18.09-.27.27-.27h5.03c.49,0,.87-.04,1.16-.11.29-.07.51-.19.66-.36.15-.17.25-.39.3-.66s.07-.6.07-1v-1.8c0-.83-.23-1.43-.69-1.8s-1.15-.57-2.07-.57h-3.24,0Z" class="st2"/>
    <path d="M650.96,259.94c-.36,0-.63-.06-.81-.19s-.27-.38-.27-.76c0-.46.09-.86.26-1.22.17-.35.45-.53.83-.53h1.33c.45,0,.78-.1.99-.31.21-.21.31-.58.31-1.12v-6.82c0-.18.09-.27.27-.27h2.49c.18,0,.27.09.27.27v7.55c0,1.17-.24,2.03-.72,2.58s-1.29.83-2.41.83h-2.54ZM653.34,265.08c-.18,0-.27-.09-.27-.27v-2.35c0-.18.09-.27.27-.27h2.6c.18,0,.27.09.27.27v2.35c0,.18-.09.27-.27.27h-2.6Z" class="st2"/>
    <path d="M667.46,257.24h2.83c.45,0,.78-.1.99-.31s.31-.58.31-1.12v-13.99c0-.18.09-.27.27-.27h2.49c.18,0,.27.09.27.27v14.71c0,1.17-.24,2.03-.72,2.58s-1.29.83-2.41.83h-11.87c-.18,0-.27-.09-.27-.27v-2.16c0-.18.09-.27.27-.27h4.82v-11.63c0-.18.09-.27.27-.27h2.49c.18,0,.27.09.27.27v11.63h-.01ZM664.02,266.08c-.13-.2-.23-.43-.31-.7-.08-.27-.12-.56-.12-.87s.05-.62.15-.93.27-.6.5-.87c.23-.26.53-.47.89-.64.36-.16.8-.24,1.33-.24s.96.09,1.35.27c.4.18.71.42.95.73.07.11.07.2,0,.27l-.7.65c-.07.07-.13.11-.16.11-.04,0-.07-.02-.11-.05-.38-.42-.81-.62-1.3-.62-.42,0-.74.13-.97.39s-.35.58-.35.96.09.67.28.93c.19.26.38.46.58.61h2.73c.11,0,.16.06.16.19v.97c0,.13-.05.19-.16.19h-5.73c-.11,0-.16-.06-.16-.19v-.97c0-.13.05-.19.16-.19h1-.01Z" class="st2"/>
    <path d="M681.19,259.67c0,.18-.09.27-.27.27h-2.49c-.18,0-.27-.09-.27-.27v-17.85c0-.18.09-.27.27-.27h2.49c.18,0,.27.09.27.27v17.85Z" class="st2"/>
    <path d="M692.15,253.91c.07-.13.21-.14.41-.05l2.19.87c.09.04.14.09.15.15,0,.06,0,.13-.04.2-.29.51-.56,1.1-.83,1.77-.26.68-.39,1.42-.39,2.23,0,.7.11,1.29.34,1.77.22.48.51.86.87,1.15.35.29.74.49,1.18.61.43.12.86.18,1.27.18,1.05,0,1.88-.28,2.51-.83s.95-1.44.95-2.66v-17.47c0-.18.09-.27.27-.27h2.49c.18,0,.27.09.27.27v17.55c0,1.03-.16,1.93-.47,2.71-.32.78-.76,1.42-1.35,1.93-.58.51-1.28.9-2.09,1.15s-1.71.38-2.7.38-1.83-.13-2.63-.38-1.5-.64-2.09-1.15c-.59-.51-1.06-1.16-1.39-1.93s-.5-1.69-.5-2.73c0-.97.15-1.95.46-2.92s.69-1.81,1.14-2.52h-.02Z" class="st2"/>
    <path d="M709.35,265.4c-.18,0-.27-.09-.27-.27v-2.16c0-.18.09-.27.27-.27h3.16c.41,0,.78-.04,1.08-.12.31-.08.56-.22.76-.42s.35-.48.46-.84c.11-.36.16-.82.16-1.38h-2.73c-.85,0-1.6-.09-2.26-.28-.66-.19-1.21-.5-1.66-.95s-.8-1.01-1.04-1.72c-.24-.7-.37-1.57-.37-2.6,0-1.1.15-2.04.46-2.82s.71-1.43,1.22-1.92c.51-.5,1.09-.86,1.76-1.08s1.37-.34,2.12-.34c.81,0,1.56.11,2.24.32.68.22,1.26.56,1.75,1.02s.87,1.08,1.14,1.83c.27.76.41,1.68.41,2.78v3.05h1.87c.36,0,.63.1.81.3s.27.54.27,1.01c0,.58-.09.96-.26,1.13s-.45.26-.82.26h-1.87v.59c0,1.7-.43,2.93-1.28,3.71-.86.78-2.1,1.16-3.72,1.16h-3.66ZM712.49,250.94c-.81,0-1.45.3-1.91.91-.46.61-.69,1.43-.69,2.45,0,1.13.23,1.9.69,2.32.46.41,1.12.62,1.99.62h2.41v-3.07c0-1.06-.2-1.86-.59-2.41-.4-.55-1.03-.82-1.89-.82h0Z" class="st2"/>
    <path d="M721.17,257.24c.45,0,.78-.1.99-.31s.31-.58.31-1.12v-13.99c0-.18.09-.27.27-.27h2.49c.18,0,.27.09.27.27v13.74c0,.54.2.95.61,1.24s.95.43,1.64.43h.46c.36,0,.63.1.81.3s.27.54.27,1.01c0,.53-.09.89-.26,1.09s-.45.3-.83.3c-.7,0-1.32-.09-1.84-.26s-.94-.55-1.24-1.13c-.25.51-.61.87-1.09,1.08-.47.21-1.11.31-1.92.31h-2.27c-.36,0-.63-.09-.81-.26s-.27-.55-.27-1.13c0-.49.09-.83.26-1.02s.45-.29.83-.29h1.33-.01Z" class="st2"/>
    <path d="M728.23,259.94c-.36,0-.63-.1-.81-.31s-.27-.56-.27-1.05c0-.53.09-.88.26-1.07.17-.18.45-.27.83-.27h7.2c.47,0,.85-.04,1.14-.11.29-.07.51-.2.67-.38s.27-.42.33-.71c.05-.3.08-.66.08-1.09,0-.57-.05-1.11-.16-1.6-.11-.49-.29-.92-.54-1.28s-.58-.64-.99-.83c-.4-.2-.91-.3-1.53-.3s-1.14.12-1.62.35-.92.55-1.3.95c-.13.13-.25.14-.38.03l-1.41-1.46c-.14-.14-.16-.27-.05-.38.56-.63,1.22-1.15,2-1.57.77-.41,1.72-.62,2.84-.62,1.21,0,2.22.19,3.03.56.81.37,1.46.87,1.95,1.49s.83,1.34,1.04,2.16c.21.82.31,1.69.31,2.61,0,.97-.09,1.78-.27,2.41s-.45,1.13-.8,1.5-.79.63-1.33.77c-.53.14-1.15.22-1.85.22h-8.36v-.02Z" class="st2"/>
    <path d="M757.68,248.23v-1.16c0-.18.09-.27.27-.27h2.49c.18,0,.27.09.27.27v8.74c0,.54.1.91.31,1.12s.54.31.99.31h1.03c.72,0,1.08.46,1.08,1.37,0,.55-.09.91-.26,1.08s-.45.26-.82.26h-2.19c-.88,0-1.57-.15-2.07-.46s-.82-.86-.99-1.64c-.38.33-.83.58-1.35.75-.52.16-1.07.25-1.65.25-.7,0-1.37-.1-1.99-.3s-1.16-.51-1.62-.92-.83-.94-1.1-1.58c-.27-.64-.4-1.41-.4-2.31,0-1.05.15-1.92.45-2.62.3-.7.69-1.27,1.19-1.69s1.06-.73,1.69-.91,1.29-.27,1.98-.27h2.71l-.02-.02ZM752.52,244.93c-.18,0-.27-.09-.27-.27v-2.35c0-.18.09-.27.27-.27h2.27c.18,0,.27.09.27.27v2.35c0,.18-.09.27-.27.27h-2.27ZM755.14,256.13c.87,0,1.5-.25,1.92-.74.41-.49.62-1.21.62-2.17v-2.29h-2.41c-.78,0-1.4.2-1.87.59-.47.4-.7,1.12-.7,2.18,0,.83.22,1.44.65,1.83.43.39,1.03.59,1.79.59h0ZM756.03,244.93c-.18,0-.27-.09-.27-.27v-2.35c0-.18.09-.27.27-.27h2.27c.18,0,.27.09.27.27v2.35c0,.18-.09.27-.27.27h-2.27Z" class="st2"/>
    <path d="M768.91,248.58c.95.02,1.83.09,2.62.2.79.12,1.46.35,2.02.7s.98.86,1.29,1.53c.3.67.46,1.56.46,2.66v1.63c0,.9-.08,1.65-.24,2.24s-.4,1.06-.72,1.42c-.32.36-.73.62-1.23.76-.5.15-1.09.22-1.78.22h-7.95c-.36,0-.63-.1-.81-.31s-.27-.58-.27-1.11.09-.87.26-1.04c.17-.16.45-.25.83-.25h6.71c.49,0,.88-.04,1.16-.11s.51-.19.66-.35.25-.38.3-.65c.04-.27.07-.61.07-1.02v-1.45c0-.81-.22-1.4-.66-1.79s-1.14-.58-2.1-.58h-4.35c-.18,0-.27-.09-.27-.27v-1.89c0-.13.05-.24.16-.35s.2-.21.27-.3l5.84-6.87c.11-.13.22-.15.35-.08l1.75,1.46c.14.11.18.23.11.38l-4.45,5.22h-.03Z" class="st2"/>
    <path d="M779.75,248.99c0-.18.09-.27.27-.27h2.49c.18,0,.27.09.27.27v6.58c0,.54.2.95.61,1.24.41.29.95.43,1.64.43h.46c.36,0,.63.1.81.3s.27.54.27,1.01c0,.53-.09.89-.26,1.09s-.45.3-.83.3c-.61,0-1.14-.05-1.58-.16-.44-.11-.82-.35-1.12-.74v.51c0,.97-.08,1.83-.24,2.56s-.42,1.34-.79,1.83-.85.85-1.46,1.1c-.61.24-1.36.36-2.26.36h-1c-.18,0-.27-.09-.27-.27v-2.16c0-.18.09-.27.27-.27h.59c.52,0,.93-.09,1.22-.27s.5-.45.64-.8c.14-.35.22-.78.24-1.27.03-.5.04-1.07.04-1.72v-9.66h-.01Z" class="st2"/>
    <path d="M791.98,255.56c0,1.12.65,1.68,1.96,1.68.4,0,.72-.02.95-.07.23-.04.42-.14.56-.27.14-.14.23-.34.27-.61.04-.27.07-.64.07-1.11v-4.08c0-.18.09-.27.27-.27h2.49c.18,0,.27.09.27.27v4.44c0,.58.17,1,.52,1.28.34.28.81.42,1.39.42.44,0,.78-.03,1.03-.09s.44-.19.56-.38.2-.45.23-.79c.04-.34.05-.8.05-1.38v-5.61c0-.18.09-.27.27-.27h2.49c.18,0,.27.09.27.27v7.55c0,1.24-.26,2.12-.77,2.64s-1.38.77-2.61.77h-1.16c-.63,0-1.17-.12-1.61-.37s-.78-.6-1.01-1.05c-.25.53-.62.9-1.09,1.11-.48.21-1.12.31-1.93.31h-1.19c-1.28,0-2.16-.48-2.62-1.45-.25.53-.61.9-1.09,1.12-.47.22-1.12.33-1.95.33h-3.08c-.36,0-.63-.09-.81-.26s-.27-.5-.27-.97c0-.54.09-.93.26-1.15s.45-.33.83-.33h2.16c.56,0,.91-.15,1.06-.45.14-.3.22-.83.22-1.61v-4.08c0-.18.09-.27.27-.27h2.49c.18,0,.27.09.27.27v4.46h-.02ZM794.41,246.01c-.18,0-.27-.09-.27-.27v-2.35c0-.18.09-.27.27-.27h2.27c.18,0,.27.09.27.27v2.35c0,.18-.09.27-.27.27h-2.27ZM796.14,242.52c-.18,0-.27-.09-.27-.27v-2.35c0-.18.09-.27.27-.27h2.27c.18,0,.27.09.27.27v2.35c0,.18-.09.27-.27.27h-2.27ZM797.93,246.01c-.18,0-.27-.09-.27-.27v-2.35c0-.18.09-.27.27-.27h2.27c.18,0,.27.09.27.27v2.35c0,.18-.09.27-.27.27h-2.27Z" class="st2"/>
  </g>
  <g>
    <rect height="36.44" width="36.44" y="222.12" x="99.19" class="st4"/>
    <rect height="47.85" width="47.85" y="154.26" x="173.11" class="st3"/>
    <rect height="25.2" width="25.2" y="235.15" x="154.89" class="st1"/>
    <rect height="47.49" width="47.49" y="70.36" x="69.92" class="st4"/>
    <rect height="32.24" width="32.24" y="85.61" x="159.44" class="st1"/>
    <rect height="17.41" width="17.41" y="41.49" x="150.73" class="st3"/>
    <rect height="40.02" width="40.02" y="183.88" x="29.9" class="st3"/>
    <rect height="71.97" width="71.97" y="137.34" x="84.77" class="st0"/>
  </g>
</svg>