<svg viewBox="46.74455789170507 114.82525600000001 847.0598847926267 311.29924" version="1.1" xmlns="http://www.w3.org/2000/svg" id="Layer_1" style="max-height: 500px" width="847.0598847926267" height="311.29924">
  
  <defs>
    <style>
      .st0 {
        fill: #fff;
      }
    </style>
  </defs>
  <g>
    <path d="M292.7,158.74h38.23v143.86h-38.23v-143.86Z" class="st0"/>
    <path d="M479.52,299.28c-5.57,1.41-11.6,2.72-18.11,3.92-3.29.67-6.98,1.16-11.07,1.46s-8.59.45-13.48.45c-9.59,0-19.32-1.31-29.17-3.92-9.66-2.62-18.51-6.81-26.56-12.58-7.85-5.63-14.32-13.21-19.41-22.74-4.96-9.52-7.45-21.06-7.45-34.61,0-12.54,2.06-23.51,6.19-32.9,4.12-9.39,9.86-17.2,17.2-23.44,7.34-6.24,16.05-10.9,26.11-13.98,10.06-3.09,21.03-4.63,32.9-4.63,7.51,0,14.74.72,21.68,2.16s13.93,3.2,20.98,5.28l-3.12,31.09c-6.24-3.42-12.37-5.95-18.41-7.6-6.04-1.64-12.37-2.47-19.01-2.47s-13.03,1.16-18.56,3.47c-5.53,2.31-10.26,5.53-14.18,9.66s-6.94,9.04-9.05,14.74c-2.11,5.7-3.17,11.91-3.17,18.61,0,7.11,1.19,13.47,3.57,19.07,2.38,5.6,5.7,10.35,9.96,14.23,4.26,3.89,9.32,6.88,15.19,8.95,5.87,2.08,12.29,3.12,19.26,3.12,6.3,0,12.56-.72,18.76-2.16,6.2-1.44,11.92-3.2,17.15-5.28l1.81,30.08Z" class="st0"/>
    <path d="M497.43,267.19c5.03,2.82,10.9,5.1,17.61,6.84,6.71,1.75,14.02,2.62,21.93,2.62,3.08,0,6.05-.18,8.9-.55,2.85-.37,5.38-1.06,7.6-2.06s3.97-2.41,5.28-4.22,1.96-4.19,1.96-7.14c0-4.56-1.68-8.01-5.03-10.36-3.42-2.35-7.63-4.38-12.63-6.09-5-1.71-10.45-3.4-16.35-5.08-5.9-1.68-11.37-4.09-16.4-7.24-5.1-3.15-9.29-7.31-12.58-12.48-3.35-5.3-5.03-12.31-5.03-21.03s1.91-15.76,5.74-21.53c3.82-5.63,8.75-10.13,14.79-13.48,5.9-3.29,12.58-5.6,20.02-6.94,7.45-1.41,14.82-2.11,22.13-2.11s13.77.49,20.17,1.46c6.4.97,12.02,2.26,16.85,3.87l-2.41,29.68c-5.03-2.35-10.25-4.02-15.64-5.03-5.4-1.01-10.85-1.51-16.35-1.51-2.42,0-5.12.1-8.1.3-2.98.2-5.78.74-8.4,1.61-2.62.87-4.81,2.21-6.59,4.02-1.78,1.81-2.67,4.29-2.67,7.45,0,3.76,1.68,6.71,5.03,8.85,3.42,2.01,7.63,3.79,12.63,5.33,5,1.54,10.44,3.15,16.35,4.83,5.77,1.54,11.23,3.92,16.4,7.14,5.03,3.15,9.22,7.34,12.58,12.58,3.35,5.3,5.03,12.24,5.03,20.82,0,9.32-1.78,17.04-5.33,23.14-3.56,6.1-8.3,10.95-14.24,14.54-5.94,3.59-12.69,6.1-20.27,7.55-7.58,1.44-15.39,2.16-23.44,2.16-3.42,0-6.91-.14-10.46-.4-3.56-.27-7.28-.67-11.17-1.21-7.78-1.01-14.86-2.55-21.23-4.63l3.32-31.69Z" class="st0"/>
    <path d="M742.8,299.28c-5.57,1.41-11.6,2.72-18.11,3.92-3.29.67-6.98,1.16-11.07,1.46s-8.59.45-13.48.45c-9.59,0-19.32-1.31-29.17-3.92-9.66-2.62-18.51-6.81-26.56-12.58-7.85-5.63-14.32-13.21-19.41-22.74-4.96-9.52-7.45-21.06-7.45-34.61,0-12.54,2.06-23.51,6.19-32.9,4.12-9.39,9.86-17.2,17.2-23.44,7.34-6.24,16.05-10.9,26.11-13.98,10.06-3.09,21.03-4.63,32.9-4.63,7.51,0,14.74.72,21.68,2.16s13.93,3.2,20.98,5.28l-3.12,31.09c-6.24-3.42-12.37-5.95-18.41-7.6-6.04-1.64-12.37-2.47-19.01-2.47s-13.03,1.16-18.56,3.47c-5.53,2.31-10.26,5.53-14.18,9.66s-6.94,9.04-9.05,14.74c-2.11,5.7-3.17,11.91-3.17,18.61,0,7.11,1.19,13.47,3.57,19.07,2.38,5.6,5.7,10.35,9.96,14.23,4.26,3.89,9.32,6.88,15.19,8.95,5.87,2.08,12.29,3.12,19.26,3.12,6.3,0,12.56-.72,18.76-2.16,6.2-1.44,11.92-3.2,17.15-5.28l1.81,30.08Z" class="st0"/>
    <path d="M785.06,187.21h-35.41v-28.47h109.15v28.47h-35.41v115.39h-38.33v-115.39Z" class="st0"/>
  </g>
  <g>
    <path d="M284.15,328.8v14h-2.41v-14h2.41Z" class="st0"/>
    <path d="M289.22,334.61v8.18h-2.32v-10.41h2.18l.14,2.22ZM288.8,337.21h-.75c0-.75.11-1.42.31-2.04.2-.62.48-1.14.85-1.59.36-.44.8-.78,1.3-1.02.51-.24,1.07-.36,1.69-.36.5,0,.95.07,1.36.21.41.14.76.36,1.05.67.29.31.52.71.67,1.2.15.49.23,1.09.23,1.8v6.72h-2.33v-6.73c0-.5-.07-.9-.22-1.19-.15-.29-.35-.5-.63-.62s-.61-.19-1.01-.19-.75.08-1.07.25c-.31.17-.58.39-.79.68-.21.29-.38.62-.5,1-.11.38-.17.78-.17,1.21Z" class="st0"/>
    <path d="M300.18,334.61v8.18h-2.32v-10.41h2.18l.14,2.22ZM299.77,337.21h-.75c0-.75.11-1.42.31-2.04.2-.62.48-1.14.85-1.59.36-.44.8-.78,1.3-1.02.51-.24,1.07-.36,1.69-.36.5,0,.95.07,1.36.21.41.14.76.36,1.05.67.29.31.52.71.67,1.2.15.49.23,1.09.23,1.8v6.72h-2.33v-6.73c0-.5-.07-.9-.22-1.19-.15-.29-.35-.5-.63-.62s-.61-.19-1.01-.19-.75.08-1.07.25c-.31.17-.58.39-.79.68-.21.29-.38.62-.5,1-.11.38-.17.78-.17,1.21Z" class="st0"/>
    <path d="M308.4,337.71v-.22c0-.75.11-1.45.33-2.09.22-.65.53-1.21.95-1.68.41-.48.92-.85,1.52-1.12.6-.27,1.28-.4,2.03-.4s1.44.13,2.04.4c.6.27,1.11.64,1.52,1.12s.73,1.04.95,1.68c.22.64.33,1.34.33,2.09v.22c0,.75-.11,1.44-.33,2.09-.22.64-.54,1.2-.95,1.68s-.92.85-1.52,1.12c-.6.27-1.27.4-2.03.4s-1.44-.13-2.04-.4c-.6-.27-1.11-.64-1.52-1.12-.42-.48-.73-1.04-.95-1.68-.22-.64-.33-1.34-.33-2.09ZM310.72,337.49v.22c0,.47.05.91.14,1.33s.25.78.45,1.1c.2.32.47.56.79.74.32.18.7.27,1.14.27s.8-.09,1.12-.27c.32-.18.58-.42.78-.74.21-.31.36-.68.46-1.1s.15-.86.15-1.33v-.22c0-.46-.05-.9-.15-1.31-.1-.41-.25-.78-.46-1.1-.21-.32-.47-.57-.79-.76-.32-.18-.69-.27-1.13-.27s-.81.09-1.13.27-.58.43-.78.76c-.21.32-.36.69-.45,1.1-.1.41-.14.85-.14,1.31Z" class="st0"/>
    <path d="M321.31,332.39l2.6,8.61.13,1.8h-1.5l-3.64-10.41h2.41ZM323.26,340.96l2.55-8.57h2.41l-3.62,10.41h-1.5l.16-1.84Z" class="st0"/>
    <path d="M335.7,336.47l.02,1.43h-1.66c-.43,0-.81.04-1.14.12-.33.08-.6.2-.82.35s-.38.34-.49.56c-.11.22-.16.47-.16.74s.06.53.19.75c.13.23.32.41.56.53s.55.19.9.19c.47,0,.89-.1,1.25-.29s.64-.44.84-.72c.21-.29.31-.56.33-.81l.75,1.03c-.08.26-.21.54-.39.85-.19.3-.43.59-.73.86s-.65.5-1.07.67c-.41.17-.89.26-1.43.26-.68,0-1.28-.14-1.82-.41-.53-.27-.95-.64-1.25-1.11-.3-.46-.45-.99-.45-1.58,0-.55.1-1.04.31-1.47.21-.43.52-.78.92-1.07.41-.29.91-.51,1.5-.66s1.26-.23,2.02-.23h1.82ZM335.36,340.71v-4.96c0-.37-.07-.69-.2-.96-.13-.27-.34-.48-.61-.63s-.62-.22-1.02-.22c-.38,0-.71.07-.98.19-.27.13-.49.3-.64.52-.15.22-.23.46-.23.74h-2.31c0-.41.1-.81.3-1.19.2-.39.49-.73.87-1.03.38-.3.83-.54,1.36-.71s1.12-.26,1.77-.26c.78,0,1.48.13,2.08.39.61.26,1.08.66,1.43,1.19.35.53.52,1.19.52,1.99v4.63c0,.47.03.9.1,1.27.07.38.16.7.29.98v.15h-2.38c-.11-.25-.19-.57-.26-.96-.06-.39-.09-.76-.09-1.13Z" class="st0"/>
    <path d="M344.89,332.39v1.69h-5.87v-1.69h5.87ZM340.71,329.84h2.32v10.08c0,.32.05.57.14.73s.22.28.39.34c.17.06.36.09.59.09.16,0,.31-.01.46-.03.15-.02.27-.04.36-.06v1.77c-.18.06-.41.11-.66.15-.25.04-.54.07-.87.07-.53,0-1-.09-1.42-.28-.41-.19-.73-.5-.96-.93s-.35-1-.35-1.71v-10.22Z" class="st0"/>
    <path d="M346.67,329.66c0-.35.12-.65.35-.88.23-.23.56-.35.98-.35s.73.12.97.35c.24.23.35.53.35.88s-.12.64-.35.87c-.24.23-.56.35-.97.35s-.74-.12-.98-.35c-.23-.23-.35-.52-.35-.87ZM349.16,332.39v10.41h-2.33v-10.41h2.33Z" class="st0"/>
    <path d="M351.25,337.71v-.22c0-.75.11-1.45.33-2.09.22-.65.53-1.21.95-1.68.41-.48.92-.85,1.52-1.12.6-.27,1.28-.4,2.03-.4s1.44.13,2.04.4c.6.27,1.11.64,1.52,1.12s.73,1.04.95,1.68c.22.64.33,1.34.33,2.09v.22c0,.75-.11,1.44-.33,2.09-.22.64-.54,1.2-.95,1.68s-.92.85-1.52,1.12c-.6.27-1.27.4-2.03.4s-1.44-.13-2.04-.4c-.6-.27-1.11-.64-1.52-1.12-.42-.48-.73-1.04-.95-1.68-.22-.64-.33-1.34-.33-2.09ZM353.57,337.49v.22c0,.47.05.91.14,1.33s.25.78.45,1.1c.2.32.47.56.79.74.32.18.7.27,1.14.27s.8-.09,1.12-.27c.32-.18.58-.42.78-.74.21-.31.36-.68.46-1.1s.15-.86.15-1.33v-.22c0-.46-.05-.9-.15-1.31-.1-.41-.25-.78-.46-1.1-.21-.32-.47-.57-.79-.76-.32-.18-.69-.27-1.13-.27s-.81.09-1.13.27-.58.43-.78.76c-.21.32-.36.69-.45,1.1-.1.41-.14.85-.14,1.31Z" class="st0"/>
    <path d="M365.17,334.61v8.18h-2.32v-10.41h2.18l.14,2.22ZM364.75,337.21h-.75c0-.75.11-1.42.31-2.04.2-.62.48-1.14.85-1.59.36-.44.8-.78,1.3-1.02.51-.24,1.07-.36,1.69-.36.5,0,.95.07,1.36.21.41.14.76.36,1.05.67.29.31.52.71.67,1.2.15.49.23,1.09.23,1.8v6.72h-2.33v-6.73c0-.5-.07-.9-.22-1.19-.15-.29-.35-.5-.63-.62s-.61-.19-1.01-.19-.75.08-1.07.25c-.31.17-.58.39-.79.68-.21.29-.38.62-.5,1-.11.38-.17.78-.17,1.21Z" class="st0"/>
    <path d="M381.12,335.18l2.41-1.62c.4-.27.69-.53.87-.79.17-.26.26-.59.26-.98,0-.33-.13-.64-.38-.92s-.62-.42-1.09-.42c-.33,0-.6.08-.83.23s-.39.35-.51.6c-.11.25-.17.52-.17.82s.07.58.22.89.35.62.61.95c.26.33.54.68.87,1.06l6.62,7.81h-2.68l-5.4-6.36c-.47-.57-.88-1.08-1.24-1.55-.36-.47-.64-.93-.84-1.38s-.3-.9-.3-1.38c0-.73.15-1.36.45-1.88s.73-.93,1.28-1.22c.55-.29,1.2-.43,1.93-.43s1.33.14,1.84.43c.52.28.91.66,1.19,1.13s.42.98.42,1.54c0,.44-.08.85-.24,1.21-.16.36-.38.7-.66,1-.28.3-.61.59-.98.86l-2.93,2.13c-.34.28-.59.54-.75.79-.16.25-.27.49-.32.7-.05.21-.08.4-.08.56,0,.41.09.78.26,1.12.18.33.44.6.78.79.34.2.76.29,1.25.29.53,0,1.05-.12,1.55-.36.5-.24.95-.58,1.35-1.02s.71-.97.95-1.59c.23-.62.35-1.3.35-2.05h2c0,.68-.07,1.32-.2,1.93-.13.61-.34,1.17-.63,1.69-.28.52-.66.99-1.12,1.39-.04.04-.09.1-.15.17-.05.07-.11.12-.16.17-.55.51-1.17.88-1.85,1.13s-1.41.37-2.18.37c-.93,0-1.74-.17-2.41-.51-.68-.34-1.2-.81-1.57-1.4s-.55-1.28-.55-2.05c0-.57.12-1.07.36-1.51.24-.43.56-.84.98-1.21.41-.38.89-.75,1.44-1.13Z" class="st0"/>
    <path d="M404.75,338.24h2.41c-.08.92-.33,1.73-.77,2.45-.44.71-1.05,1.28-1.84,1.69-.79.41-1.75.62-2.87.62-.87,0-1.64-.16-2.34-.47s-1.28-.75-1.78-1.33c-.49-.57-.87-1.27-1.13-2.08-.26-.81-.39-1.73-.39-2.73v-1.16c0-1.01.13-1.92.4-2.73.27-.82.65-1.51,1.15-2.09.5-.58,1.1-1.02,1.8-1.33.7-.31,1.49-.46,2.37-.46,1.12,0,2.06.21,2.83.62.77.41,1.37.98,1.79,1.7.42.72.69,1.55.78,2.49h-2.4c-.07-.6-.2-1.12-.42-1.55-.22-.43-.53-.76-.95-.99-.42-.23-.96-.34-1.64-.34-.55,0-1.03.1-1.44.31-.41.2-.75.51-1.03.9s-.48.89-.62,1.47c-.14.58-.21,1.24-.21,1.99v1.18c0,.71.06,1.34.19,1.92s.32,1.07.58,1.48c.26.41.59.73,1,.95.4.22.89.34,1.45.34.69,0,1.24-.11,1.67-.33s.75-.54.97-.96.37-.93.44-1.54Z" class="st0"/>
    <path d="M411.43,334.37v8.42h-2.32v-10.41h2.21l.1,1.98ZM414.61,332.32l-.02,2.15c-.14-.02-.29-.04-.46-.06-.16-.01-.33-.02-.49-.02-.4,0-.75.05-1.05.17-.3.11-.55.27-.75.48-.2.21-.36.46-.47.76-.11.29-.17.63-.19.99l-.53.04c0-.65.07-1.26.19-1.82.13-.56.32-1.05.58-1.47.26-.42.59-.75.98-.99.39-.24.85-.36,1.37-.36.14,0,.29.01.46.04.16.03.29.05.37.09Z" class="st0"/>
    <path d="M420.47,342.99c-.77,0-1.46-.13-2.08-.38-.62-.25-1.14-.61-1.58-1.06-.43-.45-.77-.99-1-1.61-.23-.62-.35-1.28-.35-1.99v-.39c0-.81.12-1.55.35-2.21.24-.66.57-1.22.99-1.7s.92-.83,1.5-1.08,1.2-.38,1.88-.38c.74,0,1.39.13,1.95.38.56.25,1.02.6,1.39,1.05.37.45.65.99.83,1.61.18.62.27,1.31.27,2.06v.99h-8.04v-1.66h5.75v-.18c-.01-.42-.09-.81-.24-1.17-.15-.37-.38-.66-.69-.89-.31-.22-.72-.34-1.23-.34-.38,0-.73.08-1.02.24s-.55.4-.75.71c-.2.31-.35.68-.46,1.11-.11.43-.16.92-.16,1.46v.39c0,.46.06.88.19,1.26.13.39.31.73.55,1.01.24.29.54.52.89.68s.74.24,1.18.24c.56,0,1.06-.11,1.49-.34.44-.22.81-.54,1.14-.95l1.22,1.18c-.23.33-.52.64-.88.94-.36.3-.8.54-1.31.72-.52.19-1.11.28-1.79.28Z" class="st0"/>
    <path d="M432.64,336.47l.02,1.43h-1.66c-.43,0-.81.04-1.14.12-.33.08-.6.2-.82.35s-.38.34-.49.56c-.11.22-.16.47-.16.74s.06.53.19.75c.13.23.32.41.56.53s.55.19.9.19c.47,0,.89-.1,1.25-.29s.64-.44.84-.72c.21-.29.31-.56.33-.81l.75,1.03c-.08.26-.21.54-.39.85-.19.3-.43.59-.73.86s-.65.5-1.07.67c-.41.17-.89.26-1.43.26-.68,0-1.28-.14-1.82-.41-.53-.27-.95-.64-1.25-1.11-.3-.46-.45-.99-.45-1.58,0-.55.1-1.04.31-1.47.21-.43.52-.78.92-1.07.41-.29.91-.51,1.5-.66s1.26-.23,2.02-.23h1.82ZM432.3,340.71v-4.96c0-.37-.07-.69-.2-.96-.13-.27-.34-.48-.61-.63s-.62-.22-1.02-.22c-.38,0-.71.07-.98.19-.27.13-.49.3-.64.52-.15.22-.23.46-.23.74h-2.31c0-.41.1-.81.3-1.19.2-.39.49-.73.87-1.03.38-.3.83-.54,1.36-.71s1.12-.26,1.77-.26c.78,0,1.48.13,2.08.39.61.26,1.08.66,1.43,1.19.35.53.52,1.19.52,1.99v4.63c0,.47.03.9.1,1.27.07.38.16.7.29.98v.15h-2.38c-.11-.25-.19-.57-.26-.96-.06-.39-.09-.76-.09-1.13Z" class="st0"/>
    <path d="M441.82,332.39v1.69h-5.87v-1.69h5.87ZM437.65,329.84h2.32v10.08c0,.32.05.57.14.73s.22.28.39.34c.17.06.36.09.59.09.16,0,.31-.01.46-.03.15-.02.27-.04.36-.06v1.77c-.18.06-.41.11-.66.15-.25.04-.54.07-.87.07-.53,0-1-.09-1.42-.28-.41-.19-.73-.5-.96-.93s-.35-1-.35-1.71v-10.22Z" class="st0"/>
    <path d="M443.61,329.66c0-.35.12-.65.35-.88.23-.23.56-.35.98-.35s.73.12.97.35c.24.23.35.53.35.88s-.12.64-.35.87c-.24.23-.56.35-.97.35s-.74-.12-.98-.35c-.23-.23-.35-.52-.35-.87ZM446.09,332.39v10.41h-2.33v-10.41h2.33Z" class="st0"/>
    <path d="M450.06,332.39l2.6,8.61.13,1.8h-1.5l-3.64-10.41h2.41ZM452.01,340.96l2.55-8.57h2.41l-3.62,10.41h-1.5l.16-1.84Z" class="st0"/>
    <path d="M462.86,342.99c-.77,0-1.46-.13-2.08-.38-.62-.25-1.14-.61-1.58-1.06-.43-.45-.77-.99-1-1.61-.23-.62-.35-1.28-.35-1.99v-.39c0-.81.12-1.55.35-2.21.24-.66.57-1.22.99-1.7s.92-.83,1.5-1.08,1.2-.38,1.88-.38c.74,0,1.39.13,1.95.38.56.25,1.02.6,1.39,1.05.37.45.65.99.83,1.61.18.62.27,1.31.27,2.06v.99h-8.04v-1.66h5.75v-.18c-.01-.42-.09-.81-.24-1.17-.15-.37-.38-.66-.69-.89-.31-.22-.72-.34-1.23-.34-.38,0-.73.08-1.02.24s-.55.4-.75.71c-.2.31-.35.68-.46,1.11-.11.43-.16.92-.16,1.46v.39c0,.46.06.88.19,1.26.13.39.31.73.55,1.01.24.29.54.52.89.68s.74.24,1.18.24c.56,0,1.06-.11,1.49-.34.44-.22.81-.54,1.14-.95l1.22,1.18c-.23.33-.52.64-.88.94-.36.3-.8.54-1.31.72-.52.19-1.11.28-1.79.28Z" class="st0"/>
    <path d="M481.31,339.19c0-.29-.04-.54-.13-.77-.09-.22-.24-.43-.46-.62-.22-.19-.52-.37-.92-.54s-.9-.36-1.5-.54c-.67-.2-1.28-.43-1.84-.69-.56-.25-1.05-.55-1.47-.88-.42-.34-.74-.72-.97-1.16-.23-.44-.35-.95-.35-1.52s.12-1.09.36-1.56c.24-.47.58-.87,1.03-1.22s.97-.61,1.58-.8c.61-.19,1.28-.28,2.02-.28,1.04,0,1.93.19,2.69.58.75.38,1.33.9,1.74,1.55.41.65.61,1.36.61,2.14h-2.39c0-.46-.1-.87-.29-1.23-.2-.35-.49-.64-.88-.84s-.89-.31-1.5-.31c-.57,0-1.05.09-1.42.26s-.66.41-.85.7c-.19.29-.28.63-.28,1,0,.26.06.5.18.72s.31.41.56.6.56.35.94.51c.38.16.82.32,1.34.46.78.23,1.45.48,2.03.76.58.28,1.06.59,1.44.95.38.35.67.75.87,1.2.19.45.29.95.29,1.51s-.12,1.12-.36,1.59c-.24.47-.58.87-1.01,1.2-.44.33-.96.58-1.58.76-.61.18-1.29.26-2.04.26-.67,0-1.34-.09-1.99-.27-.65-.18-1.24-.45-1.77-.82s-.96-.83-1.27-1.38-.47-1.2-.47-1.95h2.41c0,.46.08.84.23,1.16.16.32.38.58.66.78s.61.35.99.45.78.14,1.21.14c.56,0,1.04-.08,1.42-.24.38-.16.67-.39.86-.67.19-.29.29-.62.29-1Z" class="st0"/>
    <path d="M485.2,337.71v-.22c0-.75.11-1.45.33-2.09.22-.65.53-1.21.95-1.68.41-.48.92-.85,1.52-1.12.6-.27,1.28-.4,2.03-.4s1.44.13,2.04.4c.6.27,1.11.64,1.52,1.12s.73,1.04.95,1.68c.22.64.33,1.34.33,2.09v.22c0,.75-.11,1.44-.33,2.09-.22.64-.54,1.2-.95,1.68s-.92.85-1.52,1.12c-.6.27-1.27.4-2.03.4s-1.44-.13-2.04-.4c-.6-.27-1.11-.64-1.52-1.12-.42-.48-.73-1.04-.95-1.68-.22-.64-.33-1.34-.33-2.09ZM487.52,337.49v.22c0,.47.05.91.14,1.33s.25.78.45,1.1c.2.32.47.56.79.74.32.18.7.27,1.14.27s.8-.09,1.12-.27c.32-.18.58-.42.78-.74.21-.31.36-.68.46-1.1s.15-.86.15-1.33v-.22c0-.46-.05-.9-.15-1.31-.1-.41-.25-.78-.46-1.1-.21-.32-.47-.57-.79-.76-.32-.18-.69-.27-1.13-.27s-.81.09-1.13.27-.58.43-.78.76c-.21.32-.36.69-.45,1.1-.1.41-.14.85-.14,1.31Z" class="st0"/>
    <path d="M499.29,328.03v14.77h-2.33v-14.77h2.33Z" class="st0"/>
    <path d="M508.42,338.18l.78-.02c0,.7-.08,1.34-.23,1.93-.15.59-.39,1.1-.71,1.53-.32.43-.73.77-1.23,1.01-.5.24-1.1.36-1.8.36-.51,0-.97-.07-1.39-.22s-.79-.38-1.09-.68c-.3-.31-.54-.71-.71-1.2s-.25-1.08-.25-1.77v-6.72h2.32v6.74c0,.38.04.69.13.95.09.25.21.46.37.61s.33.26.54.33c.21.06.42.1.65.1.66,0,1.18-.13,1.56-.39.38-.26.65-.61.82-1.05.16-.44.24-.94.24-1.49ZM508.09,340.35v-7.95h2.33v10.41h-2.19l-.14-2.45Z" class="st0"/>
    <path d="M517.56,332.39v1.69h-5.87v-1.69h5.87ZM513.38,329.84h2.32v10.08c0,.32.05.57.14.73s.22.28.39.34c.17.06.36.09.59.09.16,0,.31-.01.46-.03.15-.02.27-.04.36-.06v1.77c-.18.06-.41.11-.66.15-.25.04-.54.07-.87.07-.53,0-1-.09-1.42-.28-.41-.19-.73-.5-.96-.93s-.35-1-.35-1.71v-10.22Z" class="st0"/>
    <path d="M519.35,329.66c0-.35.12-.65.35-.88.23-.23.56-.35.98-.35s.73.12.97.35c.24.23.35.53.35.88s-.12.64-.35.87c-.24.23-.56.35-.97.35s-.74-.12-.98-.35c-.23-.23-.35-.52-.35-.87ZM521.83,332.39v10.41h-2.33v-10.41h2.33Z" class="st0"/>
    <path d="M523.92,337.71v-.22c0-.75.11-1.45.33-2.09.22-.65.53-1.21.95-1.68.41-.48.92-.85,1.52-1.12.6-.27,1.28-.4,2.03-.4s1.44.13,2.04.4c.6.27,1.11.64,1.52,1.12s.73,1.04.95,1.68c.22.64.33,1.34.33,2.09v.22c0,.75-.11,1.44-.33,2.09-.22.64-.54,1.2-.95,1.68s-.92.85-1.52,1.12c-.6.27-1.27.4-2.03.4s-1.44-.13-2.04-.4c-.6-.27-1.11-.64-1.52-1.12-.42-.48-.73-1.04-.95-1.68-.22-.64-.33-1.34-.33-2.09ZM526.24,337.49v.22c0,.47.05.91.14,1.33s.25.78.45,1.1c.2.32.47.56.79.74.32.18.7.27,1.14.27s.8-.09,1.12-.27c.32-.18.58-.42.78-.74.21-.31.36-.68.46-1.1s.15-.86.15-1.33v-.22c0-.46-.05-.9-.15-1.31-.1-.41-.25-.78-.46-1.1-.21-.32-.47-.57-.79-.76-.32-.18-.69-.27-1.13-.27s-.81.09-1.13.27-.58.43-.78.76c-.21.32-.36.69-.45,1.1-.1.41-.14.85-.14,1.31Z" class="st0"/>
    <path d="M537.84,334.61v8.18h-2.32v-10.41h2.18l.14,2.22ZM537.42,337.21h-.75c0-.75.11-1.42.31-2.04.2-.62.48-1.14.85-1.59.36-.44.8-.78,1.3-1.02.51-.24,1.07-.36,1.69-.36.5,0,.95.07,1.36.21.41.14.76.36,1.05.67.29.31.52.71.67,1.2.15.49.23,1.09.23,1.8v6.72h-2.33v-6.73c0-.5-.07-.9-.22-1.19-.15-.29-.35-.5-.63-.62s-.61-.19-1.01-.19-.75.08-1.07.25c-.31.17-.58.39-.79.68-.21.29-.38.62-.5,1-.11.38-.17.78-.17,1.21Z" class="st0"/>
    <path d="M552.34,339.98c0-.23-.06-.44-.17-.63-.11-.19-.33-.36-.66-.52-.32-.15-.8-.29-1.43-.42-.55-.12-1.06-.27-1.51-.44-.46-.17-.85-.38-1.18-.62-.33-.24-.58-.53-.76-.87-.18-.33-.27-.72-.27-1.15s.09-.82.28-1.2c.19-.38.45-.71.8-1,.35-.29.77-.52,1.26-.68s1.05-.25,1.67-.25c.87,0,1.62.15,2.24.44.63.29,1.1.69,1.44,1.18.33.5.5,1.06.5,1.68h-2.32c0-.28-.07-.53-.21-.77-.14-.24-.34-.44-.62-.59s-.62-.23-1.04-.23-.73.06-.99.19c-.26.13-.45.29-.58.48s-.19.42-.19.65c0,.17.03.33.1.47.07.14.18.26.34.38.16.11.38.22.66.31.28.1.63.19,1.05.28.79.17,1.48.38,2.05.64.57.26,1.01.59,1.32,1,.31.41.46.92.46,1.54,0,.46-.1.88-.29,1.26-.2.38-.48.71-.85.99-.37.28-.82.5-1.33.65-.52.15-1.09.23-1.74.23-.94,0-1.74-.17-2.39-.5-.65-.34-1.15-.77-1.49-1.3-.34-.53-.5-1.08-.5-1.65h2.24c.03.43.15.77.36,1.02.22.25.48.44.81.55.32.11.66.17,1,.17.42,0,.77-.06,1.05-.17.28-.11.5-.27.64-.46.15-.2.22-.42.22-.67Z" class="st0"/>
    <path d="M566.81,332.39v1.69h-6.06v-1.69h6.06ZM564.67,342.8h-2.32v-11.4c0-.78.15-1.43.44-1.96.29-.53.71-.93,1.25-1.2s1.19-.41,1.93-.41c.23,0,.46.02.68.04.22.03.44.07.65.13l-.06,1.79c-.13-.03-.27-.05-.42-.07-.15-.01-.31-.02-.49-.02-.35,0-.65.07-.91.2-.25.13-.45.32-.58.57s-.2.56-.2.92v11.4Z" class="st0"/>
    <path d="M568.04,337.71v-.22c0-.75.11-1.45.33-2.09.22-.65.53-1.21.95-1.68.41-.48.92-.85,1.52-1.12.6-.27,1.28-.4,2.03-.4s1.44.13,2.04.4c.6.27,1.11.64,1.52,1.12s.73,1.04.95,1.68c.22.64.33,1.34.33,2.09v.22c0,.75-.11,1.44-.33,2.09-.22.64-.54,1.2-.95,1.68s-.92.85-1.52,1.12c-.6.27-1.27.4-2.03.4s-1.44-.13-2.04-.4c-.6-.27-1.11-.64-1.52-1.12-.42-.48-.73-1.04-.95-1.68-.22-.64-.33-1.34-.33-2.09ZM570.36,337.49v.22c0,.47.05.91.14,1.33s.25.78.45,1.1c.2.32.47.56.79.74.32.18.7.27,1.14.27s.8-.09,1.12-.27c.32-.18.58-.42.78-.74.21-.31.36-.68.46-1.1s.15-.86.15-1.33v-.22c0-.46-.05-.9-.15-1.31-.1-.41-.25-.78-.46-1.1-.21-.32-.47-.57-.79-.76-.32-.18-.69-.27-1.13-.27s-.81.09-1.13.27-.58.43-.78.76c-.21.32-.36.69-.45,1.1-.1.41-.14.85-.14,1.31Z" class="st0"/>
    <path d="M581.99,334.37v8.42h-2.32v-10.41h2.21l.1,1.98ZM585.17,332.32l-.02,2.15c-.14-.02-.29-.04-.46-.06-.16-.01-.33-.02-.49-.02-.4,0-.75.05-1.05.17-.3.11-.55.27-.75.48-.2.21-.36.46-.47.76-.11.29-.17.63-.19.99l-.53.04c0-.65.07-1.26.19-1.82.13-.56.32-1.05.58-1.47.26-.42.59-.75.98-.99.39-.24.85-.36,1.37-.36.14,0,.29.01.46.04.16.03.29.05.37.09Z" class="st0"/>
    <path d="M600.02,338.24h2.41c-.08.92-.33,1.73-.77,2.45-.44.71-1.05,1.28-1.84,1.69-.79.41-1.75.62-2.87.62-.87,0-1.64-.16-2.34-.47s-1.28-.75-1.78-1.33c-.49-.57-.87-1.27-1.13-2.08-.26-.81-.39-1.73-.39-2.73v-1.16c0-1.01.13-1.92.4-2.73.27-.82.65-1.51,1.15-2.09.5-.58,1.1-1.02,1.8-1.33.7-.31,1.49-.46,2.37-.46,1.12,0,2.06.21,2.83.62.77.41,1.37.98,1.79,1.7.42.72.69,1.55.78,2.49h-2.4c-.07-.6-.2-1.12-.42-1.55-.22-.43-.53-.76-.95-.99-.42-.23-.96-.34-1.64-.34-.55,0-1.03.1-1.44.31-.41.2-.75.51-1.03.9s-.48.89-.62,1.47c-.14.58-.21,1.24-.21,1.99v1.18c0,.71.06,1.34.19,1.92s.32,1.07.58,1.48c.26.41.59.73,1,.95.4.22.89.34,1.45.34.69,0,1.24-.11,1.67-.33s.75-.54.97-.96.37-.93.44-1.54Z" class="st0"/>
    <path d="M603.93,337.71v-.22c0-.75.11-1.45.33-2.09.22-.65.53-1.21.95-1.68.41-.48.92-.85,1.52-1.12.6-.27,1.28-.4,2.03-.4s1.44.13,2.04.4c.6.27,1.11.64,1.52,1.12s.73,1.04.95,1.68c.22.64.33,1.34.33,2.09v.22c0,.75-.11,1.44-.33,2.09-.22.64-.54,1.2-.95,1.68s-.92.85-1.52,1.12c-.6.27-1.27.4-2.03.4s-1.44-.13-2.04-.4c-.6-.27-1.11-.64-1.52-1.12-.42-.48-.73-1.04-.95-1.68-.22-.64-.33-1.34-.33-2.09ZM606.25,337.49v.22c0,.47.05.91.14,1.33s.25.78.45,1.1c.2.32.47.56.79.74.32.18.7.27,1.14.27s.8-.09,1.12-.27c.32-.18.58-.42.78-.74.21-.31.36-.68.46-1.1s.15-.86.15-1.33v-.22c0-.46-.05-.9-.15-1.31-.1-.41-.25-.78-.46-1.1-.21-.32-.47-.57-.79-.76-.32-.18-.69-.27-1.13-.27s-.81.09-1.13.27-.58.43-.78.76c-.21.32-.36.69-.45,1.1-.1.41-.14.85-.14,1.31Z" class="st0"/>
    <path d="M617.87,334.51v8.29h-2.32v-10.41h2.18l.14,2.12ZM617.49,337.21h-.79c0-.73.09-1.39.27-2,.18-.61.44-1.14.79-1.59s.78-.8,1.29-1.05,1.11-.37,1.79-.37c.47,0,.91.07,1.3.21.39.14.74.35,1.03.65s.52.67.67,1.13c.16.46.24,1.02.24,1.67v6.93h-2.32v-6.73c0-.51-.08-.9-.23-1.19-.15-.29-.36-.5-.64-.62s-.61-.19-1-.19c-.44,0-.81.08-1.11.25-.3.17-.55.39-.75.68-.19.29-.33.62-.42,1-.09.38-.14.78-.14,1.21ZM623.94,336.59l-1.09.24c0-.63.09-1.22.27-1.79.17-.56.44-1.05.78-1.48s.77-.76,1.27-1.01c.51-.24,1.09-.36,1.74-.36.53,0,1.01.07,1.43.22.42.15.78.37,1.07.68.3.31.52.71.67,1.2.15.49.23,1.08.23,1.77v6.73h-2.33v-6.74c0-.53-.08-.93-.23-1.22-.15-.29-.36-.49-.64-.6-.27-.11-.6-.17-.99-.17-.36,0-.67.07-.95.2-.27.13-.5.32-.69.55-.19.23-.33.5-.42.8s-.14.63-.14.98Z" class="st0"/>
    <path d="M635.02,334.51v8.29h-2.32v-10.41h2.18l.14,2.12ZM634.65,337.21h-.79c0-.73.09-1.39.27-2,.18-.61.44-1.14.79-1.59s.78-.8,1.29-1.05,1.11-.37,1.79-.37c.47,0,.91.07,1.3.21.39.14.74.35,1.03.65s.52.67.67,1.13c.16.46.24,1.02.24,1.67v6.93h-2.32v-6.73c0-.51-.08-.9-.23-1.19-.15-.29-.36-.5-.64-.62s-.61-.19-1-.19c-.44,0-.81.08-1.11.25-.3.17-.55.39-.75.68-.19.29-.33.62-.42,1-.09.38-.14.78-.14,1.21ZM641.1,336.59l-1.09.24c0-.63.09-1.22.27-1.79.17-.56.44-1.05.78-1.48s.77-.76,1.27-1.01c.51-.24,1.09-.36,1.74-.36.53,0,1.01.07,1.43.22.42.15.78.37,1.07.68.3.31.52.71.67,1.2.15.49.23,1.08.23,1.77v6.73h-2.33v-6.74c0-.53-.08-.93-.23-1.22-.15-.29-.36-.49-.64-.6-.27-.11-.6-.17-.99-.17-.36,0-.67.07-.95.2-.27.13-.5.32-.69.55-.19.23-.33.5-.42.8s-.14.63-.14.98Z" class="st0"/>
    <path d="M656.45,338.18l.78-.02c0,.7-.08,1.34-.23,1.93-.15.59-.39,1.1-.71,1.53-.32.43-.73.77-1.23,1.01-.5.24-1.1.36-1.8.36-.51,0-.97-.07-1.39-.22s-.79-.38-1.09-.68c-.3-.31-.54-.71-.71-1.2s-.25-1.08-.25-1.77v-6.72h2.32v6.74c0,.38.04.69.13.95.09.25.21.46.37.61s.33.26.54.33c.21.06.42.1.65.1.66,0,1.18-.13,1.56-.39.38-.26.65-.61.82-1.05.16-.44.24-.94.24-1.49ZM656.12,340.35v-7.95h2.33v10.41h-2.19l-.14-2.45Z" class="st0"/>
    <path d="M663.11,334.61v8.18h-2.32v-10.41h2.18l.14,2.22ZM662.7,337.21h-.75c0-.75.11-1.42.31-2.04.2-.62.48-1.14.85-1.59.36-.44.8-.78,1.3-1.02.51-.24,1.07-.36,1.69-.36.5,0,.95.07,1.36.21.41.14.76.36,1.05.67.29.31.52.71.67,1.2.15.49.23,1.09.23,1.8v6.72h-2.33v-6.73c0-.5-.07-.9-.22-1.19-.15-.29-.35-.5-.63-.62s-.61-.19-1.01-.19-.75.08-1.07.25c-.31.17-.58.39-.79.68-.21.29-.38.62-.5,1-.11.38-.17.78-.17,1.21Z" class="st0"/>
    <path d="M671.77,329.66c0-.35.12-.65.35-.88.23-.23.56-.35.98-.35s.73.12.97.35c.24.23.35.53.35.88s-.12.64-.35.87c-.24.23-.56.35-.97.35s-.74-.12-.98-.35c-.23-.23-.35-.52-.35-.87ZM674.26,332.39v10.41h-2.33v-10.41h2.33Z" class="st0"/>
    <path d="M681.04,341.14c.38,0,.72-.08,1.02-.23s.55-.36.74-.63c.19-.27.29-.58.31-.93h2.18c-.01.67-.21,1.29-.6,1.84-.39.55-.89.99-1.53,1.31-.63.32-1.34.48-2.11.48s-1.49-.14-2.08-.41c-.59-.27-1.08-.65-1.47-1.13-.39-.48-.69-1.03-.88-1.66s-.29-1.3-.29-2.02v-.34c0-.72.1-1.39.29-2.02.2-.63.49-1.19.88-1.67.39-.48.88-.86,1.47-1.13.59-.27,1.28-.41,2.07-.41.83,0,1.56.17,2.19.5.63.33,1.12.79,1.49,1.38.36.59.55,1.27.56,2.04h-2.18c-.02-.39-.11-.73-.28-1.04-.17-.31-.41-.56-.71-.75-.3-.19-.67-.28-1.09-.28-.47,0-.86.09-1.16.28-.31.19-.55.45-.72.77s-.3.69-.37,1.09-.11.82-.11,1.25v.34c0,.43.03.85.1,1.25.07.4.2.76.37,1.08.17.32.42.57.72.76.31.19.7.28,1.17.28Z" class="st0"/>
    <path d="M693.28,336.47l.02,1.43h-1.66c-.43,0-.81.04-1.14.12-.33.08-.6.2-.82.35s-.38.34-.49.56c-.11.22-.16.47-.16.74s.06.53.19.75c.13.23.32.41.56.53s.55.19.9.19c.47,0,.89-.1,1.25-.29s.64-.44.84-.72c.21-.29.31-.56.33-.81l.75,1.03c-.08.26-.21.54-.39.85-.19.3-.43.59-.73.86s-.65.5-1.07.67c-.41.17-.89.26-1.43.26-.68,0-1.28-.14-1.82-.41-.53-.27-.95-.64-1.25-1.11-.3-.46-.45-.99-.45-1.58,0-.55.1-1.04.31-1.47.21-.43.52-.78.92-1.07.41-.29.91-.51,1.5-.66s1.26-.23,2.02-.23h1.82ZM692.94,340.71v-4.96c0-.37-.07-.69-.2-.96-.13-.27-.34-.48-.61-.63s-.62-.22-1.02-.22c-.38,0-.71.07-.98.19-.27.13-.49.3-.64.52-.15.22-.23.46-.23.74h-2.31c0-.41.1-.81.3-1.19.2-.39.49-.73.87-1.03.38-.3.83-.54,1.36-.71s1.12-.26,1.77-.26c.78,0,1.48.13,2.08.39.61.26,1.08.66,1.43,1.19.35.53.52,1.19.52,1.99v4.63c0,.47.03.9.1,1.27.07.38.16.7.29.98v.15h-2.38c-.11-.25-.19-.57-.26-.96-.06-.39-.09-.76-.09-1.13Z" class="st0"/>
    <path d="M702.46,332.39v1.69h-5.87v-1.69h5.87ZM698.29,329.84h2.32v10.08c0,.32.05.57.14.73s.22.28.39.34c.17.06.36.09.59.09.16,0,.31-.01.46-.03.15-.02.27-.04.36-.06v1.77c-.18.06-.41.11-.66.15-.25.04-.54.07-.87.07-.53,0-1-.09-1.42-.28-.41-.19-.73-.5-.96-.93s-.35-1-.35-1.71v-10.22Z" class="st0"/>
    <path d="M704.25,329.66c0-.35.12-.65.35-.88.23-.23.56-.35.98-.35s.73.12.97.35c.24.23.35.53.35.88s-.12.64-.35.87c-.24.23-.56.35-.97.35s-.74-.12-.98-.35c-.23-.23-.35-.52-.35-.87ZM706.73,332.39v10.41h-2.33v-10.41h2.33Z" class="st0"/>
    <path d="M708.83,337.71v-.22c0-.75.11-1.45.33-2.09.22-.65.53-1.21.95-1.68.41-.48.92-.85,1.52-1.12.6-.27,1.28-.4,2.03-.4s1.44.13,2.04.4c.6.27,1.11.64,1.52,1.12s.73,1.04.95,1.68c.22.64.33,1.34.33,2.09v.22c0,.75-.11,1.44-.33,2.09-.22.64-.54,1.2-.95,1.68s-.92.85-1.52,1.12c-.6.27-1.27.4-2.03.4s-1.44-.13-2.04-.4c-.6-.27-1.11-.64-1.52-1.12-.42-.48-.73-1.04-.95-1.68-.22-.64-.33-1.34-.33-2.09ZM711.14,337.49v.22c0,.47.05.91.14,1.33s.25.78.45,1.1c.2.32.47.56.79.74.32.18.7.27,1.14.27s.8-.09,1.12-.27c.32-.18.58-.42.78-.74.21-.31.36-.68.46-1.1s.15-.86.15-1.33v-.22c0-.46-.05-.9-.15-1.31-.1-.41-.25-.78-.46-1.1-.21-.32-.47-.57-.79-.76-.32-.18-.69-.27-1.13-.27s-.81.09-1.13.27-.58.43-.78.76c-.21.32-.36.69-.45,1.1-.1.41-.14.85-.14,1.31Z" class="st0"/>
    <path d="M722.74,334.61v8.18h-2.32v-10.41h2.18l.14,2.22ZM722.33,337.21h-.75c0-.75.11-1.42.31-2.04.2-.62.48-1.14.85-1.59.36-.44.8-.78,1.3-1.02.51-.24,1.07-.36,1.69-.36.5,0,.95.07,1.36.21.41.14.76.36,1.05.67.29.31.52.71.67,1.2.15.49.23,1.09.23,1.8v6.72h-2.33v-6.73c0-.5-.07-.9-.22-1.19-.15-.29-.35-.5-.63-.62s-.61-.19-1.01-.19-.75.08-1.07.25c-.31.17-.58.39-.79.68-.21.29-.38.62-.5,1-.11.38-.17.78-.17,1.21Z" class="st0"/>
    <path d="M738.7,335.18l2.41-1.62c.4-.27.69-.53.87-.79.17-.26.26-.59.26-.98,0-.33-.13-.64-.38-.92s-.62-.42-1.09-.42c-.33,0-.6.08-.83.23s-.39.35-.51.6c-.11.25-.17.52-.17.82s.07.58.22.89.35.62.61.95c.26.33.54.68.87,1.06l6.62,7.81h-2.68l-5.4-6.36c-.47-.57-.88-1.08-1.24-1.55-.36-.47-.64-.93-.84-1.38s-.3-.9-.3-1.38c0-.73.15-1.36.45-1.88s.73-.93,1.28-1.22c.55-.29,1.2-.43,1.93-.43s1.33.14,1.84.43c.52.28.91.66,1.19,1.13s.42.98.42,1.54c0,.44-.08.85-.24,1.21-.16.36-.38.7-.66,1-.28.3-.61.59-.98.86l-2.93,2.13c-.34.28-.59.54-.75.79-.16.25-.27.49-.32.7-.05.21-.08.4-.08.56,0,.41.09.78.26,1.12.18.33.44.6.78.79.34.2.76.29,1.25.29.53,0,1.05-.12,1.55-.36.5-.24.95-.58,1.35-1.02s.71-.97.95-1.59c.23-.62.35-1.3.35-2.05h2c0,.68-.07,1.32-.2,1.93-.13.61-.34,1.17-.63,1.69-.28.52-.66.99-1.12,1.39-.04.04-.09.1-.15.17-.05.07-.11.12-.16.17-.55.51-1.17.88-1.85,1.13s-1.41.37-2.18.37c-.93,0-1.74-.17-2.41-.51-.68-.34-1.2-.81-1.57-1.4s-.55-1.28-.55-2.05c0-.57.12-1.07.36-1.51.24-.43.56-.84.98-1.21.41-.38.89-.75,1.44-1.13Z" class="st0"/>
    <path d="M763.75,328.8v1.92h-11.14v-1.92h11.14ZM759.36,328.8v14h-2.39v-14h2.39Z" class="st0"/>
    <path d="M769.04,342.99c-.77,0-1.46-.13-2.08-.38-.62-.25-1.14-.61-1.58-1.06-.43-.45-.77-.99-1-1.61-.23-.62-.35-1.28-.35-1.99v-.39c0-.81.12-1.55.35-2.21.24-.66.57-1.22.99-1.7s.92-.83,1.5-1.08,1.2-.38,1.88-.38c.74,0,1.39.13,1.95.38.56.25,1.02.6,1.39,1.05.37.45.65.99.83,1.61.18.62.27,1.31.27,2.06v.99h-8.04v-1.66h5.75v-.18c-.01-.42-.09-.81-.24-1.17-.15-.37-.38-.66-.69-.89-.31-.22-.72-.34-1.23-.34-.38,0-.73.08-1.02.24s-.55.4-.75.71c-.2.31-.35.68-.46,1.11-.11.43-.16.92-.16,1.46v.39c0,.46.06.88.19,1.26.13.39.31.73.55,1.01.24.29.54.52.89.68s.74.24,1.18.24c.56,0,1.06-.11,1.49-.34.44-.22.81-.54,1.14-.95l1.22,1.18c-.23.33-.52.64-.88.94-.36.3-.8.54-1.31.72-.52.19-1.11.28-1.79.28Z" class="st0"/>
    <path d="M779.26,341.14c.38,0,.72-.08,1.02-.23s.55-.36.74-.63c.19-.27.29-.58.31-.93h2.18c-.01.67-.21,1.29-.6,1.84-.39.55-.89.99-1.53,1.31-.63.32-1.34.48-2.11.48s-1.49-.14-2.08-.41c-.59-.27-1.08-.65-1.47-1.13-.39-.48-.69-1.03-.88-1.66s-.29-1.3-.29-2.02v-.34c0-.72.1-1.39.29-2.02.2-.63.49-1.19.88-1.67.39-.48.88-.86,1.47-1.13.59-.27,1.28-.41,2.07-.41.83,0,1.56.17,2.19.5.63.33,1.12.79,1.49,1.38.36.59.55,1.27.56,2.04h-2.18c-.02-.39-.11-.73-.28-1.04-.17-.31-.41-.56-.71-.75-.3-.19-.67-.28-1.09-.28-.47,0-.86.09-1.16.28-.31.19-.55.45-.72.77s-.3.69-.37,1.09-.11.82-.11,1.25v.34c0,.43.03.85.1,1.25.07.4.2.76.37,1.08.17.32.42.57.72.76.31.19.7.28,1.17.28Z" class="st0"/>
    <path d="M787.57,328.03v14.77h-2.31v-14.77h2.31ZM787.17,337.21h-.75c0-.73.11-1.39.3-2,.2-.61.47-1.14.83-1.59s.78-.8,1.28-1.05,1.06-.37,1.66-.37c.51,0,.98.07,1.39.21.41.14.77.37,1.07.68.3.31.53.72.69,1.21.16.5.23,1.1.23,1.81v6.68h-2.33v-6.7c0-.5-.07-.9-.22-1.19-.15-.29-.35-.51-.63-.64-.28-.13-.61-.2-1.01-.2-.42,0-.78.08-1.1.25s-.58.39-.79.68c-.21.29-.37.62-.48,1-.11.38-.16.78-.16,1.21Z" class="st0"/>
    <path d="M798.53,334.61v8.18h-2.32v-10.41h2.18l.14,2.22ZM798.11,337.21h-.75c0-.75.11-1.42.31-2.04.2-.62.48-1.14.85-1.59.36-.44.8-.78,1.3-1.02.51-.24,1.07-.36,1.69-.36.5,0,.95.07,1.36.21.41.14.76.36,1.05.67.29.31.52.71.67,1.2.15.49.23,1.09.23,1.8v6.72h-2.33v-6.73c0-.5-.07-.9-.22-1.19-.15-.29-.35-.5-.63-.62s-.61-.19-1.01-.19-.75.08-1.07.25c-.31.17-.58.39-.79.68-.21.29-.38.62-.5,1-.11.38-.17.78-.17,1.21Z" class="st0"/>
    <path d="M806.75,337.71v-.22c0-.75.11-1.45.33-2.09.22-.65.53-1.21.95-1.68.41-.48.92-.85,1.52-1.12.6-.27,1.28-.4,2.03-.4s1.44.13,2.04.4c.6.27,1.11.64,1.52,1.12s.73,1.04.95,1.68c.22.64.33,1.34.33,2.09v.22c0,.75-.11,1.44-.33,2.09-.22.64-.54,1.2-.95,1.68s-.92.85-1.52,1.12c-.6.27-1.27.4-2.03.4s-1.44-.13-2.04-.4c-.6-.27-1.11-.64-1.52-1.12-.42-.48-.73-1.04-.95-1.68-.22-.64-.33-1.34-.33-2.09ZM809.07,337.49v.22c0,.47.05.91.14,1.33s.25.78.45,1.1c.2.32.47.56.79.74.32.18.7.27,1.14.27s.8-.09,1.12-.27c.32-.18.58-.42.78-.74.21-.31.36-.68.46-1.1s.15-.86.15-1.33v-.22c0-.46-.05-.9-.15-1.31-.1-.41-.25-.78-.46-1.1-.21-.32-.47-.57-.79-.76-.32-.18-.69-.27-1.13-.27s-.81.09-1.13.27-.58.43-.78.76c-.21.32-.36.69-.45,1.1-.1.41-.14.85-.14,1.31Z" class="st0"/>
    <path d="M820.85,328.03v14.77h-2.33v-14.77h2.33Z" class="st0"/>
    <path d="M822.94,337.71v-.22c0-.75.11-1.45.33-2.09.22-.65.53-1.21.95-1.68.41-.48.92-.85,1.52-1.12.6-.27,1.28-.4,2.03-.4s1.44.13,2.04.4c.6.27,1.11.64,1.52,1.12s.73,1.04.95,1.68c.22.64.33,1.34.33,2.09v.22c0,.75-.11,1.44-.33,2.09-.22.64-.54,1.2-.95,1.68s-.92.85-1.52,1.12c-.6.27-1.27.4-2.03.4s-1.44-.13-2.04-.4c-.6-.27-1.11-.64-1.52-1.12-.42-.48-.73-1.04-.95-1.68-.22-.64-.33-1.34-.33-2.09ZM825.26,337.49v.22c0,.47.05.91.14,1.33s.25.78.45,1.1c.2.32.47.56.79.74.32.18.7.27,1.14.27s.8-.09,1.12-.27c.32-.18.58-.42.78-.74.21-.31.36-.68.46-1.1s.15-.86.15-1.33v-.22c0-.46-.05-.9-.15-1.31-.1-.41-.25-.78-.46-1.1-.21-.32-.47-.57-.79-.76-.32-.18-.69-.27-1.13-.27s-.81.09-1.13.27-.58.43-.78.76c-.21.32-.36.69-.45,1.1-.1.41-.14.85-.14,1.31Z" class="st0"/>
    <path d="M834.16,337.71v-.2c0-.79.1-1.51.29-2.16.19-.65.47-1.21.83-1.68.36-.47.79-.83,1.31-1.09.51-.25,1.09-.38,1.74-.38s1.25.12,1.73.36c.48.24.88.59,1.2,1.04.32.45.57.99.76,1.62.18.62.32,1.32.41,2.08v.64c-.08.74-.23,1.42-.42,2.04-.2.62-.46,1.15-.79,1.6s-.73.79-1.21,1.04c-.48.24-1.04.36-1.69.36s-1.21-.13-1.72-.39c-.51-.26-.95-.63-1.31-1.1-.36-.47-.64-1.03-.83-1.68-.19-.64-.29-1.34-.29-2.1ZM841.22,332.39h2.11v10.12c0,.94-.2,1.73-.6,2.38-.4.65-.95,1.15-1.66,1.5-.71.34-1.53.51-2.47.51-.4,0-.84-.06-1.32-.17-.48-.12-.95-.3-1.4-.55s-.83-.58-1.13-1l1.09-1.37c.37.44.78.77,1.23.97.45.21.92.31,1.41.31.53,0,.99-.1,1.36-.29s.66-.48.87-.86.31-.84.31-1.38v-7.81l.21-2.36ZM836.47,337.51v.2c0,.47.05.92.14,1.33.09.41.24.77.43,1.08.2.31.45.55.75.73s.66.27,1.08.27c.54,0,.99-.12,1.34-.35.35-.23.62-.54.81-.94s.32-.83.4-1.32v-1.74c-.04-.38-.12-.73-.24-1.06-.12-.33-.28-.61-.47-.86s-.45-.44-.75-.58c-.3-.14-.66-.21-1.07-.21s-.78.09-1.09.27c-.31.18-.56.43-.75.74-.2.31-.34.68-.44,1.09-.1.42-.14.86-.14,1.34Z" class="st0"/>
    <path d="M847.15,332.39l2.47,7.79.41,2.44-1.61.41-3.78-10.65h2.5ZM848.75,341.66l2.83-9.27h2.48l-4.17,11.99c-.1.26-.22.54-.38.84-.15.3-.35.59-.6.86s-.55.49-.92.66-.81.26-1.33.26c-.21,0-.4-.02-.59-.05-.19-.03-.37-.07-.53-.11v-1.77c.05,0,.13.01.23.02.09,0,.17.01.23.01.38,0,.7-.05.96-.14s.47-.24.63-.45c.16-.21.3-.48.42-.83l.75-2.02Z" class="st0"/>
  </g>
  <g>
    <path d="M298.12,371.76c.21-.21.31-.58.31-1.12v-6.82c0-.18.09-.27.27-.27h2.49c.18,0,.27.09.27.27v7.55c0,1.17-.24,2.03-.73,2.58-.49.55-1.32.83-2.49.83h-13.5c-1.14,0-1.95-.28-2.43-.83s-.73-1.42-.73-2.6v-5.81c0-.18.09-.27.27-.27h2.49c.18,0,.27.09.27.27v5.11c0,.54.1.92.31,1.12.21.21.54.31.99.31h11.2c.47,0,.81-.1,1.01-.31ZM288.72,362.44c-.18,0-.27-.09-.27-.27v-2.35c0-.18.09-.27.27-.27h2.27c.18,0,.27.09.27.27v2.35c0,.18-.09.27-.27.27h-2.27ZM292.24,362.44c-.18,0-.27-.09-.27-.27v-2.35c0-.18.09-.27.27-.27h2.27c.18,0,.27.09.27.27v2.35c0,.18-.09.27-.27.27h-2.27Z" class="st0"/>
    <path d="M304.6,356.65c0-.18.09-.27.27-.27h2.49c.18,0,.27.09.27.27v13.99c0,.54.1.91.31,1.12s.54.31.99.31h.95c.36,0,.63.1.81.32.18.21.27.57.27,1.08,0,.56-.09.92-.26,1.08-.17.15-.45.23-.82.23h-2.14c-1.13,0-1.93-.27-2.41-.83-.48-.55-.72-1.41-.72-2.58v-14.71Z" class="st0"/>
    <path d="M318.2,374.96c-.9,0-1.72-.12-2.44-.37-.72-.24-1.33-.65-1.82-1.21-.18.29-.4.53-.65.71-.26.18-.52.32-.79.42-.27.1-.55.17-.84.21s-.56.05-.81.05h-.95c-.36,0-.63-.1-.81-.31-.18-.21-.27-.56-.27-1.05,0-.53.09-.88.26-1.07.17-.18.45-.27.83-.27h1.06c.2,0,.4-.04.59-.12.2-.08.38-.21.54-.4.16-.19.3-.44.41-.75.11-.32.16-.71.16-1.17-.02-.14-.03-.28-.03-.4v-.4c.02-1.04.17-1.93.45-2.66.28-.73.67-1.32,1.16-1.78.5-.46,1.08-.79,1.75-1s1.4-.31,2.2-.31,1.54.11,2.22.32c.69.22,1.28.56,1.77,1.03.5.47.89,1.09,1.17,1.87.28.77.42,1.71.42,2.81s-.14,1.96-.41,2.7c-.27.74-.65,1.34-1.14,1.81-.49.47-1.07.81-1.76,1.03s-1.44.33-2.28.33ZM318.19,365.77c-.86,0-1.5.28-1.91.83s-.62,1.37-.62,2.42c0,1.15.21,1.98.62,2.48.41.5,1.05.75,1.91.75s1.52-.26,1.94-.77c.41-.51.62-1.33.62-2.47,0-2.17-.85-3.26-2.56-3.26Z" class="st0"/>
    <path d="M328.94,380.23c-.18,0-.27-.09-.27-.27v-2.16c0-.18.09-.27.27-.27h3.16c.41,0,.78-.04,1.08-.12.31-.08.56-.22.76-.42.2-.2.35-.48.46-.84.11-.36.16-.82.16-1.38h-2.73c-.85,0-1.6-.09-2.26-.28-.66-.19-1.21-.5-1.66-.95s-.8-1.01-1.04-1.72c-.24-.7-.37-1.57-.37-2.6,0-1.1.15-2.04.46-2.82.31-.78.71-1.43,1.22-1.92.51-.5,1.09-.86,1.76-1.08.67-.22,1.37-.34,2.12-.34.81,0,1.56.11,2.24.32.68.22,1.26.56,1.75,1.02s.87,1.08,1.14,1.83c.27.76.41,1.68.41,2.78v3.05h1.87c.36,0,.63.1.81.3s.27.54.27,1.01c0,.58-.09.96-.26,1.13s-.45.26-.82.26h-1.87v.59c0,1.7-.43,2.93-1.28,3.71-.86.78-2.1,1.16-3.72,1.16h-3.65ZM332.08,365.77c-.81,0-1.45.3-1.91.91-.46.61-.69,1.43-.69,2.45,0,1.13.23,1.9.69,2.32.46.41,1.12.62,1.99.62h2.41v-3.07c0-1.06-.2-1.86-.59-2.41-.4-.55-1.03-.82-1.89-.82Z" class="st0"/>
    <path d="M340.76,372.07c.45,0,.78-.1.99-.31s.31-.58.31-1.12v-13.99c0-.18.09-.27.27-.27h2.49c.18,0,.27.09.27.27v13.74c0,.54.2.95.61,1.24s.95.43,1.64.43h.46c.36,0,.63.1.81.3s.27.54.27,1.01c0,.53-.09.89-.26,1.09s-.45.3-.83.3c-.7,0-1.32-.09-1.84-.26-.52-.17-.94-.55-1.24-1.13-.25.51-.61.87-1.09,1.08-.47.21-1.11.31-1.92.31h-2.27c-.36,0-.63-.09-.81-.26-.18-.17-.27-.55-.27-1.13,0-.49.09-.83.26-1.02.17-.19.45-.29.83-.29h1.33Z" class="st0"/>
    <path d="M355.39,363.06c2.07,0,3.59.39,4.54,1.16s1.43,1.79,1.43,3.05c0,.54-.09,1.05-.26,1.52s-.39.92-.66,1.32-.58.77-.92,1.09-.68.59-1,.81c.14.04.3.05.47.05h3.94c.41,0,.69.11.84.33.14.22.22.58.22,1.09s-.09.85-.26,1.02-.44.26-.8.26h-4.03c-.65,0-1.27-.06-1.85-.18-.59-.12-1.14-.34-1.66-.66-.6.32-1.23.54-1.89.66-.67.12-1.26.18-1.79.18h-3.89c-.34,0-.6-.09-.78-.27-.18-.18-.27-.52-.27-1.01s.06-.83.18-1.07.41-.36.88-.36h3.16c.29,0,.61-.01.97-.04.36-.03.78-.09,1.27-.2-.15-.59-.34-1.11-.58-1.54-.24-.43-.52-.81-.82-1.15-.31-.33-.64-.63-.99-.89-.35-.26-.71-.52-1.07-.77-.2-.14-.31-.27-.34-.39-.03-.12-.04-.25-.04-.39v-1.7c0-.2.17-.41.51-.65.34-.23.79-.44,1.35-.63.56-.19,1.2-.34,1.92-.47.72-.13,1.46-.19,2.22-.19ZM355.8,371.23c.29-.18.58-.4.88-.65.3-.25.56-.53.78-.83.23-.3.41-.62.56-.96s.22-.69.22-1.06c0-.74-.27-1.25-.8-1.54-.53-.29-1.21-.43-2.04-.43-.72,0-1.35.07-1.88.22-.53.14-.9.27-1.09.38.83.52,1.54,1.2,2.12,2.04s1.01,1.78,1.26,2.83Z" class="st0"/>
    <path d="M365.67,368.8c.02-1.04.17-1.93.45-2.66.28-.73.67-1.32,1.16-1.78.5-.46,1.08-.79,1.75-1s1.4-.31,2.2-.31,1.54.11,2.22.32,1.28.56,1.77,1.02.89,1.09,1.17,1.86c.28.77.42,1.71.42,2.8v.47c0,.15,0,.3-.03.45.02.76.19,1.29.53,1.61.33.31.72.47,1.15.47h.78c.36,0,.63.1.81.3.18.2.27.54.27,1.01,0,.53-.09.89-.26,1.09-.17.2-.45.3-.83.3-.31,0-.63,0-.96-.03-.33-.02-.67-.08-1-.18-.33-.1-.65-.24-.95-.44-.3-.19-.57-.46-.81-.81-.49.58-1.09,1-1.83,1.26-.73.26-1.56.38-2.48.38s-1.71-.12-2.43-.37c-.72-.24-1.33-.65-1.81-1.21-.18.29-.4.53-.65.71-.26.18-.52.32-.79.42-.27.1-.55.17-.84.21s-.56.05-.81.05h-.95c-.36,0-.63-.1-.81-.31-.18-.21-.27-.56-.27-1.05,0-.53.09-.88.26-1.07.17-.18.45-.27.83-.27h1.06c.43,0,.82-.17,1.16-.53.34-.35.52-.99.54-1.93-.02-.14-.03-.28-.03-.4v-.4ZM371.23,365.77c-.86,0-1.5.28-1.91.83s-.62,1.37-.62,2.42c0,1.15.21,1.98.62,2.48.41.5,1.05.75,1.91.75s1.52-.26,1.94-.77c.41-.51.62-1.33.62-2.47,0-2.17-.85-3.26-2.56-3.26Z" class="st0"/>
    <path d="M379.2,374.77c-.36,0-.63-.09-.81-.26-.18-.17-.27-.52-.27-1.05s.09-.87.26-1.08c.17-.21.45-.32.83-.32h1.33c.45,0,.78-.1.99-.31s.31-.58.31-1.12v-13.99c0-.18.09-.27.27-.27h2.49c.18,0,.27.09.27.27v14.71c0,1.17-.24,2.03-.72,2.58-.48.55-1.29.83-2.41.83h-2.51Z" class="st0"/>
    <path d="M391.42,374.5c0,.18-.09.27-.27.27h-2.49c-.18,0-.27-.09-.27-.27v-17.85c0-.18.09-.27.27-.27h2.49c.18,0,.27.09.27.27v17.85Z" class="st0"/>
    <path d="M408.68,363.06v-1.16c0-.18.09-.27.27-.27h2.49c.18,0,.27.09.27.27v8.74c0,.54.1.91.31,1.12.21.21.54.31.99.31h1.03c.72,0,1.08.46,1.08,1.37,0,.55-.09.91-.26,1.08s-.45.26-.82.26h-2.19c-.88,0-1.57-.15-2.07-.46s-.82-.86-.99-1.64c-.38.33-.83.58-1.35.75-.52.16-1.07.25-1.65.25-.7,0-1.37-.1-1.99-.3s-1.16-.51-1.62-.92c-.46-.41-.83-.94-1.1-1.58-.27-.64-.4-1.41-.4-2.31,0-1.05.15-1.92.45-2.62.3-.7.69-1.27,1.19-1.69.5-.42,1.06-.73,1.69-.91.63-.18,1.29-.27,1.98-.27h2.71ZM403.51,359.76c-.18,0-.27-.09-.27-.27v-2.35c0-.18.09-.27.27-.27h2.27c.18,0,.27.09.27.27v2.35c0,.18-.09.27-.27.27h-2.27ZM406.13,370.96c.87,0,1.5-.25,1.92-.74.41-.49.62-1.21.62-2.17v-2.29h-2.41c-.78,0-1.4.2-1.87.59-.47.4-.7,1.12-.7,2.18,0,.83.22,1.44.65,1.83.43.39,1.03.59,1.79.59ZM407.03,359.76c-.18,0-.27-.09-.27-.27v-2.35c0-.18.09-.27.27-.27h2.27c.18,0,.27.09.27.27v2.35c0,.18-.09.27-.27.27h-2.27Z" class="st0"/>
    <path d="M420.2,373.38c-.25.53-.63.89-1.14,1.09s-1.19.3-2.06.3h-2.51c-.36,0-.63-.09-.81-.26-.18-.17-.27-.52-.27-1.02s.09-.9.26-1.11c.17-.21.45-.32.83-.32h1.76c.33,0,.57-.05.74-.15.17-.1.3-.25.38-.46.08-.21.13-.48.15-.81.02-.33.03-.74.03-1.23v-5.61c0-.11.05-.18.15-.21s.2-.05.31-.05h2.31c.18,0,.27.09.27.27v6.58c0,.54.2.95.61,1.24.41.29.95.43,1.64.43h.46c.36,0,.63.1.81.3.18.2.27.54.27,1.01,0,.53-.09.89-.26,1.09-.17.2-.45.3-.83.3-.7,0-1.32-.09-1.84-.26-.52-.17-.94-.55-1.24-1.13ZM416.01,379.96c-.18,0-.27-.09-.27-.27v-2.35c0-.18.09-.27.27-.27h2.27c.18,0,.27.09.27.27v2.35c0,.18-.09.27-.27.27h-2.27ZM419.52,379.96c-.18,0-.27-.09-.27-.27v-2.35c0-.18.09-.27.27-.27h2.27c.18,0,.27.09.27.27v2.35c0,.18-.09.27-.27.27h-2.27Z" class="st0"/>
    <path d="M429.1,370.4c0,.54.2.95.61,1.24.41.29.95.43,1.64.43h.46c.36,0,.63.1.81.3s.27.54.27,1.01c0,.53-.09.89-.26,1.09s-.45.3-.83.3c-.7,0-1.32-.09-1.84-.26-.52-.17-.94-.55-1.24-1.13-.25.53-.62.89-1.11,1.09s-1.17.3-2.03.3h-2.14c-.36,0-.63-.06-.81-.18-.18-.12-.27-.38-.27-.78,0-.46.09-.86.26-1.22.17-.35.46-.53.85-.53h1.3c.3,0,.55-.04.73-.13.18-.09.31-.23.39-.43.08-.2.13-.46.15-.78.02-.32.03-.72.03-1.19v-5.72c0-.18.09-.27.27-.27h2.49c.18,0,.27.09.27.27v6.58ZM426.31,360.84c-.18,0-.27-.09-.27-.27v-2.35c0-.18.09-.27.27-.27h2.6c.18,0,.27.09.27.27v2.35c0,.18-.09.27-.27.27h-2.6Z" class="st0"/>
    <path d="M438.97,363.06c1.84,0,3.24.44,4.22,1.31.97.87,1.46,2.04,1.46,3.49,0,.88-.2,1.69-.61,2.41s-.95,1.32-1.64,1.79h3.84c.36,0,.63.09.81.26.18.17.27.51.27,1.02s-.09.9-.26,1.11c-.17.21-.45.31-.82.31h-3.76c-.65,0-1.26-.03-1.84-.08-.58-.05-1.13-.24-1.65-.57-.6.33-1.23.51-1.91.57-.68.05-1.28.08-1.8.08h-3.6c-.36,0-.63-.11-.81-.33-.18-.22-.27-.57-.27-1.07,0-.53.09-.88.26-1.05.17-.17.45-.26.83-.26h3.81c-.67-.47-1.2-1.06-1.61-1.79s-.61-1.53-.61-2.41c0-1.46.49-2.62,1.46-3.49s2.38-1.31,4.22-1.31ZM436.18,360.84c-.18,0-.27-.09-.27-.27v-2.35c0-.18.09-.27.27-.27h2.27c.18,0,.27.09.27.27v2.35c0,.18-.09.27-.27.27h-2.27ZM438.97,365.47c-.7,0-1.31.22-1.83.66s-.77,1.09-.77,1.96c0,.92.25,1.66.76,2.23.51.57,1.12,1.01,1.84,1.31.7-.31,1.31-.75,1.81-1.31.5-.57.76-1.31.76-2.23,0-.87-.25-1.52-.76-1.96-.51-.44-1.11-.66-1.81-.66ZM439.7,360.84c-.18,0-.27-.09-.27-.27v-2.35c0-.18.09-.27.27-.27h2.27c.18,0,.27.09.27.27v2.35c0,.18-.09.27-.27.27h-2.27Z" class="st0"/>
    <path d="M446.24,374.77c-.36,0-.63-.09-.81-.26-.18-.17-.27-.51-.27-1,0-.53.09-.9.26-1.12.17-.22.45-.33.83-.33h1.76c.45,0,.78-.1.99-.31.21-.21.31-.58.31-1.12v-6.82c0-.18.09-.27.27-.27h2.49c.18,0,.27.09.27.27v7.55c0,1.17-.24,2.03-.72,2.58-.48.55-1.29.83-2.41.83h-2.95ZM447.92,360.84c-.18,0-.27-.09-.27-.27v-2.35c0-.18.09-.27.27-.27h2.27c.18,0,.27.09.27.27v2.35c0,.18-.09.27-.27.27h-2.27ZM451.44,360.84c-.18,0-.27-.09-.27-.27v-2.35c0-.18.09-.27.27-.27h2.27c.18,0,.27.09.27.27v2.35c0,.18-.09.27-.27.27h-2.27Z" class="st0"/>
    <path d="M460.96,374.77c-.85,0-1.6-.09-2.26-.28-.66-.19-1.21-.5-1.66-.95s-.8-1.01-1.04-1.72c-.24-.7-.37-1.57-.37-2.6,0-1.1.15-2.04.45-2.82.3-.78.71-1.43,1.22-1.92.51-.5,1.11-.86,1.77-1.08.67-.22,1.37-.34,2.12-.34.81,0,1.56.11,2.24.32.68.22,1.26.56,1.75,1.03.49.47.87,1.08,1.14,1.84.27.76.41,1.69.41,2.79v6.33c0,1.7-.43,2.93-1.28,3.71-.86.78-2.1,1.16-3.72,1.16h-3.65c-.18,0-.27-.09-.27-.27v-2.16c0-.18.09-.27.27-.27h3.16c.36,0,.7-.03,1-.09.3-.06.57-.19.78-.39.22-.2.38-.48.5-.84.12-.36.17-.84.17-1.43h-2.73ZM461.2,365.77c-.83,0-1.47.3-1.92.91s-.68,1.43-.68,2.45c0,1.13.23,1.9.69,2.32.46.41,1.12.62,1.99.62h2.41v-3.07c0-1.06-.2-1.86-.59-2.41-.4-.55-1.03-.82-1.89-.82Z" class="st0"/>
    <path d="M492.72,371.76c.21-.21.31-.58.31-1.12v-6.82c0-.18.09-.27.27-.27h2.49c.18,0,.27.09.27.27v7.55c0,1.17-.24,2.03-.73,2.58-.49.55-1.32.83-2.49.83h-13.5c-1.14,0-1.95-.28-2.43-.83s-.73-1.42-.73-2.6v-5.81c0-.18.09-.27.27-.27h2.49c.18,0,.27.09.27.27v5.11c0,.54.1.92.31,1.12.21.21.54.31.99.31h11.2c.47,0,.81-.1,1.01-.31ZM483.33,362.44c-.18,0-.27-.09-.27-.27v-2.35c0-.18.09-.27.27-.27h2.27c.18,0,.27.09.27.27v2.35c0,.18-.09.27-.27.27h-2.27ZM486.84,362.44c-.18,0-.27-.09-.27-.27v-2.35c0-.18.09-.27.27-.27h2.27c.18,0,.27.09.27.27v2.35c0,.18-.09.27-.27.27h-2.27Z" class="st0"/>
    <path d="M506.51,372.07h2.83c.45,0,.78-.1.99-.31s.31-.58.31-1.12v-13.99c0-.18.09-.27.27-.27h2.49c.18,0,.27.09.27.27v14.71c0,1.17-.24,2.03-.72,2.58-.48.55-1.29.83-2.41.83h-11.87c-.18,0-.27-.09-.27-.27v-2.16c0-.18.09-.27.27-.27h4.82v-11.63c0-.18.09-.27.27-.27h2.49c.18,0,.27.09.27.27v11.63Z" class="st0"/>
    <path d="M517.21,356.65c0-.18.09-.27.27-.27h2.49c.18,0,.27.09.27.27v13.99c0,.54.1.91.31,1.12s.54.31.99.31h.95c.36,0,.63.1.81.32.18.21.27.57.27,1.08,0,.56-.09.92-.26,1.08-.17.15-.45.23-.82.23h-2.14c-1.13,0-1.93-.27-2.41-.83-.48-.55-.72-1.41-.72-2.58v-14.71Z" class="st0"/>
    <path d="M528.14,364.57c.85-.41,1.79-.77,2.82-1.07,1.03-.3,2.1-.45,3.2-.45,1.18,0,2.18.15,3.02.46.84.3,1.53.74,2.06,1.29.53.56.92,1.24,1.16,2.04s.37,1.68.37,2.66c0,.18,0,.35-.01.5-.01.15-.01.28-.01.39.02.54.22.95.62,1.24.4.29.94.43,1.62.43h.46c.36,0,.63.1.81.3.18.2.27.54.27,1.01,0,.53-.09.89-.26,1.09s-.45.3-.82.3c-.78,0-1.46-.11-2.04-.34s-1.02-.69-1.31-1.38c-.38.73-.93,1.2-1.66,1.41-.73.21-1.69.31-2.88.31h-5.33c-.29,0-.59,0-.89-.01-.31,0-.6-.03-.89-.07-.29-.04-.57-.08-.83-.14-.26-.05-.48-.14-.66-.24-.29.2-.61.32-.96.38-.35.05-.76.08-1.23.08h-2.24c-.36,0-.63-.09-.81-.26-.18-.17-.27-.52-.27-1.02,0-.58.09-.97.26-1.15.17-.18.45-.27.83-.27h1.24c.34,0,.6-.07.78-.22.18-.14.31-.34.39-.61.08-.26.13-.56.15-.9.02-.34.03-.7.03-1.08v-5.55c0-.18.09-.27.27-.27h2.49c.18,0,.27.09.27.27v.87ZM533.73,365.77c-1.01,0-2.01.15-2.98.46s-1.85.64-2.6,1v3.66c0,.21-.01.42-.03.62-.02.2-.04.39-.08.57h5.88c.78,0,1.41-.01,1.89-.04s.85-.13,1.11-.3.44-.44.53-.81c.09-.37.14-.88.14-1.55,0-.57-.06-1.09-.18-1.53s-.33-.83-.62-1.13-.69-.54-1.18-.7-1.11-.24-1.87-.24Z" class="st0"/>
    <path d="M543.45,374.77c-.36,0-.63-.09-.81-.26-.18-.17-.27-.51-.27-1,0-.53.09-.9.26-1.12.17-.22.45-.33.83-.33h1.76c.45,0,.78-.1.99-.31.21-.21.31-.58.31-1.12v-6.82c0-.18.09-.27.27-.27h2.49c.18,0,.27.09.27.27v7.55c0,1.17-.24,2.03-.72,2.58-.48.55-1.29.83-2.41.83h-2.95ZM545.13,360.84c-.18,0-.27-.09-.27-.27v-2.35c0-.18.09-.27.27-.27h2.27c.18,0,.27.09.27.27v2.35c0,.18-.09.27-.27.27h-2.27ZM548.64,360.84c-.18,0-.27-.09-.27-.27v-2.35c0-.18.09-.27.27-.27h2.27c.18,0,.27.09.27.27v2.35c0,.18-.09.27-.27.27h-2.27Z" class="st0"/>
    <path d="M564.68,356.65c0-.18.09-.27.27-.27h2.49c.18,0,.27.09.27.27v14.01c.16.94.9,1.4,2.22,1.4h.46c.36,0,.63.1.81.3s.27.54.27,1.01c0,.53-.09.89-.26,1.09s-.45.3-.82.3c-.69,0-1.28-.08-1.8-.25-.51-.16-.93-.54-1.25-1.12-.25.51-.63.87-1.12,1.07s-1.16.3-1.98.3h-11.53c-.18,0-.27-.09-.27-.27v-2.16c0-.18.09-.27.27-.27h4.82v-11.63c0-.18.09-.27.27-.27h2.49c.18,0,.27.09.27.27v11.63h2.83c.31,0,.55-.04.72-.12.17-.08.3-.22.39-.4s.15-.44.16-.76c.02-.32.03-.7.03-1.15v-12.99Z" class="st0"/>
    <path d="M570.42,374.77c-.36,0-.63-.09-.81-.26-.18-.17-.27-.52-.27-1.05s.09-.87.26-1.08c.17-.21.45-.32.83-.32h1.33c.45,0,.78-.1.99-.31s.31-.58.31-1.12v-13.99c0-.18.09-.27.27-.27h2.49c.18,0,.27.09.27.27v14.71c0,1.17-.24,2.03-.72,2.58-.48.55-1.29.83-2.41.83h-2.51Z" class="st0"/>
    <path d="M587.27,363.82c0-.18.09-.27.27-.27h2.49c.18,0,.27.09.27.27v6.58c0,.54.2.95.61,1.24.41.29.95.43,1.64.43h.46c.36,0,.63.1.81.3s.27.54.27,1.01c0,.53-.09.89-.26,1.09s-.45.3-.83.3c-.61,0-1.14-.05-1.58-.16-.44-.11-.82-.35-1.12-.74v.51c0,.97-.08,1.83-.24,2.56-.16.73-.42,1.34-.79,1.83-.37.49-.85.85-1.46,1.1-.61.24-1.36.36-2.26.36h-1c-.18,0-.27-.09-.27-.27v-2.16c0-.18.09-.27.27-.27h.59c.52,0,.93-.09,1.22-.27.29-.18.5-.45.64-.8.14-.35.22-.78.24-1.27.03-.5.04-1.07.04-1.72v-9.66ZM587.51,360.84c-.18,0-.27-.09-.27-.27v-2.35c0-.18.09-.27.27-.27h2.6c.18,0,.27.09.27.27v2.35c0,.18-.09.27-.27.27h-2.6Z" class="st0"/>
    <path d="M598.87,373.38c-.25.53-.63.89-1.14,1.09s-1.19.3-2.06.3h-2.51c-.36,0-.63-.09-.81-.26-.18-.17-.27-.52-.27-1.02s.09-.9.26-1.11c.17-.21.45-.32.83-.32h1.76c.33,0,.57-.05.74-.15.17-.1.3-.25.38-.46.08-.21.13-.48.15-.81.02-.33.03-.74.03-1.23v-5.61c0-.11.05-.18.15-.21s.2-.05.31-.05h2.31c.18,0,.27.09.27.27v6.58c0,.54.2.95.61,1.24.41.29.95.43,1.64.43h.46c.36,0,.63.1.81.3.18.2.27.54.27,1.01,0,.53-.09.89-.26,1.09-.17.2-.45.3-.83.3-.7,0-1.32-.09-1.84-.26-.52-.17-.94-.55-1.24-1.13ZM594.68,379.96c-.18,0-.27-.09-.27-.27v-2.35c0-.18.09-.27.27-.27h2.27c.18,0,.27.09.27.27v2.35c0,.18-.09.27-.27.27h-2.27ZM598.19,379.96c-.18,0-.27-.09-.27-.27v-2.35c0-.18.09-.27.27-.27h2.27c.18,0,.27.09.27.27v2.35c0,.18-.09.27-.27.27h-2.27Z" class="st0"/>
    <path d="M604.71,368.8c.02-1.04.17-1.93.45-2.66.28-.73.67-1.32,1.16-1.78.5-.46,1.08-.79,1.75-1s1.4-.31,2.2-.31,1.54.11,2.22.32,1.28.56,1.77,1.02.89,1.09,1.17,1.86c.28.77.42,1.71.42,2.8v.47c0,.15,0,.3-.03.45.02.76.19,1.29.53,1.61.33.31.72.47,1.15.47h.78c.36,0,.63.1.81.3.18.2.27.54.27,1.01,0,.53-.09.89-.26,1.09-.17.2-.45.3-.83.3-.31,0-.63,0-.96-.03-.33-.02-.67-.08-1-.18-.33-.1-.65-.24-.95-.44-.3-.19-.57-.46-.81-.81-.49.58-1.09,1-1.83,1.26-.73.26-1.56.38-2.48.38s-1.71-.12-2.43-.37c-.72-.24-1.33-.65-1.81-1.21-.18.29-.4.53-.65.71-.26.18-.52.32-.79.42-.27.1-.55.17-.84.21s-.56.05-.81.05h-.95c-.36,0-.63-.1-.81-.31-.18-.21-.27-.56-.27-1.05,0-.53.09-.88.26-1.07.17-.18.45-.27.83-.27h1.06c.43,0,.82-.17,1.16-.53.34-.35.52-.99.54-1.93-.02-.14-.03-.28-.03-.4v-.4ZM610.27,365.77c-.86,0-1.5.28-1.91.83s-.62,1.37-.62,2.42c0,1.15.21,1.98.62,2.48.41.5,1.05.75,1.91.75s1.52-.26,1.94-.77c.41-.51.62-1.33.62-2.47,0-2.17-.85-3.26-2.56-3.26Z" class="st0"/>
    <path d="M624.08,373.38c-.25.53-.63.89-1.14,1.09s-1.19.3-2.06.3h-2.51c-.36,0-.63-.09-.81-.26-.18-.17-.27-.52-.27-1.02s.09-.9.26-1.11c.17-.21.45-.32.83-.32h1.76c.33,0,.57-.05.74-.15.17-.1.3-.25.38-.46.08-.21.13-.48.15-.81.02-.33.03-.74.03-1.23v-5.61c0-.11.05-.18.15-.21s.2-.05.31-.05h2.31c.18,0,.27.09.27.27v6.58c0,.54.2.95.61,1.24.41.29.95.43,1.64.43h.46c.36,0,.63.1.81.3.18.2.27.54.27,1.01,0,.53-.09.89-.26,1.09-.17.2-.45.3-.83.3-.7,0-1.32-.09-1.84-.26-.52-.17-.94-.55-1.24-1.13ZM620.07,360.84c-.18,0-.27-.09-.27-.27v-2.35c0-.18.09-.27.27-.27h2.27c.18,0,.27.09.27.27v2.35c0,.18-.09.27-.27.27h-2.27ZM623.59,360.84c-.18,0-.27-.09-.27-.27v-2.35c0-.18.09-.27.27-.27h2.27c.18,0,.27.09.27.27v2.35c0,.18-.09.27-.27.27h-2.27Z" class="st0"/>
    <path d="M627.19,374.77c-.36,0-.63-.09-.81-.26-.18-.17-.27-.52-.27-1.05s.09-.87.26-1.08c.17-.21.45-.32.83-.32h1.33c.45,0,.78-.1.99-.31s.31-.58.31-1.12v-13.99c0-.18.09-.27.27-.27h2.49c.18,0,.27.09.27.27v14.71c0,1.17-.24,2.03-.72,2.58-.48.55-1.29.83-2.41.83h-2.51Z" class="st0"/>
    <path d="M639.41,374.5c0,.18-.09.27-.27.27h-2.49c-.18,0-.27-.09-.27-.27v-17.85c0-.18.09-.27.27-.27h2.49c.18,0,.27.09.27.27v17.85Z" class="st0"/>
    <path d="M647.88,374.77c-.85,0-1.6-.09-2.26-.28-.66-.19-1.21-.5-1.66-.95s-.8-1.01-1.04-1.72c-.24-.7-.37-1.57-.37-2.6,0-1.1.15-2.04.45-2.82.3-.78.71-1.43,1.22-1.92.51-.5,1.11-.86,1.77-1.08.67-.22,1.37-.34,2.12-.34.81,0,1.56.11,2.24.32.68.22,1.26.56,1.75,1.03.49.47.87,1.08,1.14,1.84.27.76.41,1.69.41,2.79v6.33c0,1.7-.43,2.93-1.28,3.71-.86.78-2.1,1.16-3.72,1.16h-3.65c-.18,0-.27-.09-.27-.27v-2.16c0-.18.09-.27.27-.27h3.16c.36,0,.7-.03,1-.09.3-.06.57-.19.78-.39.22-.2.38-.48.5-.84.12-.36.17-.84.17-1.43h-2.73ZM648.12,365.77c-.83,0-1.47.3-1.92.91s-.68,1.43-.68,2.45c0,1.13.23,1.9.69,2.32.46.41,1.12.62,1.99.62h2.41v-3.07c0-1.06-.2-1.86-.59-2.41-.4-.55-1.03-.82-1.89-.82Z" class="st0"/>
    <path d="M662.56,376.19c0-.62.08-1.15.23-1.6s.36-.83.62-1.14c.26-.31.56-.56.89-.76s.69-.34,1.07-.43c-.4-.41-.73-.92-.99-1.51-.26-.59-.39-1.31-.39-2.16,0-.63.1-1.27.3-1.93s.53-1.25.99-1.78c.46-.53,1.06-.97,1.81-1.31.75-.34,1.67-.51,2.77-.51,1.19,0,2.2.2,3.03.61s1.48.91,1.95,1.53c.09.14.06.27-.08.38l-1.46,1.51c-.13.13-.25.12-.38-.03-.79-.87-1.75-1.3-2.87-1.3-.92,0-1.63.27-2.12.81-.5.54-.74,1.27-.74,2.18,0,.54.09,1,.26,1.39.17.39.37.71.59.98s.46.48.7.63c.24.15.44.26.58.31h5.81c.18,0,.27.09.27.27v2.16c0,.18-.09.27-.27.27h-8.17c-.5,0-.85.14-1.04.41-.19.27-.28.59-.28.95,0,.49.14.84.41,1.07.27.22.79.34,1.57.34h2.68c.18,0,.27.09.27.27v2.16c0,.18-.09.27-.27.27h-2.95c-1.53,0-2.71-.32-3.54-.96s-1.24-1.67-1.24-3.08Z" class="st0"/>
    <path d="M681.33,374.5c0,.18-.09.27-.27.27h-2.49c-.18,0-.27-.09-.27-.27v-17.85c0-.18.09-.27.27-.27h2.49c.18,0,.27.09.27.27v17.85Z" class="st0"/>
    <path d="M685.96,365.77c-.18,0-.27-.09-.27-.27v-2.16c0-.18.09-.27.27-.27h4.11c1.51,0,2.71.38,3.6,1.13.89.76,1.33,1.99,1.33,3.7v2.53c0,.52.2.93.59,1.21.4.29.94.43,1.62.43h.46c.36,0,.63.1.81.3.18.2.27.54.27,1.01,0,.53-.09.89-.26,1.09s-.45.3-.82.3c-.76,0-1.41-.1-1.96-.3-.55-.2-.98-.62-1.28-1.26-.34.62-.8,1.03-1.38,1.24-.58.21-1.33.31-2.25.31h-6.06c-.18,0-.27-.09-.27-.27v-2.16c0-.18.09-.27.27-.27h5.03c.49,0,.87-.04,1.16-.11.29-.07.51-.19.66-.36.15-.17.25-.39.3-.66s.07-.6.07-1v-1.8c0-.83-.23-1.43-.69-1.8s-1.15-.57-2.07-.57h-3.24Z" class="st0"/>
    <path d="M697.7,374.77c-.36,0-.63-.06-.81-.19-.18-.13-.27-.38-.27-.76,0-.46.09-.86.26-1.22.17-.35.45-.53.83-.53h1.33c.45,0,.78-.1.99-.31.21-.21.31-.58.31-1.12v-6.82c0-.18.09-.27.27-.27h2.49c.18,0,.27.09.27.27v7.55c0,1.17-.24,2.03-.72,2.58-.48.55-1.29.83-2.41.83h-2.51ZM700.08,379.91c-.18,0-.27-.09-.27-.27v-2.35c0-.18.09-.27.27-.27h2.6c.18,0,.27.09.27.27v2.35c0,.18-.09.27-.27.27h-2.6Z" class="st0"/>
    <path d="M714.2,372.07h2.83c.45,0,.78-.1.99-.31s.31-.58.31-1.12v-13.99c0-.18.09-.27.27-.27h2.49c.18,0,.27.09.27.27v14.71c0,1.17-.24,2.03-.72,2.58-.48.55-1.29.83-2.41.83h-11.87c-.18,0-.27-.09-.27-.27v-2.16c0-.18.09-.27.27-.27h4.82v-11.63c0-.18.09-.27.27-.27h2.49c.18,0,.27.09.27.27v11.63ZM710.76,380.91c-.13-.2-.23-.43-.31-.7-.08-.27-.12-.56-.12-.87s.05-.62.15-.93.27-.6.5-.87c.23-.26.53-.47.89-.64.36-.16.8-.24,1.33-.24s.96.09,1.35.27c.4.18.71.42.95.73.07.11.07.2,0,.27l-.7.65c-.07.07-.13.11-.16.11-.04,0-.07-.02-.11-.05-.38-.42-.81-.62-1.3-.62-.42,0-.74.13-.97.39-.23.26-.35.58-.35.96s.09.67.28.93c.19.26.38.46.58.61h2.73c.11,0,.16.06.16.19v.97c0,.13-.05.19-.16.19h-5.73c-.11,0-.16-.06-.16-.19v-.97c0-.13.05-.19.16-.19h1Z" class="st0"/>
    <path d="M727.93,374.5c0,.18-.09.27-.27.27h-2.49c-.18,0-.27-.09-.27-.27v-17.85c0-.18.09-.27.27-.27h2.49c.18,0,.27.09.27.27v17.85Z" class="st0"/>
    <path d="M738.89,368.74c.07-.13.21-.14.41-.05l2.19.87c.09.04.14.09.15.15,0,.06,0,.13-.04.2-.29.51-.56,1.1-.83,1.77-.26.68-.39,1.42-.39,2.23,0,.7.11,1.29.34,1.77.22.48.51.86.87,1.15.35.29.74.49,1.18.61.43.12.86.18,1.27.18,1.05,0,1.88-.28,2.51-.83s.95-1.44.95-2.66v-17.47c0-.18.09-.27.27-.27h2.49c.18,0,.27.09.27.27v17.55c0,1.03-.16,1.93-.47,2.71-.32.78-.76,1.42-1.35,1.93-.58.51-1.28.9-2.09,1.15-.81.25-1.71.38-2.7.38s-1.83-.13-2.63-.38c-.8-.25-1.5-.64-2.09-1.15-.59-.51-1.06-1.16-1.39-1.93-.33-.77-.5-1.69-.5-2.73,0-.97.15-1.95.46-2.92.31-.97.69-1.81,1.14-2.52Z" class="st0"/>
    <path d="M756.09,380.23c-.18,0-.27-.09-.27-.27v-2.16c0-.18.09-.27.27-.27h3.16c.41,0,.78-.04,1.08-.12.31-.08.56-.22.76-.42.2-.2.35-.48.46-.84.11-.36.16-.82.16-1.38h-2.73c-.85,0-1.6-.09-2.26-.28-.66-.19-1.21-.5-1.66-.95s-.8-1.01-1.04-1.72c-.24-.7-.37-1.57-.37-2.6,0-1.1.15-2.04.46-2.82.31-.78.71-1.43,1.22-1.92.51-.5,1.09-.86,1.76-1.08.67-.22,1.37-.34,2.12-.34.81,0,1.56.11,2.24.32.68.22,1.26.56,1.75,1.02s.87,1.08,1.14,1.83c.27.76.41,1.68.41,2.78v3.05h1.87c.36,0,.63.1.81.3s.27.54.27,1.01c0,.58-.09.96-.26,1.13s-.45.26-.82.26h-1.87v.59c0,1.7-.43,2.93-1.28,3.71-.86.78-2.1,1.16-3.72,1.16h-3.65ZM759.23,365.77c-.81,0-1.45.3-1.91.91-.46.61-.69,1.43-.69,2.45,0,1.13.23,1.9.69,2.32.46.41,1.12.62,1.99.62h2.41v-3.07c0-1.06-.2-1.86-.59-2.41-.4-.55-1.03-.82-1.89-.82Z" class="st0"/>
    <path d="M767.91,372.07c.45,0,.78-.1.99-.31s.31-.58.31-1.12v-13.99c0-.18.09-.27.27-.27h2.49c.18,0,.27.09.27.27v13.74c0,.54.2.95.61,1.24s.95.43,1.64.43h.46c.36,0,.63.1.81.3s.27.54.27,1.01c0,.53-.09.89-.26,1.09s-.45.3-.83.3c-.7,0-1.32-.09-1.84-.26-.52-.17-.94-.55-1.24-1.13-.25.51-.61.87-1.09,1.08-.47.21-1.11.31-1.92.31h-2.27c-.36,0-.63-.09-.81-.26-.18-.17-.27-.55-.27-1.13,0-.49.09-.83.26-1.02.17-.19.45-.29.83-.29h1.33Z" class="st0"/>
    <path d="M774.97,374.77c-.36,0-.63-.1-.81-.31-.18-.21-.27-.56-.27-1.05,0-.53.09-.88.26-1.07.17-.18.45-.27.83-.27h7.2c.47,0,.85-.04,1.14-.11.29-.07.51-.2.67-.38.16-.18.27-.42.33-.71.05-.3.08-.66.08-1.09,0-.57-.05-1.11-.16-1.6-.11-.49-.29-.92-.54-1.28-.25-.36-.58-.64-.99-.83-.4-.2-.91-.3-1.53-.3s-1.14.12-1.62.35-.92.55-1.3.95c-.13.13-.25.14-.38.03l-1.41-1.46c-.14-.14-.16-.27-.05-.38.56-.63,1.22-1.15,2-1.57.77-.41,1.72-.62,2.84-.62,1.21,0,2.22.19,3.03.56.81.37,1.46.87,1.95,1.49s.83,1.34,1.04,2.16c.21.82.31,1.69.31,2.61,0,.97-.09,1.78-.27,2.41-.18.63-.45,1.13-.8,1.5-.35.37-.79.63-1.33.77-.53.14-1.15.22-1.85.22h-8.36Z" class="st0"/>
    <path d="M804.42,363.06v-1.16c0-.18.09-.27.27-.27h2.49c.18,0,.27.09.27.27v8.74c0,.54.1.91.31,1.12.21.21.54.31.99.31h1.03c.72,0,1.08.46,1.08,1.37,0,.55-.09.91-.26,1.08s-.45.26-.82.26h-2.19c-.88,0-1.57-.15-2.07-.46s-.82-.86-.99-1.64c-.38.33-.83.58-1.35.75-.52.16-1.07.25-1.65.25-.7,0-1.37-.1-1.99-.3s-1.16-.51-1.62-.92c-.46-.41-.83-.94-1.1-1.58-.27-.64-.4-1.41-.4-2.31,0-1.05.15-1.92.45-2.62.3-.7.69-1.27,1.19-1.69.5-.42,1.06-.73,1.69-.91.63-.18,1.29-.27,1.98-.27h2.71ZM799.26,359.76c-.18,0-.27-.09-.27-.27v-2.35c0-.18.09-.27.27-.27h2.27c.18,0,.27.09.27.27v2.35c0,.18-.09.27-.27.27h-2.27ZM801.88,370.96c.87,0,1.5-.25,1.92-.74.41-.49.62-1.21.62-2.17v-2.29h-2.41c-.78,0-1.4.2-1.87.59-.47.4-.7,1.12-.7,2.18,0,.83.22,1.44.65,1.83.43.39,1.03.59,1.79.59ZM802.77,359.76c-.18,0-.27-.09-.27-.27v-2.35c0-.18.09-.27.27-.27h2.27c.18,0,.27.09.27.27v2.35c0,.18-.09.27-.27.27h-2.27Z" class="st0"/>
    <path d="M815.65,363.41c.95.02,1.83.09,2.62.2.79.12,1.46.35,2.02.7.56.35.98.86,1.29,1.53.3.67.46,1.56.46,2.66v1.63c0,.9-.08,1.65-.24,2.24-.16.59-.4,1.06-.72,1.42-.32.36-.73.62-1.23.76-.5.15-1.09.22-1.78.22h-7.95c-.36,0-.63-.1-.81-.31-.18-.21-.27-.58-.27-1.11s.09-.87.26-1.04c.17-.16.45-.25.83-.25h6.71c.49,0,.88-.04,1.16-.11s.51-.19.66-.35.25-.38.3-.65c.04-.27.07-.61.07-1.02v-1.45c0-.81-.22-1.4-.66-1.79s-1.14-.58-2.1-.58h-4.35c-.18,0-.27-.09-.27-.27v-1.89c0-.13.05-.24.16-.35s.2-.21.27-.3l5.84-6.87c.11-.13.22-.15.35-.08l1.75,1.46c.14.11.18.23.11.38l-4.45,5.22Z" class="st0"/>
    <path d="M826.49,363.82c0-.18.09-.27.27-.27h2.49c.18,0,.27.09.27.27v6.58c0,.54.2.95.61,1.24.41.29.95.43,1.64.43h.46c.36,0,.63.1.81.3s.27.54.27,1.01c0,.53-.09.89-.26,1.09s-.45.3-.83.3c-.61,0-1.14-.05-1.58-.16-.44-.11-.82-.35-1.12-.74v.51c0,.97-.08,1.83-.24,2.56-.16.73-.42,1.34-.79,1.83-.37.49-.85.85-1.46,1.1-.61.24-1.36.36-2.26.36h-1c-.18,0-.27-.09-.27-.27v-2.16c0-.18.09-.27.27-.27h.59c.52,0,.93-.09,1.22-.27.29-.18.5-.45.64-.8.14-.35.22-.78.24-1.27.03-.5.04-1.07.04-1.72v-9.66Z" class="st0"/>
    <path d="M838.72,370.39c0,1.12.65,1.68,1.96,1.68.4,0,.72-.02.95-.07.23-.04.42-.14.56-.27.14-.14.23-.34.27-.61.04-.27.07-.64.07-1.11v-4.08c0-.18.09-.27.27-.27h2.49c.18,0,.27.09.27.27v4.44c0,.58.17,1,.52,1.28.34.28.81.42,1.39.42.44,0,.78-.03,1.03-.09.25-.06.44-.19.56-.38s.2-.45.23-.79c.04-.34.05-.8.05-1.38v-5.61c0-.18.09-.27.27-.27h2.49c.18,0,.27.09.27.27v7.55c0,1.24-.26,2.12-.77,2.64s-1.38.77-2.61.77h-1.16c-.63,0-1.17-.12-1.61-.37-.44-.25-.78-.6-1.01-1.05-.25.53-.62.9-1.09,1.11-.48.21-1.12.31-1.93.31h-1.19c-1.28,0-2.16-.48-2.62-1.45-.25.53-.61.9-1.09,1.12-.47.22-1.12.33-1.95.33h-3.08c-.36,0-.63-.09-.81-.26-.18-.17-.27-.5-.27-.97,0-.54.09-.93.26-1.15.17-.22.45-.33.83-.33h2.16c.56,0,.91-.15,1.06-.45.14-.3.22-.83.22-1.61v-4.08c0-.18.09-.27.27-.27h2.49c.18,0,.27.09.27.27v4.46ZM841.15,360.84c-.18,0-.27-.09-.27-.27v-2.35c0-.18.09-.27.27-.27h2.27c.18,0,.27.09.27.27v2.35c0,.18-.09.27-.27.27h-2.27ZM842.88,357.35c-.18,0-.27-.09-.27-.27v-2.35c0-.18.09-.27.27-.27h2.27c.18,0,.27.09.27.27v2.35c0,.18-.09.27-.27.27h-2.27ZM844.67,360.84c-.18,0-.27-.09-.27-.27v-2.35c0-.18.09-.27.27-.27h2.27c.18,0,.27.09.27.27v2.35c0,.18-.09.27-.27.27h-2.27Z" class="st0"/>
  </g>
  <g>
    <rect height="36.44" width="36.44" y="336.95" x="145.93" class="st0"/>
    <rect height="47.85" width="47.85" y="269.09" x="219.85" class="st0"/>
    <rect height="25.2" width="25.2" y="349.98" x="201.63" class="st0"/>
    <rect height="47.49" width="47.49" y="185.19" x="116.66" class="st0"/>
    <rect height="32.24" width="32.24" y="200.44" x="206.18" class="st0"/>
    <rect height="17.41" width="17.41" y="156.32" x="197.47" class="st0"/>
    <rect height="40.02" width="40.02" y="298.71" x="76.64" class="st0"/>
    <rect height="71.97" width="71.97" y="252.17" x="131.51" class="st0"/>
  </g>
</svg>