<svg xmlns="http://www.w3.org/2000/svg" xmlns:xlink="http://www.w3.org/1999/xlink" version="1.1" width="1000" height="1000" viewBox="0 0 1000 1000" xml:space="preserve">
<desc>Created with Fabric.js 3.5.0</desc>
<defs>
</defs>
<rect x="0" y="0" width="100%" height="100%" fill="rgba(255,255,255,0)"/>
<g transform="matrix(8.8191 0 0 8.8191 499.9989 499.9989)" id="982811">
<g style="" vector-effect="non-scaling-stroke">
		<g transform="matrix(1 0 0 1 19.9701 -1.5314)" id="Layer_1">
<linearGradient id="SVGID_8" gradientUnits="userSpaceOnUse" gradientTransform="matrix(1 0 0 1 0 0)" x1="64.94" y1="55.16" x2="88.4" y2="55.16">
<stop offset="0%" style="stop-color:rgb(193,50,218);stop-opacity: 1"/>
<stop offset="100%" style="stop-color:rgb(59,162,255);stop-opacity: 1"/>
</linearGradient>
<path style="stroke: none; stroke-width: 1; stroke-dasharray: none; stroke-linecap: butt; stroke-dashoffset: 0; stroke-linejoin: miter; stroke-miterlimit: 4; is-custom-font: none; font-file-url: none; fill: url(#SVGID_8); fill-rule: nonzero; opacity: 1;" transform=" translate(-76.6651, -55.1636)" d="M 76.04 30.33 c -0.82 0.19 -1.64 0.34 -2.45 0.55 c -0.35 0.09 -1.63 0.61 -1.81 0.58 c -0.11 -0.02 -1.55 -1.35 -1.61 -1.44 c -0.09 -0.13 -0.2 -0.1 0 -0.26 c 0.95 -0.33 1.9 -0.69 2.88 -0.95 c 0.83 -0.22 3.29 -0.48 3.75 -0.71 c 0.15 -0.08 0.88 -1.17 1.21 -1.47 c 5.76 -5.21 13.99 3.09 8.68 8.81 c -0.29 0.31 -1.33 1 -1.4 1.15 c -0.19 0.39 -0.34 2.18 -0.49 2.83 c -1.46 6.38 -5.29 12.11 -8.99 17.39 l 2.15 3.11 c 4.1 -1.06 6.94 3.71 4.1 6.83 c 2.26 4.4 5.42 13.04 0.92 16.9 c -3.98 3.42 -11.13 0.92 -15.33 -0.99 l -2.72 -1.43 h 2.11 c 0.47 0 1.08 -0.66 1.37 -0.62 c 0.37 0.05 1.93 0.89 2.49 1.1 c 2.48 0.92 5.7 1.89 8.33 1.38 c 6.79 -1.32 2.99 -11.28 1.01 -15.25 c -3.39 0.87 -6.2 -2.24 -4.95 -5.53 c 0.13 -0.35 0.87 -1.32 0.86 -1.4 c -0.05 -0.35 -1.71 -2.12 -1.73 -2.45 c 1.31 -1.94 2.14 -3.97 2.83 -6.19 c 0.24 -0.76 0.29 -1.63 0.59 -2.35 c 0.32 -0.78 1.05 -1.71 1.46 -2.5 c 1.66 -3.22 3.17 -6.46 3.76 -10.08 h -1.98 c -1.94 0 -5.04 -3.1 -5.04 -5.04 v -1.98 Z" stroke-linecap="round"/>
</g>
		<g transform="matrix(1 0 0 1 -0.04 6.5532)" id="Layer_1">
<linearGradient id="SVGID_9" gradientUnits="userSpaceOnUse" gradientTransform="matrix(1 0 0 1 0 0)" x1="40.08" y1="63.26" x2="73.22" y2="63.26">
<stop offset="0%" style="stop-color:rgb(193,50,218);stop-opacity: 1"/>
<stop offset="100%" style="stop-color:rgb(59,162,255);stop-opacity: 1"/>
</linearGradient>
<path style="stroke: none; stroke-width: 1; stroke-dasharray: none; stroke-linecap: butt; stroke-dashoffset: 0; stroke-linejoin: miter; stroke-miterlimit: 4; is-custom-font: none; font-file-url: none; fill: url(#SVGID_9); fill-rule: nonzero; opacity: 1;" transform=" translate(-56.655, -63.2482)" d="M 64.81 68.98 h 2.04 v 3.06 h -2.04 v 4.08 h 2.04 v 3.06 h -4.08 v 2.11 c 0 0.29 -0.56 1.6 -0.74 1.93 c -2.27 4.14 -8.39 4.17 -10.71 0.08 c -0.2 -0.35 -0.79 -1.7 -0.79 -2.02 v -2.11 h -4.08 v -3.06 h 2.04 v -4.08 h -2.04 v -3.06 h 2.04 v -4.27 c 0 -0.69 -2.1 -1.62 -2.7 -2.02 c -2.29 -1.56 -4.28 -3.61 -5.71 -6 c 4.85 -6.13 10.41 -11.67 16.53 -16.53 c 6.24 4.73 11.72 10.43 16.62 16.53 c -1.31 2.17 -3.08 4.08 -5.13 5.56 c -0.79 0.57 -2.22 1.22 -2.84 1.76 c -0.14 0.13 -0.44 0.55 -0.44 0.7 v 4.27 Z M 54.61 68.98 v -16.39 c 0 -0.56 -2.9 -3 -3.38 -3.63 l -1.34 1.34 l 2.68 2.68 v 16.01 h 2.04 Z M 60.73 68.98 v -16.01 l 2.68 -2.68 l -1.34 -1.34 c -0.48 0.63 -3.38 3.07 -3.38 3.63 v 16.39 h 2.04 Z" stroke-linecap="round"/>
</g>
		<g transform="matrix(1 0 0 1 -10.5889 -13.1562)" id="Layer_1">
<linearGradient id="SVGID_10" gradientUnits="userSpaceOnUse" gradientTransform="matrix(1 0 0 1 0 0)" x1="37.22" y1="43.54" x2="54.99" y2="43.54">
<stop offset="0%" style="stop-color:rgb(193,50,218);stop-opacity: 1"/>
<stop offset="100%" style="stop-color:rgb(59,162,255);stop-opacity: 1"/>
</linearGradient>
<path style="stroke: none; stroke-width: 1; stroke-dasharray: none; stroke-linecap: butt; stroke-dashoffset: 0; stroke-linejoin: miter; stroke-miterlimit: 4; is-custom-font: none; font-file-url: none; fill: url(#SVGID_10); fill-rule: nonzero; opacity: 1;" transform=" translate(-46.1061, -43.5389)" d="M 43.6 32.26 c 0.5 -0.08 4.27 1.98 4.97 2.38 c 2.23 1.27 4.4 2.72 6.42 4.3 c -5.83 4.72 -11.23 9.98 -15.88 15.88 c -3.16 -6.46 -2.27 -14.31 2.05 -20.02 c 0.35 -0.46 2 -2.47 2.44 -2.54 Z" stroke-linecap="round"/>
</g>
		<g transform="matrix(1 0 0 1 10.5034 -13.1672)" id="Layer_1">
<linearGradient id="SVGID_11" gradientUnits="userSpaceOnUse" gradientTransform="matrix(1 0 0 1 0 0)" x1="58.31" y1="43.53" x2="76.08" y2="43.53">
<stop offset="0%" style="stop-color:rgb(193,50,218);stop-opacity: 1"/>
<stop offset="100%" style="stop-color:rgb(59,162,255);stop-opacity: 1"/>
</linearGradient>
<path style="stroke: none; stroke-width: 1; stroke-dasharray: none; stroke-linecap: butt; stroke-dashoffset: 0; stroke-linejoin: miter; stroke-miterlimit: 4; is-custom-font: none; font-file-url: none; fill: url(#SVGID_11); fill-rule: nonzero; opacity: 1;" transform=" translate(-67.1984, -43.5277)" d="M 69.5 32.26 c 0.44 -0.11 0.82 0.43 1.12 0.74 c 5.48 5.75 7.16 14.61 3.57 21.81 c -4.66 -5.89 -10.04 -11.17 -15.88 -15.88 c 3.48 -2.6 7.19 -4.95 11.2 -6.68 Z" stroke-linecap="round"/>
</g>
		<g transform="matrix(1 0 0 1 -0.05 -24.3425)" id="Layer_1">
<linearGradient id="SVGID_12" gradientUnits="userSpaceOnUse" gradientTransform="matrix(1 0 0 1 0 0)" x1="45.42" y1="32.36" x2="67.87" y2="32.36">
<stop offset="0%" style="stop-color:rgb(193,50,218);stop-opacity: 1"/>
<stop offset="100%" style="stop-color:rgb(59,162,255);stop-opacity: 1"/>
</linearGradient>
<path style="stroke: none; stroke-width: 1; stroke-dasharray: none; stroke-linecap: butt; stroke-dashoffset: 0; stroke-linejoin: miter; stroke-miterlimit: 4; is-custom-font: none; font-file-url: none; fill: url(#SVGID_12); fill-rule: nonzero; opacity: 1;" transform=" translate(-56.645, -32.3525)" d="M 67.87 30.58 l -11.28 7.02 c -3.53 -2.58 -7.26 -4.85 -11.17 -6.83 c 6.52 -4.98 15.76 -4.73 22.45 -0.19 Z" stroke-linecap="round"/>
</g>
		<g transform="matrix(1 0 0 1 -20.0279 15.7616)" id="Layer_1">
<linearGradient id="SVGID_13" gradientUnits="userSpaceOnUse" gradientTransform="matrix(1 0 0 1 0 0)" x1="24.98" y1="72.45" x2="48.36" y2="72.45">
<stop offset="0%" style="stop-color:rgb(193,50,218);stop-opacity: 1"/>
<stop offset="100%" style="stop-color:rgb(59,162,255);stop-opacity: 1"/>
</linearGradient>
<path style="stroke: none; stroke-width: 1; stroke-dasharray: none; stroke-linecap: butt; stroke-dashoffset: 0; stroke-linejoin: miter; stroke-miterlimit: 4; is-custom-font: none; font-file-url: none; fill: url(#SVGID_13); fill-rule: nonzero; opacity: 1;" transform=" translate(-36.667, -72.4566)" d="M 30.24 76.13 h 1.98 c 1.94 0 5.04 3.1 5.04 5.04 v 1.98 c 2.65 -0.48 5.21 -1.33 7.62 -2.53 c 0.3 -0.04 0.9 0.62 1.37 0.62 h 2.11 l -2.72 1.43 c -2.01 0.88 -4.06 1.71 -6.21 2.21 c -0.67 0.15 -2.54 0.31 -2.94 0.51 c -0.18 0.09 -0.66 0.91 -0.89 1.15 c -0.82 0.86 -2.34 1.69 -3.53 1.83 c -6.89 0.81 -9.75 -7.84 -4.07 -11.47 c 1.02 -7.63 5.16 -14.43 9.76 -20.41 l 1.09 2.04 c -3.81 5.31 -7.43 11.06 -8.61 17.6 Z" stroke-linecap="round"/>
</g>
		<g transform="matrix(1 0 0 1 -21.0648 -15.7823)" id="Layer_1">
<linearGradient id="SVGID_14" gradientUnits="userSpaceOnUse" gradientTransform="matrix(1 0 0 1 0 0)" x1="28.02" y1="40.92" x2="43.25" y2="40.92">
<stop offset="0%" style="stop-color:rgb(193,50,218);stop-opacity: 1"/>
<stop offset="100%" style="stop-color:rgb(59,162,255);stop-opacity: 1"/>
</linearGradient>
<path style="stroke: none; stroke-width: 1; stroke-dasharray: none; stroke-linecap: butt; stroke-dashoffset: 0; stroke-linejoin: miter; stroke-miterlimit: 4; is-custom-font: none; font-file-url: none; fill: url(#SVGID_14); fill-rule: nonzero; opacity: 1;" transform=" translate(-35.6301, -40.9127)" d="M 43.25 29.82 l -1.74 1.63 c -3.81 -1.38 -10.74 -2.62 -11.27 3.15 c -0.35 3.86 1.26 7.62 2.81 11.03 c 0.73 -0.18 1.56 -0.22 2.27 0.02 c -0.17 1.83 0.08 3.69 0.44 5.49 c 0.28 1.41 1.17 2.26 -0.88 2.51 c -4.06 0.5 -6.31 -3.94 -3.66 -6.94 c -2.19 -4.36 -5.17 -12.21 -1.43 -16.4 c 3.19 -3.58 9.58 -1.99 13.46 -0.51 Z" stroke-linecap="round"/>
</g>
</g>
</g>
</svg>