<?xml version="1.0" encoding="UTF-8"?>
<svg id="Layer_1" xmlns="http://www.w3.org/2000/svg" xmlns:xlink="http://www.w3.org/1999/xlink" version="1.1" viewBox="0 0 526.74 526.74">
  <!-- Generator: Adobe Illustrator 29.3.1, SVG Export Plug-In . SVG Version: 2.1.0 Build 151)  -->
  <defs>
    <style>
      .st0 {
        fill: url(#linear-gradient2);
      }

      .st1 {
        fill: url(#linear-gradient1);
      }

      .st2 {
        fill: url(#linear-gradient3);
      }

      .st3 {
        fill: url(#linear-gradient6);
      }

      .st4 {
        fill: url(#linear-gradient5);
      }

      .st5 {
        fill: url(#linear-gradient4);
      }

      .st6 {
        fill: url(#linear-gradient);
      }
    </style>
    <linearGradient id="linear-gradient" x1="332.29" y1="253.28" x2="524.83" y2="253.28" gradientUnits="userSpaceOnUse">
      <stop offset="0" stop-color="#c132da"/>
      <stop offset="1" stop-color="#3ba2ff"/>
    </linearGradient>
    <linearGradient id="linear-gradient1" x1="128.25" y1="319.72" x2="400.24" y2="319.72" xlink:href="#linear-gradient"/>
    <linearGradient id="linear-gradient2" x1="104.8" y1="157.92" x2="250.61" y2="157.92" xlink:href="#linear-gradient"/>
    <linearGradient id="linear-gradient3" x1="277.87" y1="157.87" x2="423.73" y2="157.87" xlink:href="#linear-gradient"/>
    <linearGradient id="linear-gradient4" x1="172.14" y1="66.16" x2="356.37" y2="66.16" xlink:href="#linear-gradient"/>
    <linearGradient id="linear-gradient5" x1="4.39" y1="395.13" x2="196.2" y2="395.13" xlink:href="#linear-gradient"/>
    <linearGradient id="linear-gradient6" x1="29.31" y1="136.47" x2="154.32" y2="136.47" xlink:href="#linear-gradient"/>
  </defs>
  <path class="st6" d="M423.37,49.5c-6.69,1.55-13.44,2.8-20.12,4.48-2.88.72-13.34,5.02-14.81,4.73-.87-.17-12.74-11.09-13.25-11.82-.76-1.1-1.62-.85,0-2.12,7.81-2.72,15.63-5.67,23.65-7.76,6.84-1.78,27-3.96,30.8-5.84,1.25-.62,7.24-9.64,9.92-12.06,47.29-42.76,114.79,25.32,71.22,72.27-2.35,2.53-10.91,8.17-11.53,9.41-1.6,3.23-2.77,17.91-3.99,23.23-12.01,52.35-43.38,99.41-73.74,142.71l17.67,25.56c33.68-8.68,56.97,30.41,33.64,56.07,18.55,36.1,44.44,107,7.54,138.7-32.65,28.04-91.33,7.57-125.78-8.16l-22.32-11.7h17.27c3.88,0,8.82-5.44,11.26-5.09,3.04.43,15.83,7.32,20.41,9.02,20.32,7.52,46.78,15.52,68.37,11.31,55.7-10.85,24.5-92.6,8.26-125.14-27.81,7.17-50.85-18.34-40.63-45.42,1.09-2.9,7.16-10.79,7.05-11.46-.44-2.85-14.03-17.4-14.18-20.1,10.75-15.88,17.52-32.54,23.22-50.77,1.94-6.22,2.39-13.35,4.83-19.25,2.63-6.38,8.61-14.02,11.95-20.51,13.6-26.43,26.01-53.04,30.86-82.73h-16.23c-15.93,0-41.35-25.42-41.35-41.35v-16.23Z"/>
  <g>
    <path class="st1" d="M331.25,366.7h16.75v25.13h-16.75v33.5h16.75v25.13h-33.5v17.27c0,2.38-4.62,13.17-6.11,15.88-18.66,33.97-68.81,34.23-87.9.66-1.64-2.88-6.49-13.92-6.49-16.54v-17.27h-33.5v-25.13h16.75v-33.5h-16.75v-25.13h16.75v-35.07c0-5.67-17.25-13.29-22.12-16.61-18.81-12.83-35.14-29.6-46.87-49.2,39.81-50.28,85.39-95.79,135.61-135.65,51.22,38.83,96.2,85.58,136.37,135.65-10.71,17.81-25.26,33.44-42.06,45.63-6.5,4.71-18.24,10.01-23.29,14.4-1.19,1.03-3.64,4.52-3.64,5.78v35.07ZM247.5,366.7v-134.52c0-4.64-23.81-24.64-27.74-29.82l-10.97,10.97,21.97,21.98v131.38h16.75ZM297.75,366.7v-131.38l21.97-21.98-10.97-10.97c-3.93,5.18-27.74,25.18-27.74,29.82v134.52h16.75Z"/>
    <path class="st0" d="M157.16,65.38c4.14-.64,35.02,16.25,40.79,19.53,18.31,10.42,36.07,22.34,52.66,35.25-47.86,38.74-92.19,81.9-130.31,130.32-25.95-53.01-18.63-117.41,16.84-164.25,2.87-3.79,16.44-20.29,20.02-20.85Z"/>
    <path class="st2" d="M369.74,65.38c3.65-.86,6.74,3.56,9.15,6.09,44.95,47.15,58.72,119.87,29.3,179.01-38.26-48.33-82.37-91.66-130.32-130.32,28.58-21.33,59.01-40.59,91.87-54.78Z"/>
    <path class="st5" d="M356.37,51.61l-92.59,57.61c-28.99-21.16-59.6-39.83-91.63-56.06,53.48-40.87,129.34-38.78,184.22-1.55Z"/>
  </g>
  <g>
    <path class="st4" d="M47.54,425.33h16.23c15.93,0,41.35,25.42,41.35,41.35v16.23c21.76-3.92,42.78-10.95,62.55-20.8,2.43-.35,7.37,5.09,11.26,5.09h17.27l-22.32,11.7c-16.52,7.26-33.29,14.06-50.95,18.15-5.46,1.26-20.81,2.55-24.09,4.17-1.44.71-5.41,7.48-7.3,9.45-6.73,7.06-19.21,13.9-28.93,15.04-56.54,6.63-79.98-64.35-33.41-94.13,8.33-62.63,42.35-118.42,80.1-167.47l8.9,16.75c-31.23,43.58-60.99,90.77-70.66,144.46Z"/>
    <path class="st3" d="M154.32,45.32l-14.27,13.39c-31.23-11.32-88.14-21.48-92.49,25.87-2.91,31.67,10.3,62.49,23.07,90.52,5.96-1.44,12.83-1.84,18.66.14-1.37,14.98.67,30.29,3.59,45.08,2.29,11.58,9.58,18.56-7.25,20.63-33.3,4.1-51.77-32.35-30-56.92-17.95-35.79-42.39-100.2-11.77-134.55,26.18-29.37,78.6-16.32,110.45-4.16Z"/>
  </g>
</svg>