<svg xmlns="http://www.w3.org/2000/svg" xmlns:xlink="http://www.w3.org/1999/xlink" version="1.1" width="1000" height="1000" viewBox="0 0 1000 1000" xml:space="preserve">
<desc>Created with Fabric.js 3.5.0</desc>
<defs>
</defs>
<rect x="0" y="0" width="100%" height="100%" fill="rgba(255,255,255,0)"/>
<g transform="matrix(7.2317 0 0 7.2317 500.0012 500.0012)" id="879220">
<g style="" vector-effect="non-scaling-stroke">
		<g transform="matrix(1 0 0 1 0.01 4.88)" id="Layer_1">
<linearGradient id="SVGID_11" gradientUnits="userSpaceOnUse" gradientTransform="matrix(1 0 0 1 0 0)" x1="24.37" y1="61.57" x2="89.01" y2="61.57">
<stop offset="0%" style="stop-color:rgb(193,50,218);stop-opacity: 1"/>
<stop offset="100%" style="stop-color:rgb(59,162,255);stop-opacity: 1"/>
</linearGradient>
<path style="stroke: none; stroke-width: 1; stroke-dasharray: none; stroke-linecap: butt; stroke-dashoffset: 0; stroke-linejoin: miter; stroke-miterlimit: 4; is-custom-font: none; font-file-url: none; fill: url(#SVGID_11); fill-rule: nonzero; opacity: 1;" transform=" translate(-56.705, -61.575)" d="M 88.99 29.9 l 0.03 35.19 c -1.34 16.36 -20.15 28.11 -32.42 36.4 c -13.03 -9.3 -29.88 -18.95 -32.22 -36.4 l 0.03 -35.19 c 7.63 -0.99 14.67 -4.21 21.13 -8.24 c 0.4 0.07 4.65 5.95 4.84 6.47 c 0.15 0.4 0.33 0.74 0.17 1.19 l -9.03 44.86 c 0.07 0.48 1.77 2.44 2.23 2.96 c 2.64 3.02 8.24 8.88 11.28 11.29 c 1.39 1.1 1.7 1.29 3.22 0.15 c 2.76 -2.08 9.55 -9.11 11.9 -11.89 c 0.53 -0.63 1.76 -2.02 1.81 -2.77 l -9.07 -44.6 c -0.16 -0.45 0.02 -0.78 0.17 -1.19 c 0.19 -0.52 4.44 -6.4 4.84 -6.47 c 6.45 4.03 13.5 7.25 21.13 8.24 Z" stroke-linecap="round"/>
</g>
		<g transform="matrix(1 0 0 1 -0.005 -8.8354)" id="Layer_1">
<linearGradient id="SVGID_12" gradientUnits="userSpaceOnUse" gradientTransform="matrix(1 0 0 1 0 0)" x1="46.04" y1="47.86" x2="67.34" y2="47.86">
<stop offset="0%" style="stop-color:rgb(193,50,218);stop-opacity: 1"/>
<stop offset="100%" style="stop-color:rgb(59,162,255);stop-opacity: 1"/>
</linearGradient>
<path style="stroke: none; stroke-width: 1; stroke-dasharray: none; stroke-linecap: butt; stroke-dashoffset: 0; stroke-linejoin: miter; stroke-miterlimit: 4; is-custom-font: none; font-file-url: none; fill: url(#SVGID_12); fill-rule: nonzero; opacity: 1;" transform=" translate(-56.69, -47.8595)" d="M 56.58 11.9 c 0.52 -0.09 6.53 6.42 7.68 7.14 c -1.03 2.05 -6.01 7.18 -6.05 9.14 l 9.13 44.86 c -0.06 0.95 -9.27 9.27 -10.54 10.78 c -3.76 -3.3 -7.51 -7.01 -10.76 -10.78 l 9.13 -44.86 c -0.04 -2.03 -4.99 -7.07 -6.05 -9.14 l 7.46 -7.14 Z" stroke-linecap="round"/>
</g>
</g>
</g>
</svg>