<?xml version="1.0" encoding="UTF-8"?>
<svg id="Layer_1" xmlns="http://www.w3.org/2000/svg" xmlns:xlink="http://www.w3.org/1999/xlink" version="1.1" viewBox="0 0 113.39 113.39">
  <!-- Generator: Adobe Illustrator 29.3.1, SVG Export Plug-In . SVG Version: 2.1.0 Build 151)  -->
  <defs>
    <style>
      .st0 {
        fill: url(#linear-gradient1);
      }

      .st1 {
        fill: url(#linear-gradient);
      }
    </style>
    <linearGradient id="linear-gradient" x1="24.38" y1="58.94" x2="65.86" y2="58.94" gradientUnits="userSpaceOnUse">
      <stop offset="0" stop-color="#c132da"/>
      <stop offset="1" stop-color="#3ba2ff"/>
    </linearGradient>
    <linearGradient id="linear-gradient1" x1="47.52" y1="54.41" x2="89.01" y2="54.41" xlink:href="#linear-gradient"/>
  </defs>
  <path class="st1" d="M30.59,33.56c-.48-.1-1.35-.88-1.53-1.36-.57-1.57.27-3.11,1.96-3.27,2.36-.22,7.34-.22,9.7,0,1.2.11,1.84.81,2.09,1.95-.22,3.18.28,6.7,0,9.84-.18,2.02-2.6,2.84-4.04,1.43-.15-.15-.59-.84-.59-1v-4.99c-3.4,3.02-6.1,6.94-7.52,11.28h11.06c1.2,0,3.5,1.61,4.24,2.55,2,2.57.89,5.33,2.62,7.35,1.68,1.96,3.32,1.32,5.46,1.91,6.28,1.73,6.72,10.76.65,13.16-3.16,1.25-7.63-.61-10.23,1.62-2.01,1.72-1.67,4.23-1.64,6.63,2.6,1.36,5.21,2.49,8.1,3.1,3.25.69,6.27.76,9.57.37,1.66-.2,4.38-1.36,5.16.95.86,2.56-1.24,3.15-3.16,3.5-15.25,2.82-30.64-5.98-36.03-20.41-4.53-12.12-1.58-25.55,7.52-34.63-.99-.14-2.48.19-3.4,0Z"/>
  <path class="st0" d="M79.38,79.82h3.4c.53,0,1.41.95,1.57,1.47.45,1.55-.34,3.02-1.99,3.16-3.24.28-7.04-.13-10.3-.12-.8-.36-1.38-.92-1.48-1.84-.35-3.22.18-7.18.1-10.46.43-1.49,2.58-1.96,3.71-1.02.17.14.82,1.08.82,1.21v4.99c3.39-3.02,6.09-6.94,7.52-11.28h-4.12c-1.95,0-4.48-2.46-5.2-4.2-1.91-4.6,2.41-13.73-5.35-14.31-2.31-.17-3.45.25-5.77-.74-6.25-2.67-7.53-11.19-2.33-15.59.74-.62,1.62-1.02,2.38-1.59-1.04-.06-2.07-.34-3.11-.43-2.11-.19-4.38-.1-6.48.16-1.64.2-4.1,1.33-4.97-.85-1.33-3.34,3.02-3.7,5.24-3.94,22.11-2.32,39.9,17.4,35.27,39.18-1.3,6.13-4.53,11.76-8.89,16.19Z"/>
</svg>