<?xml version="1.0" encoding="UTF-8"?>
<svg id="Layer_1" xmlns="http://www.w3.org/2000/svg" xmlns:xlink="http://www.w3.org/1999/xlink" version="1.1" viewBox="0 0 113.39 113.39">
  <!-- Generator: Adobe Illustrator 29.3.1, SVG Export Plug-In . SVG Version: 2.1.0 Build 151)  -->
  <defs>
    <style>
      .st0 {
        fill: url(#linear-gradient2);
      }

      .st1 {
        fill: url(#linear-gradient1);
      }

      .st2 {
        fill: url(#linear-gradient3);
      }

      .st3 {
        fill: url(#linear-gradient);
      }
    </style>
    <linearGradient id="linear-gradient" x1="24.38" y1="58.76" x2="68.79" y2="58.76" gradientUnits="userSpaceOnUse">
      <stop offset="0" stop-color="#c132da"/>
      <stop offset="1" stop-color="#3ba2ff"/>
    </linearGradient>
    <linearGradient id="linear-gradient1" x1="37.68" y1="28.3" x2="55.48" y2="28.3" xlink:href="#linear-gradient"/>
    <linearGradient id="linear-gradient2" x1="50.32" y1="63.16" x2="76" y2="63.16" xlink:href="#linear-gradient"/>
    <linearGradient id="linear-gradient3" x1="76.03" y1="82.58" x2="89.01" y2="82.58" xlink:href="#linear-gradient"/>
  </defs>
  <g>
    <path class="st3" d="M33.97,28.48v1.96c0,3.45,2.98,5.45,6.11,5.62,3.88.21,9.26.23,13.13,0,3.08-.19,5.99-2.27,5.99-5.62v-1.96h4.98c1.72,0,4.61,2.89,4.61,4.6v14.57c-3.61-1.3-7.49-1.36-11.16-.25h-23.6c-1.66,0-2.71,1.89-1.52,3.15.2.21,1.01.62,1.27.62h17.73c-.27.41-.69.7-1.01,1.08-.73.85-1.29,1.85-1.98,2.68l-14.36.02c-1.74-.09-2.91,1.98-1.58,3.23.19.18.99.56,1.2.56h13.31c-.3,1.23-.55,2.51-.5,3.79h-12.67c-2.59.33-2.5,3.5,0,3.77l13.04.02c.17,1.33.67,2.6,1.27,3.78h-14.45c-.21,0-1.01.38-1.2.56-1.33,1.25-.17,3.32,1.58,3.23h16.53s1.77,1.63,1.77,1.63l3.21,2.15h-21.89c-.25,0-1.07.41-1.27.62-1.23,1.31-.06,3.23,1.64,3.16h24.98c1.28-.13,2.21-.92,1.96-2.27,2.59.32,5.27-.08,7.7-1.01v6.24c0,1.9-2.92,4.58-4.86,4.6H29.24c-2.57-.4-4.53-2.39-4.86-4.98v-50.72c.01-1.94,2.73-4.86,4.61-4.86h4.98ZM33.81,39.87c-2.56.37-2.28,3.63.22,3.75h25.1c2.68-.2,2.69-3.58,0-3.78l-25.33.03Z"/>
    <path class="st1" d="M39.62,24.48c4.38.23,9.28-.42,13.6-.04.96.08,2.01.9,2.17,1.86.12.69.13,4.08-.03,4.7s-.9,1.21-1.51,1.26l-14.83-.06c-.49-.13-1.13-.79-1.23-1.29-.15-.72-.12-3.59-.03-4.39.11-.96.95-1.82,1.86-2.05Z"/>
  </g>
  <g>
    <path class="st0" d="M75.98,73.52c-1.02.5-2.03,1.5-2.52,2.52-.18.05-.21-.05-.32-.12-.45-.31-2.58-2.76-2.77-2.76-1.69,1.25-3.73,2.08-5.82,2.36-15.46,2.03-20-20.57-5.19-24.74,11.69-3.3,20.81,9.92,13.74,19.65,0,.2,2.45,2.32,2.76,2.77.07.11.17.13.12.32ZM68.13,57.53c-.28.01-.69.17-.92.35l-6.06,6.05c-.2,0-2.2-2.49-2.96-2.72-1.6-.48-3.1,1.01-2.3,2.55.18.35,3.78,3.98,4.2,4.26.94.63,1.66.34,2.45-.3,1.7-1.38,5.5-5.18,6.88-6.88,1.14-1.4.58-3.42-1.3-3.31Z"/>
    <path class="st2" d="M87.93,87.98c-1.09,1.09-2.87,1.37-4.29.78-1.07-.44-5.55-4.95-6.45-6.04-3.41-4.11,1.44-8.94,5.56-5.43,1.12.95,5.51,5.29,5.97,6.39.59,1.42.31,3.2-.78,4.29Z"/>
  </g>
</svg>